<?xml version="1.0" encoding="UTF-8" standalone="no"?>

<svg
   version="1.1"
   id="svg1"
   width="6666.666"
   height="1552.72"
   viewBox="0 0 6666.666 1552.72"
   xmlns="http://www.w3.org/2000/svg"
   xmlns:svg="http://www.w3.org/2000/svg">
  <defs
     id="defs1" />
  <g
     id="g1"
     transform="translate(-10645.213,1832.4952)">
    <g
       id="group-R5"
       transform="translate(1574.4823,-4602.333)">
      <path
         id="path4"
         d="m 10476.841,4237.2781 v 4.3068 l 0.88,0.4265 h 61.64 l -23.986,-17.9598 -38.534,6.7198 z m 178.374,4.7333 -4.387,-7.24 -9.4,7.24 z m 51.733,0 -7.307,-11.4666 -9.306,11.4666 z m 252.72,0 v -15.4265 l -13.48,0.6 -11.853,14.8265 z m 6.747,0 h 6.693 v -16.053 l -6.693,0.3068 z m 14.293,0 h 63.133 l -45.453,-24.9333 -15.16,8.4267 -2.52,0.1202 z m 165.213,-242.9597 h 37.56 v -38.7733 h -37.56 z m 0,131.8267 h 37.56 v -57.0934 h -37.56 z m 0,111.133 h 8.507 v -26.5462 h -8.507 z m 44.627,-242.9597 h 22.373 v -38.7733 h -22.373 z m 0,131.8267 h 22.373 v -57.0934 h -22.373 z m 22.387,76.8534 h 101.853 v -28.9201 h -101.853 z m 124.253,-133.9468 h -22.4 v 57.0934 h 22.4 z m 7.027,-74.7333 h 37.56 v -38.7733 h -37.56 z m 0,131.8267 h 37.56 v -57.0934 h -37.56 z m 29.106,111.133 h 8.454 v -26.5462 h -8.454 z m -36.133,-281.733 h -22.4 v 38.7733 h 22.4 z m -73.533,47.92 h -50.72 v 57.84 h 101.853 v -57.84 h -50.76 z m 1409.933,139.9466 c 6.227,-1.3066 6.227,-11 0,-11 z m 5.787,49.5467 c 13.866,-0.6536 27.773,-1.2932 41.68,-1.8932 -0.04,-13.1068 -0.04,-26.2001 -0.05,-39.3068 0,-12.0933 -9.333,-20.9867 -20.853,-19.7733 -11.48,1.1733 -20.773,11.56 -20.773,23.1333 z m 2.693,44.3197 h 36.333 v -15.9598 c -0.03,-10.5068 -8.16,-18.7203 -18.186,-18.3334 -10.04,0.3866 -18.147,8.8932 -18.147,19 z m 45.2,-98.293 c 7.16,-0.5734 7.16,-12.3467 -0.03,-11.6667 -7.173,0.68 -7.146,12.2667 0.03,11.6667 m 6.373,51.5468 c 13.934,-0.5604 27.827,-1.1068 41.734,-1.6266 -0.05,-13.6536 -0.07,-27.3069 -0.107,-40.9602 -0.01,-12.5734 -9.373,-22.0134 -20.867,-21 -11.48,1.0266 -20.813,11.7333 -20.813,23.8533 0.04,13.2667 0.04,26.5067 0.05,39.7335 m 2.774,46.7462 h 36.36 c 0,-5.6129 0,-11.24 -0.03,-16.8666 -0.03,-10.9334 -8.173,-19.5334 -18.227,-19.2266 -10.026,0.3334 -18.12,9.2136 -18.12,19.8136 0,5.4266 0,10.8531 0.01,16.2796 m 45.253,-102.6397 c 7.16,-0.5067 7.133,-12.7467 -0.01,-12.1733 -7.187,0.5866 -7.16,12.68 0.01,12.1733 m 6.333,53.8268 c 13.894,-0.4937 27.827,-0.9469 41.734,-1.3604 -0.04,-14.1197 -0.05,-28.2264 -0.107,-42.3597 -0.03,-12.9867 -9.373,-22.88 -20.893,-22.04 -11.534,0.8533 -20.84,11.8133 -20.814,24.44 0.03,13.7466 0.05,27.5466 0.08,41.3201 m 2.8,48.8129 h 36.347 c 0,-5.8666 0,-11.7333 -0.01,-17.6129 -0.05,-11.3068 -8.187,-20.2667 -18.254,-19.9871 -10,0.2667 -18.133,9.4402 -18.133,20.4667 0,5.7068 0.03,11.4272 0.05,17.1333 m 45,-106.2797 c 7.147,-0.44 7.147,-13.0533 -0.05,-12.5733 -7.147,0.4933 -7.12,12.9866 0.05,12.5733 m 6.56,55.7464 c 13.92,-0.4 27.827,-0.7463 41.747,-1.0932 -0.05,-14.4799 -0.05,-28.9732 -0.107,-43.4532 -0.01,-13.3333 -9.4,-23.64 -20.92,-22.9733 -11.533,0.6666 -20.853,11.84 -20.8,24.88 0.03,14.2266 0.04,28.4133 0.08,42.6397 m 2.787,50.5333 h 36.36 c 0,-6.0666 -0.03,-12.1333 -0.03,-18.2265 0,-11.5864 -8.2,-20.8531 -18.226,-20.6135 -10.027,0.2135 -18.147,9.64 -18.147,21.0135 0.03,5.9469 0.04,11.8932 0.04,17.8265 m 44.933,-109.253 c 7.174,-0.32 7.16,-13.2534 -0.03,-12.88 -7.2,0.3733 -7.147,13.2266 0.03,12.88 m 5.454,57.3864 c 13.893,-0.3198 27.8,-0.5731 41.72,-0.8398 -0.01,-14.76 -0.04,-29.5333 -0.04,-44.2933 -0.05,-13.5867 -9.427,-24.2267 -20.96,-23.72 -11.52,0.5067 -20.867,11.8267 -20.814,25.1867 0.01,14.5333 0.07,29.1066 0.09,43.6664 m 2.773,51.8666 h 36.347 c -0.01,-6.2 -0.04,-12.4265 -0.04,-18.653 0,-11.8402 -8.147,-21.3068 -18.214,-21.1203 -10.04,0.1604 -18.186,9.7468 -18.133,21.3869 0.01,6.1334 0.01,12.2667 0.04,18.3864 m 45.173,-111.3864 c 7.187,-0.2 7.187,-13.3866 -0.01,-13.1066 -7.187,0.2533 -7.16,13.3466 0.01,13.1066 m 6.44,58.4934 c 13.894,-0.2267 27.814,-0.4134 41.747,-0.56 -0.03,-14.9467 -0.03,-29.9334 -0.05,-44.8667 -0.03,-13.76 -9.374,-24.6933 -20.92,-24.36 -11.534,0.3467 -20.854,11.72 -20.827,25.3333 0,14.7867 0.01,29.6267 0.05,44.4534 m 2.734,52.893 h 36.386 c -0.03,-6.3197 -0.03,-12.653 -0.03,-18.9864 -0.03,-11.9734 -8.174,-21.6265 -18.2,-21.5068 -10.08,0.1204 -18.2,9.8532 -18.174,21.7199 0,6.2536 0.01,12.5203 0.01,18.7733 m 45.293,-112.3597 c 7.173,-0.1333 7.147,-13.44 -0.04,-13.28 -7.16,0.1733 -7.147,13.4267 0.04,13.28 m 6.36,58.7867 c 13.92,-0.1334 27.84,-0.2134 41.76,-0.28 v -45.2 c 0,-13.84 -9.373,-24.9867 -20.893,-24.8134 -11.56,0.1867 -20.907,11.5467 -20.907,25.3067 0.03,15 0.04,29.9867 0.04,44.9867 m 2.76,53.573 h 36.36 v -19.1598 c -0.04,-12.0531 -8.16,-21.8 -18.213,-21.7468 -10.067,0.067 -18.2,9.827 -18.174,21.8536 0,6.3469 0,12.7333 0.03,19.053 m 45.547,-113.5464 c 7.16,-0.04 7.16,-13.4133 -0.01,-13.3733 -7.186,0.08 -7.186,13.4 0.01,13.3733 m 6.106,59.64 c 13.934,-0.053 27.854,-0.053 41.747,-0.013 0.03,-15.08 0.03,-30.1467 0.03,-45.2267 0,-13.84 -9.347,-25.12 -20.894,-25.1066 -11.546,0 -20.88,11.28 -20.88,25.1333 z m 2.707,53.9064 h 36.373 v -19.1864 c 0.03,-12.0666 -8.133,-21.8666 -18.2,-21.8666 -10.026,0 -18.173,9.8 -18.173,21.8666 z m 45.427,-113.573 c 7.173,0.053 7.173,-13.32 0,-13.3734 -7.2,-0.027 -7.2,13.32 0,13.3734 m 48.04,59.9466 c 0.04,-14.9866 0.05,-29.9866 0.05,-44.9733 0,-13.7733 -9.347,-25.1467 -20.867,-25.3067 -11.56,-0.16 -20.906,11 -20.906,24.84 -0.03,15.0534 -0.03,30.12 -0.03,45.1867 13.933,0.067 27.827,0.1333 41.747,0.2533 m -39.094,53.6264 h 36.374 c 0,-6.3468 0.03,-12.7197 0.03,-19.053 0,-12.0266 -8.146,-21.8266 -18.2,-21.8803 -10.053,-0.04 -18.173,9.7204 -18.2,21.7735 z m 45.4,-113.0797 c 7.174,0.12 7.2,-13.12 0.03,-13.2933 -7.173,-0.1334 -7.2,13.1866 -0.03,13.2933 m 48.107,60.1067 c 0.03,-14.8 0.08,-29.64 0.08,-44.48 0.01,-13.6134 -9.307,-25 -20.853,-25.3067 -11.56,-0.3467 -20.907,10.5867 -20.934,24.36 -0.03,14.9733 -0.03,29.9467 -0.04,44.8933 13.92,0.1467 27.827,0.3334 41.747,0.5334 m -2.773,52.973 c 0,-6.253 0.01,-12.5333 0.01,-18.8 0.05,-11.8801 -8.067,-21.6129 -18.133,-21.7066 -10.027,-0.1063 -18.214,9.5202 -18.227,21.5066 v 19 z m 9.093,-111.7597 c 7.173,0.2133 7.2,-12.88 0.03,-13.1467 -7.174,-0.2533 -7.2,12.92 -0.03,13.1467 m 48.08,59.7999 c 0.03,-14.5732 0.05,-29.1599 0.08,-43.7332 0.04,-13.3467 -9.293,-24.6667 -20.813,-25.1734 -11.547,-0.5066 -20.92,10.1867 -20.947,23.7734 -0.01,14.7733 -0.04,29.5333 -0.07,44.3333 13.894,0.24 27.827,0.5067 41.747,0.7999 m -2.787,51.9598 c 0,-6.1197 0.03,-12.253 0.03,-18.3864 0.04,-11.7068 -8.12,-21.3068 -18.147,-21.4536 -10.04,-0.1734 -18.186,9.3067 -18.24,21.1599 v 18.6801 z m 9.334,-109.4797 c 7.186,0.32 7.2,-12.52 0.03,-12.8933 -7.16,-0.36 -7.173,12.5866 -0.03,12.8933 m 47.826,58.8933 c 0.04,-14.24 0.07,-28.4666 0.09,-42.6933 0.03,-12.6133 -8.707,-23.4533 -19.68,-24.7733 -11.014,0.027 -19.787,10.08 -19.827,22.9733 -0.03,14.48 -0.07,28.9733 -0.08,43.4532 13.16,0.3199 26.347,0.6532 39.493,1.0401 m -2.786,50.5864 c 0.01,-5.9462 0.05,-11.8796 0.05,-17.853 0.01,-10.9599 -7.52,-20.0667 -17.053,-20.947 -9.507,0.4532 -17.067,9.4402 -17.107,20.5735 0,6.0932 -0.01,12.1599 -0.03,18.2265 z m 9.226,-107.013 v 0.027 c 0.72,0.4534 1.56,0.76 2.547,0.84 5.867,0.3067 6.96,-7.92 3.267,-11.24 -0.867,-0.8 -1.96,-1.3333 -3.347,-1.44 -6.227,-0.4133 -7.053,9.0534 -2.467,11.8134 m 50.16,58.2001 c 0.03,-13.7735 0.07,-27.5735 0.08,-41.3201 0.04,-12.6267 -9.28,-23.5867 -20.786,-24.44 -11.52,-0.84 -20.88,9.0533 -20.92,22.04 -0.03,14.1333 -0.05,28.24 -0.09,42.3597 13.92,0.4135 27.814,0.8667 41.72,1.3604 m -9.653,48.8129 2.067,-3 v -3.6 l 3.333,-3.9197 v -5.2667 -5 -4.3734 c -2.787,-7.1334 -9.187,-12.2531 -16.627,-12.4402 -10.04,-0.2796 -18.2,8.6803 -18.24,19.9871 0,5.8796 -0.01,11.7463 -0.01,17.6129 z m 16.28,-102.8664 c 7.187,0.52 7.2,-11.56 0.04,-12.1466 -7.173,-0.6 -7.187,11.6533 -0.04,12.1466 m 6.387,52.5998 1.92,-6.1198 1.666,-4.7333 8.907,-1.6667 6.107,-4.1733 5.293,-7.24 3.067,-6.4 6.106,-2.7733 7.734,-8.2534 c -2.16,-9.8666 -10.36,-17.8133 -20.214,-18.7066 -11.506,-1.0134 -20.866,8.4266 -20.866,21 -0.04,13.12 -0.05,26.2533 -0.09,39.3597 z m 46.213,-48.6531 6.76,-2.04 c 1.6,-3.3333 0.03,-8.6 -4.72,-9.0667 -6.413,-0.6133 -7.08,8.6934 -2.04,11.1067 m 192.373,-227.1733 21.974,-18.2 v -128.2 h -21.974 z m 888.027,-253.6267 -4.64,0.067 c -1.653,2.2933 -2.867,4.96 -3.187,7.72 -0.36,3.3333 -0.546,6.6266 -0.546,9.9066 2.36,-0.053 4.706,-0.1066 7.066,-0.1733 -0.04,-5.7867 0.414,-11.6 1.307,-17.52 m -1.227,21.4933 h -7.04 c 0.147,2.7334 0.4,5.4667 0.814,8.2134 0.4,2.76 1.693,5.3733 3.44,7.6 l 4.64,-0.067 c -1,-5.2933 -1.614,-10.5067 -1.854,-15.7467 m 21.307,-21.8133 -17.44,0.2933 c -0.813,5.88 -1.2,11.6934 -1.16,17.4934 6.053,-0.1334 12.107,-0.2667 18.173,-0.4 -0.07,-5.7734 0.07,-11.5867 0.427,-17.3867 m -0.333,21.76 c -6.067,0.053 -12.107,0.053 -18.174,0.053 0.227,5.2267 0.787,10.44 1.694,15.68 l 17.413,-0.28 c -0.48,-5.16 -0.773,-10.2933 -0.933,-15.4533 m 64.373,14.4 5.027,-0.067 c 1.64,-2.2933 2.866,-4.9466 3.173,-7.7066 0.32,-2.7734 0.48,-5.5067 0.533,-8.24 -2.48,0.08 -4.96,0.16 -7.44,0.2666 -0.07,5.2 -0.493,10.4534 -1.293,15.7467 m 1.24,-19.7467 c 2.493,-0.027 4.987,-0.053 7.467,-0.067 -0.09,-3.2934 -0.374,-6.5867 -0.867,-9.8934 -0.4,-2.76 -1.707,-5.3733 -3.453,-7.6 l -5.014,0.08 c 1.094,5.88 1.72,11.68 1.867,17.48 m -20.133,20.0667 16.24,-0.2667 c 0.706,-5.2933 1.093,-10.52 1.146,-15.7066 -5.626,0.1733 -11.28,0.3333 -16.92,0.48 0,5.16 -0.133,10.32 -0.466,15.4933 m 0.4,-19.84 c 5.653,-0.067 11.306,-0.1467 16.946,-0.2 -0.16,-5.8 -0.733,-11.5867 -1.733,-17.4533 l -16.213,0.2666 c 0.546,5.7867 0.866,11.6134 1,17.3867 m -516.227,32.72 h 47.613 l 33.8,18.4 39.934,35.12 24.573,11.7067 h 26.133 46.08 l 51.067,23.4133 51.84,30.1067 50.707,26.7733 50.68,33.44 27.666,18.3867 41.454,53.5333 36.88,55.6 10.213,8.0667 12.76,-27.76 72.333,-88.04 57.467,-125.1067 v -48.6533 l 31.907,-71.8267 21.28,-57.9067 48.946,-94.9866 42.547,-44.0134 57.453,-55.6133 31.934,-39.3733 4.48,-11.16 c -116.907,87.7733 -255.787,165.8133 -410.587,225.92 -1.867,0.7733 -3.72,1.48 -5.573,2.2266 l -10.12,10.4267 0.09,-0.013 6.747,-2.6267 0.653,1.6533 -6.187,2.4267 -0.266,0.093 3.28,13.2934 h 4.586 v 7.1066 l 15.494,27.8534 c 3.88,0.36 7.746,0.8266 11.626,1.36 6.694,1.0933 14.907,9.28 16.294,17.48 1.146,7.1733 1.266,14.1866 0.373,21.4 -1.147,8.24 -9.08,16.6933 -15.707,18 -24.653,4.3866 -49.48,4.7866 -74.24,1.2266 -3.373,-0.5333 -7.146,-2.92 -10.253,-6.1733 -3,-3.2 -5.36,-7.24 -6.067,-11.28 -1.12,-7.1867 -1.226,-14.2133 -0.333,-21.4 0.52,-3.88 2.56,-7.8 5.253,-11 3.04,-3.6267 6.92,-6.32 10.454,-7.0133 3.826,-0.68 7.64,-1.2534 11.48,-1.7467 l 14.76,-28.7067 v -7.1066 h 3.52 l 0.453,-9.7734 -5.933,2.32 -0.654,-1.6666 6.68,-2.6 0.03,-0.2534 -14.267,-0.8 c -173.813,65.2 -345.573,97.6534 -501.906,98.5467 z m 510.88,-134.3067 c -1.507,0.16 -1.28,2.52 0.24,2.3734 1.52,-0.1467 1.307,-2.5067 -0.24,-2.3734 m -2.947,5.0134 -5.346,2.1066 0.52,1.3467 c 1.626,-0.64 3.226,-1.2667 4.84,-1.8933 0.586,-0.24 1.16,-0.48 1.733,-0.6934 -0.627,-0.1733 -1.227,-0.4533 -1.747,-0.8666 m -10.146,-0.5334 c -1.52,0.1467 -1.307,2.5067 0.24,2.3734 1.533,-0.1467 1.293,-2.52 -0.24,-2.3734 m -2.854,33.3334 -3.253,-12.1867 -3.133,1.24 -0.734,10.9467 z m -0.64,68.6133 c 0.09,5.12 0.174,10.24 0.227,15.3467 l 18.613,-0.2934 c 0.267,-5.1733 0.387,-10.3333 0.347,-15.4533 -6.373,0.1467 -12.773,0.28 -19.187,0.4 m 19.147,-4.8133 c -0.133,-5.7867 -0.427,-11.56 -0.92,-17.3734 l -18.613,0.3067 c 0.106,5.7867 0.226,11.56 0.32,17.36 6.4,-0.12 12.8,-0.1867 19.213,-0.2933 m -3.44,-29.4534 -11.413,-27.24 h -13.414 l -10.573,27.84 c 11.76,-1.0933 23.573,-1.3066 35.4,-0.6 m -36.84,34.5334 c 0.12,5.1333 0.413,10.28 0.827,15.4533 l 17.813,-0.3067 c -0.107,-5.1333 -0.2,-10.2666 -0.293,-15.3733 -6.12,0.1067 -12.254,0.16 -18.347,0.2267 m 18.267,-4.7334 c -0.09,-5.7866 -0.174,-11.5866 -0.227,-17.36 l -17.84,0.2934 c -0.267,5.8133 -0.373,11.6 -0.293,17.4 6.12,-0.12 12.226,-0.2534 18.36,-0.3334 m -10.2,-80.6933 7.84,1.3333 5.626,-6.5333 c -4.48,1.7733 -8.973,3.48 -13.466,5.2 m 3.253,-11.7733 c -1.533,0.1733 -1.293,2.5066 0.227,2.3733 1.52,-0.1467 1.306,-2.52 -0.227,-2.3733 m -13.32,5.0266 c -1.52,0.1467 -1.28,2.52 0.227,2.3734 1.546,-0.16 1.306,-2.52 -0.227,-2.3734 m -2.533,5.8667 -5.814,2.2667 c -0.08,0.52 -0.266,1 -0.506,1.48 2.266,-0.8534 4.533,-1.6667 6.8,-2.52 z m -10.92,0.36 c -1.534,0.16 -1.307,2.52 0.24,2.3733 1.52,-0.16 1.28,-2.52 -0.24,-2.3733 m -5450.6535,173.64 8.6318,-3.4667 11.4958,3.36 10.0792,1.44 -0.4751,-10.08 8.1714,-1.92 6.7021,-12.4533 8.6011,-6.6933 -9.099,-8.16 4.3198,-12.9467 23.0073,-3.84 18.7025,-13.4267 11.9486,5.28 17.2781,-6.2533 9.5968,-9.0933 12.4756,-2.8667 -3.3773,-8.1733 -7.6436,-5.7467 10.5236,-10.5333 15.3253,-9.6 14.8733,-5.2534 -1.8986,-6.24 -11.972,0.96 7.644,-12 26.3773,-13.64 -3.3467,-6.0133 2.8494,-10.5467 12.4533,-3.36 12.476,-3.8133 0.972,-11.5067 10.5547,-5.76 9.5733,1.92 12.9733,3.3467 c 0,0 17.256,-20.1333 19.6307,-19.64 2.42,0.4667 4.3267,-12.9467 4.3267,-12.9467 l 6.22,-6.72 19.1773,-16.7866 -2.3973,-13.4267 9.5746,-8.6133 9.128,-3.84 24.448,-4.7867 -0.476,-8.16 8.6014,-3.84 14.4066,-6.2133 4.7947,-12 8.148,-8.6267 21.108,-7.1867 6.672,-13.4133 7.2293,-11.52 -3.3546,-11.0267 -0.9494,-12.4666 19.6294,-20.1334 9.1213,-0.9466 v -10.5467 l 4.78,-12.48 11.496,-8.1467 21.6053,-8.6266 10.048,-12.4667 15.3267,-8.1333 11.028,-0.9734 10.0787,2.8934 7.6746,8.1466 4.772,0.4667 6.7547,-18.7067 -3.4,-7.1733 9.1213,-13.9067 1.952,-11.0266 -5.2986,-12.4667 9.5733,-9.1066 4.824,-11.5067 2.3747,-8.6133 18.7026,-5.28 -0.4746,-13.92 0.4746,-11.4934 3.8534,-14.8666 -5.7747,-2.88 2.872,-17.7334 13.9013,-10.0666 41.2494,-15.3467 12.4546,-2.88 18.7027,-9.1067 14.8507,-1.9066 11.028,-8.6267 11.496,-11.52 0.98,-16.2933 5.7226,-17.7467 -3.8226,-7.1867 -5.752,-11.4933 4.8026,-12.4667 15.348,-17.2666 -5.7746,-10.0667 -3.8294,-7.1867 4.8014,-12.9333 8.624,-6.24 17.256,-7.1867 12.928,-8.64 37.8733,0.48 12.9747,-2.8666 4.0773,-10.5467 v -15.3467 l 6.4533,-10.36 -0.4746,-29.92 -3.8307,-1.44 v -15.3333 l -2.396,-2.88 -0.4987,-56.56 -5.2306,-3.36 -25.9254,-0.96 -7.652,-9.0933 -2.396,-4.32 -10.08,0.96 -10.0706,-2.4 v -5.76 l 8.1493,-3.36 11.0507,1.44 23.452,-0.96 16.328,-4.2934 16.2986,-7.2133 h -1.4466 v -14.8533 l 3.3693,-7.2 3.8293,-3.3467 5.2774,1.9067 4.296,5.76 2.3973,17.7333 h -2.2987 l 20.052,7.2133 21.552,2.3867 h 14.8734 l 8.1573,-4.8 11.496,4.8 v 5.28 l -8.1493,4.2933 h -11.504 -4.3187 l -8.6013,12.9467 h -8.6547 l -19.1773,3.3733 -1.9,36.9067 -2.42,17.2533 0.4973,55.8934 7.9227,11.6933 v 13.92 h 3.5813 l 7.1987,3.3467 v 9.5866 h 6.7026 l 10.5454,2.88 11.4813,-4.32 7.6973,4.32 3.8294,11.5067 5.2693,11.4933 16.328,13.9067 4.7715,6.72 11.979,3.36 6.724,6.2267 v 9.1066 l 3.829,2.88 8.172,2.4 2.85,8.1467 -6.196,5.7467 0.452,9.1066 5.744,4.32 v 6.2267 l 4.802,5.7733 3.799,4.7734 9.627,-4.32 10.524,0.4933 8.653,9.1067 14.873,3.84 12.455,13.4266 10.999,-4.3333 9.128,4.3333 3.852,11.9734 4.772,11.0133 5.277,6.2533 v 7.1734 l 10.049,3.3733 4.802,6.6933 v 13.9067 l 5.3,7.68 v 9.1067 l 10.998,-6.72 3.83,3.84 3.874,6.7066 10.999,5.76 v 6.24 l 11.525,3.8267 3.355,7.1867 v 9.6 10.0533 l 13.871,2.8933 -2.872,9.1067 11.052,11.4933 11.97,10.0667 8.158,9.12 -7.207,2.8666 5.276,6.72 1.931,6.7067 2.872,13.9067 -4.298,5.76 v 10.5333 l 4.298,5.28 7.229,12.4533 6.671,2.4134 h 8.624 l 5.729,7.1866 v 12.48 l 10.577,4.2934 v 8.64 13.4133 l 3.844,6.7067 1.908,8.6266 4.771,7.2 v 9.12 9.5867 l -4.771,4.7867 4.771,10.0666 4.351,12.4667 3.354,15.3467 v 13.8933 11.0267 l 2.872,10.08 -3.348,16.7733 3.348,19.1733 1.899,13.4267 2.428,47.9333 6.197,12.4534 v 8.64 l 6.226,2.4133 v 10.5333 l 7.705,7.1867 2.375,16.2933 -2.88,11.5067 2.88,10.0667 2.894,7.1866 3.83,14.88 4.801,12.4534 5.745,5.76 2.879,14.8533 v 11.04 l 8.149,13.88 9.099,27.8133 5.277,23.5067 8.624,20.6133 4.802,24.9067 5.277,26.3867 7.177,26.36 5.775,24.92 6.707,28.7733 3.346,32.6 6.24,24.9067 5.254,26.3866 4.333,18.2134 6.693,13.92 8.627,14.8533 v 18.2133 7.6667 l 7.707,5.7467 v 12.4666 7.6667 l 7.64,2.8933 2.4,10.0534 -2.4,8.6266 5.306,7.2 3.32,10.5466 v 9.1068 14.8666 l 2.56,4.3063 34.854,-6.5995 v -43.5734 l -26.08,-5.88 42.906,-12.0134 v -22.48 l 20.2,-5.88 45.107,10.1067 460.627,-128.7867 v 14.32 l -19.347,31.12 5.893,72.3867 -29.453,32.8133 1.68,17.68 44.6,-3.3866 v 9.28 l -39.547,26.0798 61.574,32.4932 h 61.28 v -26.5462 h -31.72 v -84.5868 h 31.72 v -57.0934 h -31.72 v -74.7333 h 31.72 v -38.7733 h -28.907 v -66.9867 h 14.107 v -6.3467 h -6.694 v -54.2933 h 146.254 0.373 146.293 v 54.2933 h -6.706 v 6.3467 h 14.133 v 66.9867 h -28.907 v 38.7733 h 31.734 v 74.7333 h -31.734 v 57.0934 h 31.734 v 84.5868 h -31.734 v 26.5462 h 80.934 v -517.733 l 55.853,-10.0934 v -6.2266 l -29.253,-6.36 v -4.76 l 89.413,-11.3467 71.973,14.1467 v 3.6133 l -24.973,3.9867 v 5.68 l 54.573,11.36 v 517.733 h 53.96 v -383.6397 h 6.827 v 6.1333 h 6.147 v -111.04 h 16.333 v -53.1466 h 3.413 v -13.6267 h 25.88 25.907 v 13.6267 h 3.373 v 53.1466 h 16.347 v 111.04 h 6.147 v -6.1333 h 6.786 v 358.3064 c 35.907,-68.0797 105.934,-200.8797 141.534,-268.4397 0.52,-1.0134 0.52,-0.9467 0.346,-0.5734 2.707,-4.6266 20.627,-35.68 21.6,-51.4 h 6.76 6.8 v 5.56 l 53.427,-0.7866 v -9.5734 h 28.28 2 28.293 v 9.5734 l 53.454,0.7866 v -5.56 h 6.786 6.8 c 0.974,15.6934 18.854,46.76 21.574,51.4 -0.174,-0.3733 -0.2,-0.4266 0.346,0.5734 34.6,65.6933 101.76,193.0133 138.44,262.6132 v -491.4799 h 75.427 31.453 32.507 v 11.52 h -32.507 v 32.5067 h -85.906 -6.307 v 6.28 469.0133 c 0.6,1.1599 1.173,2.2531 1.76,3.3197 h 4.547 v -472.333 h 118.413 v 472.333 h 19.92 v -472.333 h 118.413 v 472.333 h 6.28 v -472.333 -6.28 h -6.28 -85.933 v -32.5067 h -32.48 v -11.52 h 32.48 31.427 75.453 v 400.7067 c 266.32,-33.5867 535.8,-34.12 802.213,-1.6134 l 0.587,-1.24 h 3.293 l 77.107,-126.5733 62.627,-67.44 v -154.36 l -72.2,-14.1467 v -3.1733 l 94.16,6.8933 87.293,-6.8933 v 3.7067 l -68.24,14.28 h -4.24 v 121.64 l 43.467,-35.9867 72.173,-31.7733 56.867,-51.8534 58.36,-48.4933 26.12,-13.3733 55.293,-15.0534 h 47.613 l 5,1.7467 c 155,0.8 325.84,-29.8267 499.054,-93.0667 -1.134,-0.44 -2.067,-1.36 -2.56,-2.5733 -0.947,-2.4 0.24,-5.1067 2.626,-6.04 1.4,-0.5333 2.88,-0.36 4.067,0.32 l 6.28,-2.44 c 0.213,-1.6133 1.293,-3.08 2.933,-3.6933 1.614,-0.6267 3.387,-0.32 4.64,0.7333 l 5.654,-2.2 c 0.293,-1.52 1.32,-2.8667 2.88,-3.48 1.533,-0.5867 3.2,-0.32 4.453,0.6133 l 5.933,-2.32 c 0.227,-1.6133 1.294,-3.0533 2.907,-3.6933 1.64,-0.64 3.4,-0.28 4.653,0.7467 l 5.534,-2.1867 c 0.413,-1.3067 1.386,-2.44 2.773,-2.9867 2.4,-0.9333 5.107,0.2534 6.04,2.64 0.533,1.3867 0.347,2.8934 -0.36,4.08 153.867,-60.4133 291.773,-138.5733 407.653,-226.3066 l 7.627,-18.9867 h 25.52 l 21.28,18.52 51.08,18.5467 48.947,46.3333 76.586,90.3467 48.947,111.2133 51.067,122.7867 48.946,122.7733 28.054,48.6 26.266,63.0267 43.76,66.52 28.014,119.04 54.266,78.773 105.04,40.2803 85.787,40.2667 h -334.373 -56.04 -1824.094 -15.48 -4436.6795 v -551.1467"
         style="fill:#FFD200;fill-opacity:0.25;fill-rule:nonzero;stroke:none;stroke-width:0.133333" />
    </g>
  </g>
</svg>
