<?xml version="1.0" encoding="UTF-8" standalone="no"?>
<!-- Created with Inkscape (http://www.inkscape.org/) -->

<svg
   version="1.1"
   id="svg1"
   width="254.67731"
   height="41.125336"
   viewBox="0 0 254.67731 41.125335"
   xmlns="http://www.w3.org/2000/svg"
   xmlns:svg="http://www.w3.org/2000/svg">
  <defs
     id="defs1" />
  <g
     id="g1"
     transform="translate(-539.17199,-99.804018)">
    <path
       id="path183"
       d="m 5179.04,5536.28 c 23.36,4.09 47.69,-2.14 65.1,-6.19 11.6,11.22 58.61,9.29 70.89,1.04 43.56,13.51 62.9,-4.31 100.22,-8.92 12.62,16.68 71.06,-11.25 132.75,-20.45 17.25,19.25 61.39,1.51 99.83,-4.74 10.45,13.95 67.81,-25.98 82.4,-9.15 39.16,-10.33 47.11,10.83 82.56,1.51 -1.42,-14.21 47.03,-22.36 49.1,-9.72 9.71,-9.73 47.91,-13.22 50.75,-6.42 17.8,-10.67 40.07,-3.98 41.23,-10.51 -636.69,0 -1273.38,0 -1910.08,0 1.15,6.53 23.44,-0.16 41.23,10.51 2.84,-6.8 41.04,-3.31 50.74,6.42 2.07,-12.64 50.53,-4.49 49.12,9.72 35.44,9.32 43.38,-11.84 82.54,-1.51 14.6,-16.83 71.96,23.1 82.42,9.15 38.44,6.25 82.56,23.99 99.83,4.74 61.68,9.2 120.13,37.13 132.74,20.45 37.32,4.61 56.66,22.43 100.22,8.92 12.29,8.25 59.28,10.18 70.89,-1.04 36.12,11.33 41.73,-13.63 65.09,6.19 18.48,18.3 72.62,5.89 123.27,-2.26 57.66,-12.19 214.73,24.5 237.16,2.26 v 0"
       style="fill:#4a044e;fill-opacity:1;fill-rule:evenodd;stroke:none"
       transform="matrix(0.13333333,0,0,-0.13333333,0,869.29333)" />
    <path
       id="path184"
       d="m 5167.48,5669.94 c -2.67,5.45 -5.64,9.88 -8.71,14.39 9.43,-7.79 0,9.6 1.44,11.19 4.3,4.73 6.18,-5.23 10.17,8 2.28,-7.54 8.17,7.34 10.17,6.38 15.11,-7.23 10.2,9.54 17.41,1.6 2.33,-2.56 8.78,5.17 10.16,6.4 4.15,3.7 2.9,0.82 2.9,-6.4 5.89,6.5 10.16,10.08 10.16,0 4.51,3.73 10.75,8.98 8.7,0 1.41,4.63 23.73,11.74 9.44,-3.99 10.45,4.34 8.45,-4.4 13.79,0.8 6.3,6.12 13.3,9.85 18.87,15.99 8.25,9.08 17.06,21.58 23.22,9.59 3.75,-7.31 3.47,7.96 10.16,-11.19 1.31,-3.74 3.77,-13.6 7.26,-11.2 0.17,0.12 5.94,1.68 8.71,3.2 3.88,2.15 -1.1,-8.66 0,-9.59 2.9,-2.47 10.97,13.41 11.61,8 0.94,-7.95 6.23,-1.8 7.26,1.59 6.11,-13.46 18.28,14.94 13.06,-6.39 -1.62,-6.64 15.29,3.9 18.87,3.19 10.89,-2.14 -0.67,-6.99 -1.45,-9.59 9.08,7.5 37.28,-1.72 14.52,-7.98 8.24,0 13.17,2.13 19.06,-0.02 -2.47,2.03 -4.53,-3.78 -1.65,-3.19 12.78,-3.51 19.05,-8.57 21.77,-17.58 -2.47,2.04 -4.79,2.76 -7.25,4.8 0.9,-3 8.18,-5.56 10.16,-11.19 2.92,-8.39 -14.11,3.19 -15.97,3.19 2.12,-3.11 8.13,-13.64 10.16,-14.38 -20.48,5.63 -15.09,0.61 -1.46,-14.39 -3.08,2.54 -12.79,5.97 -10.16,-1.6 1.9,-5.4 12.48,-15.03 5.8,-15.98 -10.84,-1.56 -11.23,5.18 -7.24,-8 -4.53,6.64 -8.81,14.03 -13.07,20.79 -4.61,7.3 -1.19,-9.02 -2.91,-4.81 -3.61,8.87 -14.84,27.68 -24.67,30.38 1.45,0 -2.15,-3.19 4.36,-3.79 -5.37,-4.43 -10.52,4.18 -10.16,3.79 3.23,-3.55 -8.01,-9.59 -10.16,-9.59 7.82,2.87 2.63,-7.46 -0.77,-12.68 7.18,-11.57 8.21,-34.78 -1.94,-45.27 -13.1,-13.53 -23.37,-19.85 -36.8,-30.14 -11.07,-8.49 -15.07,-12.28 -25.01,-20.4 1.32,-7.69 13.88,-11.21 20.83,-14.15 8.5,-3.61 -10.23,2.26 -15.96,-8 -4.62,-8.26 -5.81,-24.21 -8.7,-11.99 -2,8.41 -9.77,13 -17.41,8.79 -6.09,-3.33 -5.5,-10 -13.06,-4.79 -6.47,4.46 -35.45,-5.75 -40.63,-10.38 -10.58,-9.47 10.32,9.83 13.79,12.78 5.84,4.96 15.98,8.32 20.31,15.18 1.22,1.94 -1.44,2.69 -2.91,3.99 -10.7,9.58 -20.21,22.86 -25.88,36.79 -4.6,0.68 -10.28,10.13 -11.83,13.55 -4.69,10.33 -10.7,24.32 -7.25,39.15 1.16,5.01 1.08,11 1.73,15.74 -0.35,0.19 -0.65,0.41 -0.91,0.64 -7.21,6.45 -30.48,-2.25 -30.48,3.2 -5.88,-6.48 -5.8,-9.1 -5.8,1.6 -7.52,-8.27 -12.13,-17.08 -20.51,-23.99 0.94,3.13 -0.76,0.08 0.18,3.21 -5.86,-8.62 -9.83,-19.04 -17.23,-27.18 0,13.97 -0.24,3.87 -4.18,-4.81 -4.37,-9.64 -1.27,5.57 -0.35,9.6 -3.27,-4.8 -6.51,-14.61 -11.61,-17.59 -4.55,-2.63 -10.51,0.06 -11.62,-4.79 -0.97,3.23 -5.45,3.21 -7.25,4.79 -5.77,5.09 5.49,1.94 2.9,4.8 -1.46,1.6 -26.15,12.52 -7.26,8 13.9,-3.33 3.03,5.62 -1.45,11.19 -5.31,6.61 4.38,-3.59 5.81,3.19 1.45,6.98 5.27,-0.87 8.71,-3.19 3.43,-2.33 4.76,0.4 5.8,4.8 1,4.22 11.61,-6.39 11.61,7.98 0,7.41 10.29,-3.48 5.8,6.4 -3.96,8.75 19.21,7.94 8.71,15.99 -5.15,3.94 1.13,8.02 5.8,11.19 5.45,3.69 1.97,0 -2.89,0 15.31,22.49 -30.84,-0.68 -2.91,22.38 -0.94,-4.17 -1.57,-1.33 0,-4.8 0.83,2.74 14.51,8.75 14.51,3.2 0,-11.29 5.55,4.08 10.16,-11.2 0.47,1.51 10.53,6.8 11.62,4.8 z m 182.47,-41.01 c -0.34,0.6 -0.69,1.47 -1.04,2.64 0,-1.3 -1.45,-27.86 -1.45,-23.97 0,3.86 -5.82,27.9 -5.82,17.59 -0.6,2.67 -4.41,21.04 -5.8,15.98 -1.82,-6.66 -6.41,2.01 -7.25,4.8 0,-4.02 -0.62,-2.02 -1.46,-4.8 -0.12,0.39 -0.25,0.76 -0.43,1.1 0.82,-7.84 -2.15,-22.07 -7.64,-32.98 1.96,-4.17 4.08,-19.91 -4.88,-31.29 -0.88,-1.13 31.89,9.71 37.46,33.2 1.34,5.66 0.18,11.96 -1.69,17.73 z m -27.59,17.87 c -0.8,0.67 -1.64,1.42 -2.48,2.36 0.59,-2.6 1.91,-3.33 2.66,-5.53 -0.06,0.97 -0.14,2.08 -0.18,3.17 z m 0.22,-3.87 c -15.49,12.66 -8.35,-8.99 -12.86,-4.96 -5.77,5.16 -7.28,-0.5 -7.43,-5.82 4.46,-4.2 9.51,-10.76 12.79,-16.52 5.1,6.34 7.54,17.07 7.54,25.93 0,0.37 -0.02,0.83 -0.04,1.37 z m -107.48,-59.3 c -1.02,16.82 8.41,34.81 17.77,47.92 -0.03,0.01 -0.06,0.02 -0.08,0.02 -4.96,1.43 4.87,10.31 -4.35,6.4 -2.54,-1.08 -12.44,-0.44 -13.07,1.6 0,-7.48 -5.8,-5.53 -5.8,3.2 -0.68,-2.26 -2.53,-3.18 -4.51,-3.31 -0.74,-6.24 -2.85,-10.83 -2.85,-17.87 0,-11.14 3.63,-34.32 12.89,-37.96 z m 11.17,23.6 c 2.25,-0.92 4.3,-1.1 6.41,-2.42 1.42,-0.89 4.98,-2.13 7.5,-3.76 -1.08,-1.81 -1.86,-3.85 -1.59,-6.25 0.57,-4.76 6.53,2.38 2.91,-7.98 -5.91,-16.94 4.36,7.43 4.36,-4.8 0,-7.12 12.58,6.12 5.8,7.99 0.51,0.65 1.11,1.19 1.74,1.65 0.16,-1.8 0.31,-3.54 0.31,-5.22 0,-10.56 -4.52,-21.09 -9.86,-30.29 -13.03,10.95 -23.9,26.27 -19.89,45.46 0.28,1.28 1.1,3.23 2.31,5.62 z m 17.09,-1.66 c -0.27,0.19 -0.55,0.39 -0.82,0.56 0.55,0.41 1.15,0.88 1.87,1.47 -0.21,-0.67 -0.58,-1.34 -1.05,-2.03 z m -3.03,2.1 c -3.51,1.28 -6.44,2.64 -10.95,5.28 3.16,5.53 7.25,12.15 11.13,18.4 1.31,-1.34 -2.66,-7.8 -3.36,-9.37 -3.33,-7.33 5.37,3.37 8.71,-1.59 -0.74,-3.72 -3.97,-9.3 -5.53,-12.72 z m 18.69,-13.99 c 0.15,-17.63 -6.25,-43.88 -3.08,-45.89 3.7,-2.37 4.35,-0.86 8.34,1.59 15.31,9.4 30.35,19.58 29.2,24.97 -7.27,5.27 -13.4,13.46 -16.55,22.48 -0.54,1.51 -1.44,4.36 -2.22,7.48 -3.23,-0.62 -5.18,-1.54 -4.18,-3.11 6.13,-9.64 -3.34,-6.32 -11.51,-7.52 z m 22.86,11.52 c 0.03,-0.13 0.07,-0.26 0.12,-0.39 4.39,-12.54 7.51,-17.84 17.58,-24.17 1.59,0.79 4.8,1.16 6.62,3.67 10.15,13.96 7.98,26.94 -3.65,39.57 -0.03,-0.11 -0.05,-0.21 -0.09,-0.29 -2.81,-6.96 -13.34,-10.61 -7.26,-14.39 4.66,-2.9 -4.77,-3.24 -13.32,-4 v 0"
       style="fill:#4a044e;fill-opacity:1;fill-rule:evenodd;stroke:none"
       transform="matrix(0.13333333,0,0,-0.13333333,0,869.29333)" />
    <path
       id="path185"
       d="m 5650.29,5498.75 c 0.1,0.88 0.39,1.72 0.92,2.47 -0.68,-1.45 -0.55,-3.03 -0.03,-4.44 0.06,2.94 0.73,5.8 2.3,8.28 0.36,1.88 1.34,3.72 1.48,5.68 -1.41,5.5 2.91,11.14 -0.58,16.78 0.01,0 -0.61,0 -0.59,0 -2.36,2.36 0.51,-4.97 0.23,-7.29 -2.97,4.34 -1.83,3.04 -3.71,-0.88 -1.27,7.25 -0.06,7.15 -2.74,3.92 0.91,4.05 -1.83,4.66 -0.99,9.48 -1.03,-0.92 -1.66,-2.01 -2.72,-2.93 0.98,2.97 3.1,6.64 2.41,7.26 -1.66,-0.54 -4.34,-5.03 -5.45,-5.44 -0.08,-1.5 -0.24,-1.54 -0.31,-3.03 -2.38,4.25 -1.18,-2.73 -1.82,-3.36 -1.7,7.04 -2.91,8.84 -2.45,-1.44 -2.74,5.88 -2.29,3.42 -3.47,-1.86 -2.32,3.16 -2.56,3.69 -5.21,-2.15 0.51,7.21 0.9,6.68 -1.68,5.45 -0.15,1.27 5.17,5.95 -0.46,3.79 5.19,4.98 6.87,5.82 1.88,4.26 5.81,4.75 12.06,5.9 0.94,3.91 6.62,2.28 5.55,4.65 11.12,8.11 -10.4,-4.45 -6.59,3.96 -11.02,6.44 -1.04,-0.65 0.61,-6 0.92,-8.97 -1.1,-1.95 -1.8,7.35 -3.26,-5.88 -0.02,0.05 -0.07,0.1 -0.12,0.15 -1.06,5.58 -0.87,6.9 -3.24,-0.7 -0.83,1.11 0.88,11.9 -2.52,3.3 -0.32,1.86 4.96,13.02 -0.99,5.57 0.26,1.98 6.29,10.6 0.69,5.95 0.38,1.69 10.13,9.09 1,5.06 6.56,6.27 14.48,9.16 21.71,13.74 0.34,1.59 2.55,4.91 1.02,4.73 -2.53,-0.3 -6.17,-6.23 -10.78,-8.37 -0.68,-0.1 1.47,4.2 -2,-0.23 2.65,7.83 4.5,11.36 -6.41,0.8 3.78,7.21 3.2,6.49 -3.32,-0.76 3.76,8.2 0.95,5.69 -5.16,-4.12 0.99,5.57 0.29,4.85 -3.13,-2.23 1.13,7.67 0.62,8.44 -3.77,0.08 1.98,7.95 0.08,5.45 -3.54,-0.31 0.28,2.58 -0.6,3.06 -2.71,-0.29 1.82,9.37 12.95,12.92 21.46,15.49 7.57,1.96 15.6,1.4 19.95,4.64 -0.84,0.64 -5.49,-0.78 -7.73,-0.41 7.48,3.23 -2.19,1.39 -3.3,2.09 10.78,3.44 -0.34,2.24 -0.51,3.4 11.47,2.17 0.29,2.14 0.44,3.22 1.82,1.07 1.47,1.43 -2.9,6.64 12.24,-9.94 3.9,4.24 5.84,6.38 -0.08,-2.82 1.68,-9.3 3.59,-4.62 0.1,-1.57 0.35,-4.95 1.97,-0.07 0.3,-6.9 1.4,-6.83 1.98,-2.35 0.37,-2.26 0.62,-8.44 2.12,-3.22 0.12,-2.05 3.09,-9.42 3.38,-2.54 1.82,-6.34 9.06,-10.33 17.61,-11.25 0.77,4 -4.84,1.84 -7.25,2.77 1.87,3.14 -1.74,1.6 -2.58,2.39 1.34,1.97 -1.47,1.11 -2.17,1.68 4.92,1.62 -1.33,1.83 -2,2.75 8.46,1.81 -4.37,3.14 -6.08,7.01 15.76,-5.76 4.95,2.94 1.52,7.31 1.42,0 0.95,0.75 -0.38,2 2,0 -0.68,2.51 -1.04,3.78 3.49,-2.74 2.94,0.86 2.27,8.43 1.61,-6.91 3.03,-11.44 4.65,0.4 0.09,-7.21 1.32,-6.25 2.09,-2.95 -0.77,-6.07 -0.67,-7.56 2.76,-1.42 -1.04,-4.74 -0.28,-4.46 0.74,-2.94 -1.69,-5.98 -0.36,-4.75 1.23,-1.39 -0.92,-4.37 -0.18,-3.71 2.02,0.36 -2.86,-15.38 -1.54,-15.55 3.02,-6.54 0.33,-2.29 -2.17,-6.82 1.03,-6.82 0,-3.42 1.21,-0.53 1.81,-0.79 0.25,-0.51 -0.38,-1.4 0.73,-1.57 -0.2,7.59 2.98,14 7.66,17.86 -4.32,-10.27 -4.46,-9.23 1.2,-5.84 -5.38,-8.53 -6.26,-8.24 0.92,-5.35 -1.28,-1.66 -3.72,-2.95 -3.78,-4.91 1.66,0 3.14,1.64 4.77,2.48 0.95,1.74 0.11,4.27 0.21,6.41 1.35,-4.15 1.81,-2.77 1.56,4.87 1.84,-6.89 3.36,-10.75 2.58,4.75 0.92,-4.14 2.08,-11.64 2.66,2.29 0.82,-5.02 2.11,-6.97 2.82,2.27 1.04,-7.21 1.42,-10.23 5.13,1.13 -1.52,-9.37 -2.58,-12.1 5.52,-7.19 -0.41,-2.27 -10.75,-10.07 -1.21,-6.75 -0.88,-1.68 -7.58,-6.04 -2.65,-5.05 -2.07,-1.79 -7.11,-3.34 -6.21,-5.31 5.84,0.1 8.63,0.77 13.54,8.18 -4.31,-9.92 -7.33,-13.02 3.92,-4.61 -1.8,-3.68 -18.68,-15.21 -1.27,-10.36 -1.06,-1.76 -17.64,-6.13 -3.16,-5.23 -0.26,-1.06 -19.27,-7.5 -0.79,-3.18 9.1,2.28 16.92,2.99 26.82,-3.71 -5.11,1.1 -1.27,-1.14 -1.93,-1.72 -12.17,7.6 -2.8,-0.19 -4.18,-0.28 -9.09,5.27 -2.06,-1.17 -3.09,-1.71 -8.42,6.6 -2.87,0.72 -4.32,1.1 -9.11,6.6 -2.72,0.67 -4.1,1.02 -16.6,-1.62 -0.33,-1.69 -0.48,-2.51 0.05,-1.06 -10.31,-0.32 0.17,-3.11 -0.67,-2.51 5.28,-3.09 7.93,-4.61 -1.25,-0.14 -2.48,-0.28 -3.71,-0.41 6.91,-2.38 4.74,-6.93 7.11,-10.38 -0.89,-0.24 -7.13,7.49 -2.68,-0.65 -6.99,8.84 -7.42,10.55 -3.71,-1.14 -5.93,8.54 -3.71,0.65 -5.57,0.99 0.75,-1.35 0.63,-3.83 2.29,-4.07 0.68,-0.82 -6.43,-1.55 2.08,-2.43 0.53,-0.84 -4.05,-0.73 1.57,-2.48 0.22,-0.87 -4.15,-0.25 0.65,-2.61 -0.1,-0.89 -4.3,0.77 -0.27,-2.65 -0.98,-0.48 -7.4,5.37 -2.96,-1.49 -5.31,5.3 -7.46,6.94 -5,-1.35 -1.13,0.36 -3,6.81 -3.34,1.13 -3.52,10.2 -1.91,-0.49 -2.85,-0.75 -2.19,9.11 -1.78,1.06 -2.65,1.57 -2.72,10.48 -1.49,1.71 -2.27,2.55 -0.88,1.21 0.39,4.03 -2.62,3.64 -2.03,2.44 -4.58,8.03 -6,7.26 2.36,-4.68 5.83,-10.59 4.63,-13.79 -6.39,8.65 -1.64,-1.76 -2.46,-2.63 -6.19,-3.95 0.82,-1.18 1.23,-1.78 0.47,-0.99 -7.89,-3.47 1.49,-3.01 0.53,-0.87 -7.78,-1.76 1.59,-2.61 -0.24,-1.15 -7.24,-1.39 -0.75,-3.46 -1.29,-0.88 -5.25,2.16 -3.85,-2.63 -0.72,-0.32 -2.24,3.54 -2.15,-0.94 -0.62,-0.51 -2.26,5.06 -1.87,-1.52 -0.97,-0.43 -2.35,7.61 -2.92,-1.32 -1.52,1.15 -1.04,12.89 -3.45,3.25 -0.74,1.03 -0.39,2 0.13,3.2 0.2,0.47 0.85,5.96 -1.28,5.96 -1.15,0 -0.65,-8.5 -0.67,-9.43 1.16,-3.96 -0.6,-7.04 -0.91,-10.45 0.31,-1.49 0.93,-3.12 1.21,-4.62 0.86,-0.75 1.51,-1.63 1.96,-2.61 -0.34,1.32 -0.95,2.59 -1.93,3.68 2.1,-1.88 3.21,-5.22 3.13,-8.11 0.65,2.07 0.9,4.44 0.14,6.59 2.03,-3.85 0.49,-7.37 -1.1,-10.84 -0.87,-1.85 -2.85,-1.43 -4.39,-1.43 -1.74,-0.01 -3.89,-2.96 -5.9,-2.99 -1.52,0 -2.05,1.17 -3.18,1.17 -0.97,0 -2.17,-0.99 -3.33,-0.87 -1.32,0 -1.42,0.91 -2.41,0.91 -1.14,0 -1.9,-0.99 -3.5,-0.99 -3.75,0 -4.22,1.95 -6.86,2.63 -1.98,4.94 -3.14,7.76 -1.23,13.45 -0.32,-1.61 -0.48,-3.23 -0.39,-4.86 z m 1.94,0.27 c 0.19,0.43 0.46,0.84 0.78,1.23 -0.04,1.38 0.1,2.68 0.31,3.95 -0.64,-1.64 -0.96,-3.43 -1.09,-5.18 z m 27.14,3.56 c 0.18,-0.83 0.25,-1.75 0.79,-2.44 0.05,-2.24 -1.18,-3.86 0.11,-5.88 0.63,0.88 0.63,1.8 0.51,2.6 0.08,-0.22 0.16,-0.45 0.23,-0.68 0.08,2.24 -0.35,4.52 -1.64,6.4 z m -26.38,-7.58 c -0.06,0.59 -0.04,1.16 0.02,1.72 -0.06,-0.24 -0.13,-0.49 -0.19,-0.74 -0.11,1.02 -0.05,2.07 0.29,3.06 0.07,-0.56 0.17,-1.13 0.31,-1.73 0.27,-1.07 0.08,-2.04 -0.26,-2.97 -0.07,0.22 -0.12,0.43 -0.17,0.66 v 0"
       style="fill:#4a044e;fill-opacity:1;fill-rule:evenodd;stroke:none"
       transform="matrix(0.13333333,0,0,-0.13333333,0,869.29333)" />
    <path
       id="path186"
       d="m 5903.48,5471.52 c 0.04,0.42 0.18,0.84 0.45,1.19 -0.34,-0.7 -0.27,-1.46 -0.02,-2.14 0.03,1.42 0.35,2.8 1.11,3.99 0.17,0.91 0.64,1.8 0.71,2.74 -0.69,2.64 1.4,5.37 -0.28,8.08 h -0.29 c -1.14,1.14 0.25,-2.39 0.11,-3.5 -1.42,2.08 -0.88,1.46 -1.77,-0.43 -0.63,3.49 -0.04,3.44 -1.33,1.89 0.44,1.95 -0.88,2.24 -0.48,4.56 -0.5,-0.44 -0.8,-0.97 -1.32,-1.4 0.49,1.42 1.51,3.19 1.17,3.49 -0.8,-0.26 -2.09,-2.43 -2.62,-2.63 -0.03,-0.71 -0.12,-0.74 -0.15,-1.46 -1.15,2.06 -0.58,-1.31 -0.88,-1.61 -0.82,3.39 -1.41,4.26 -1.18,-0.7 -1.32,2.84 -1.1,1.66 -1.67,-0.89 -1.11,1.52 -1.23,1.77 -2.51,-1.04 0.24,3.48 0.43,3.22 -0.81,2.63 -0.08,0.61 2.5,2.87 -0.22,1.82 2.48,2.41 3.3,2.82 0.9,2.05 2.8,2.29 5.8,2.86 0.45,1.89 3.2,1.1 2.68,2.24 5.35,3.91 -5,-2.14 -3.16,1.91 -5.3,3.1 -0.5,-0.31 0.28,-2.89 0.44,-4.31 -0.53,-0.95 -0.86,3.53 -1.56,-2.84 -0.02,0.02 -0.04,0.04 -0.06,0.07 -0.51,2.7 -0.42,3.32 -1.56,-0.34 -0.4,0.54 0.42,5.74 -1.21,1.59 -0.16,0.9 2.38,6.27 -0.48,2.69 0.12,0.94 3.03,5.1 0.33,2.86 0.18,0.82 4.87,4.38 0.48,2.44 3.16,3.01 6.97,4.41 10.47,6.62 0.15,0.76 1.23,2.36 0.48,2.28 -1.23,-0.14 -2.97,-3 -5.19,-4.04 -0.33,-0.04 0.7,2.03 -0.97,-0.12 1.28,3.79 2.18,5.49 -3.09,0.41 1.83,3.46 1.55,3.12 -1.6,-0.37 1.81,3.94 0.46,2.73 -2.49,-1.99 0.49,2.68 0.14,2.34 -1.5,-1.07 0.55,3.69 0.29,4.06 -1.82,0.04 0.96,3.82 0.04,2.61 -1.69,-0.16 0.13,1.24 -0.3,1.48 -1.31,-0.14 0.88,4.53 6.24,6.23 10.33,7.48 3.65,0.93 7.52,0.66 9.62,2.22 -0.4,0.31 -2.65,-0.37 -3.72,-0.19 3.59,1.55 -1.07,0.67 -1.6,1 5.19,1.66 -0.16,1.08 -0.24,1.64 5.53,1.05 0.14,1.04 0.21,1.56 0.88,0.5 0.71,0.68 -1.4,3.19 5.9,-4.79 1.89,2.04 2.81,3.08 -0.04,-1.36 0.81,-4.49 1.73,-2.23 0.05,-0.76 0.17,-2.38 0.95,-0.04 0.15,-3.32 0.68,-3.28 0.95,-1.12 0.18,-1.1 0.31,-4.07 1.02,-1.56 0.06,-0.99 1.5,-4.54 1.63,-1.22 0.89,-3.05 4.37,-4.98 8.49,-5.43 0.37,1.94 -2.33,0.89 -3.5,1.34 0.91,1.51 -0.83,0.77 -1.24,1.15 0.66,0.95 -0.71,0.54 -1.04,0.81 2.36,0.78 -0.64,0.88 -0.96,1.33 4.07,0.87 -2.11,1.51 -2.93,3.38 7.6,-2.78 2.38,1.41 0.73,3.52 0.69,0 0.45,0.36 -0.18,0.96 0.95,0 -0.34,1.2 -0.51,1.82 1.69,-1.32 1.42,0.42 1.09,4.06 0.78,-3.33 1.47,-5.5 2.25,0.19 0.04,-3.47 0.63,-3.01 1.01,-1.42 -0.38,-2.92 -0.33,-3.64 1.32,-0.68 -0.5,-2.29 -0.12,-2.15 0.36,-1.42 -0.82,-2.88 -0.17,-2.28 0.59,-0.67 -0.44,-2.1 -0.08,-1.79 0.98,0.18 -1.39,-7.42 -0.75,-7.5 1.45,-3.15 0.17,-1.1 -1.04,-3.29 0.5,-3.29 0,-1.64 0.59,-0.26 0.87,-0.38 0.12,-0.25 -0.19,-0.68 0.35,-0.75 -0.09,3.65 1.44,6.75 3.69,8.6 -2.08,-4.95 -2.14,-4.45 0.58,-2.81 -2.59,-4.12 -3.02,-3.98 0.45,-2.58 -0.63,-0.8 -1.8,-1.43 -1.83,-2.36 0.8,0 1.51,0.78 2.3,1.19 0.46,0.84 0.05,2.06 0.11,3.08 0.65,-1.99 0.86,-1.32 0.75,2.36 0.87,-3.33 1.62,-5.19 1.25,2.28 0.42,-2 0.99,-5.61 1.26,1.11 0.4,-2.43 1.03,-3.36 1.37,1.08 0.49,-3.47 0.69,-4.92 2.46,0.55 -0.72,-4.52 -1.23,-5.83 2.67,-3.46 -0.21,-1.1 -5.19,-4.85 -0.58,-3.25 -0.43,-0.81 -3.66,-2.91 -1.29,-2.44 -0.99,-0.87 -3.41,-1.6 -2.98,-2.55 2.81,0.05 4.16,0.37 6.52,3.93 -2.07,-4.77 -3.54,-6.27 1.89,-2.22 -0.88,-1.77 -9,-7.32 -0.61,-4.99 -0.52,-0.85 -8.51,-2.94 -1.52,-2.51 -0.13,-0.52 -9.29,-3.62 -0.39,-1.54 4.4,1.11 8.15,1.44 12.93,-1.78 -2.47,0.52 -0.62,-0.55 -0.93,-0.84 -5.86,3.67 -1.35,-0.08 -2.03,-0.13 -4.37,2.54 -0.98,-0.56 -1.48,-0.83 -4.05,3.18 -1.38,0.35 -2.08,0.53 -4.38,3.19 -1.31,0.33 -1.97,0.49 -8,-0.78 -0.16,-0.81 -0.24,-1.21 0.02,-0.51 -4.96,-0.14 0.08,-1.49 -0.31,-1.21 2.55,-1.48 3.83,-2.22 -0.61,-0.07 -1.19,-0.14 -1.8,-0.19 3.34,-1.16 2.3,-3.36 3.44,-5.01 -0.43,-0.12 -3.44,3.61 -1.29,-0.31 -3.38,4.26 -3.57,5.08 -1.8,-0.55 -2.85,4.11 -1.77,0.31 -2.67,0.48 0.35,-0.66 0.29,-1.85 1.09,-1.97 0.33,-0.39 -3.09,-0.74 1.01,-1.17 0.25,-0.41 -1.95,-0.35 0.75,-1.19 0.11,-0.42 -1.99,-0.12 0.31,-1.26 -0.04,-0.43 -2.07,0.37 -0.12,-1.28 -0.48,-0.22 -3.57,2.59 -1.43,-0.71 -2.55,2.55 -3.58,3.34 -2.4,-0.66 -0.55,0.18 -1.46,3.29 -1.61,0.55 -1.7,4.91 -0.92,-0.24 -1.37,-0.36 -1.06,4.39 -0.86,0.51 -1.29,0.75 -1.31,5.06 -0.71,0.83 -1.08,1.23 -0.43,0.59 0.18,1.94 -1.27,1.76 -0.97,1.17 -2.21,3.87 -2.9,3.5 1.15,-2.26 2.82,-5.1 2.24,-6.64 -3.08,4.16 -0.8,-0.86 -1.19,-1.27 -2.99,-1.91 0.39,-0.57 0.59,-0.86 0.23,-0.48 -3.79,-1.67 0.72,-1.46 0.25,-0.41 -3.75,-0.84 0.77,-1.25 -0.11,-0.55 -3.49,-0.68 -0.36,-1.67 -0.63,-0.42 -2.53,1.05 -1.86,-1.27 -0.35,-0.15 -1.07,1.71 -1.03,-0.45 -0.3,-0.24 -1.1,2.44 -0.9,-0.73 -0.47,-0.2 -1.13,3.67 -1.41,-0.63 -0.74,0.55 -0.5,6.21 -1.66,1.56 -0.37,0.49 -0.19,0.96 0.06,1.54 0.1,0.22 0.41,2.87 -0.61,2.87 -0.56,0 -0.33,-4.1 -0.33,-4.54 0.55,-1.9 -0.29,-3.39 -0.44,-5.04 0.15,-0.71 0.44,-1.49 0.58,-2.23 0.42,-0.35 0.74,-0.78 0.95,-1.25 -0.17,0.63 -0.46,1.24 -0.93,1.77 1.02,-0.91 1.54,-2.52 1.5,-3.9 0.32,0.99 0.43,2.13 0.08,3.17 0.97,-1.86 0.23,-3.56 -0.54,-5.22 -0.41,-0.89 -1.37,-0.69 -2.11,-0.69 -0.84,-0.01 -1.87,-1.43 -2.84,-1.43 -0.74,0 -0.99,0.55 -1.54,0.55 -0.47,0 -1.04,-0.48 -1.6,-0.42 -0.64,0 -0.68,0.44 -1.16,0.44 -0.55,0 -0.92,-0.48 -1.69,-0.48 -1.81,0 -2.03,0.95 -3.3,1.27 -0.96,2.39 -1.51,3.75 -0.6,6.48 -0.14,-0.77 -0.22,-1.56 -0.18,-2.34 z m 0.93,0.13 c 0.1,0.21 0.22,0.41 0.38,0.6 -0.02,0.66 0.05,1.29 0.15,1.9 -0.31,-0.79 -0.47,-1.66 -0.53,-2.5 z m 13.07,1.72 c 0.1,-0.41 0.13,-0.85 0.39,-1.17 0.02,-1.09 -0.57,-1.87 0.05,-2.84 0.3,0.43 0.3,0.87 0.24,1.26 0.04,-0.11 0.08,-0.23 0.12,-0.33 0.04,1.07 -0.16,2.17 -0.8,3.08 z m -12.71,-3.65 c -0.02,0.28 0,0.55 0.02,0.82 -0.03,-0.12 -0.06,-0.24 -0.09,-0.35 -0.05,0.49 -0.03,0.99 0.14,1.47 0.02,-0.27 0.08,-0.55 0.14,-0.83 0.14,-0.52 0.04,-0.99 -0.12,-1.44 -0.04,0.11 -0.06,0.22 -0.09,0.33 v 0"
       style="fill:#4a044e;fill-opacity:1;fill-rule:evenodd;stroke:none"
       transform="matrix(0.13333333,0,0,-0.13333333,0,869.29333)" />
    <path
       id="path187"
       d="m 4531.75,5557.47 c -4.69,1.22 -6.52,3.21 -7.73,6.08 0.82,-0.2 3.77,-1.08 2.22,1.25 -1.76,2.65 -5,11.51 -5,16.1 3.42,-2.57 -0.54,8.01 -0.69,8.67 0.52,-0.4 0.86,-0.53 1.38,-1.05 0,2.69 -2.57,5.57 -3.12,8.34 4.58,-6.12 -1.19,4.71 -1.74,6.24 -0.52,1.44 2.09,-2.14 2.09,-0.35 0,2.45 -2.09,4.88 -2.09,7.28 0.37,-1.1 1.69,-1.03 1.39,0.69 -0.5,2.98 -2.82,7.69 -0.69,9.03 0.47,0.29 -1.41,8 -2.43,9.36 3.29,0 1.19,7.07 0,8.68 2.95,-0.99 -0.35,2.55 -0.35,5.54 0.15,-0.62 1.94,-2.48 1.39,-0.35 -0.42,1.67 -1.04,3.69 -1.04,5.56 0.47,-0.64 0.77,-1.12 1.39,-1.74 0,2.49 -0.81,4.96 -1.39,7.28 0.46,-0.61 0.86,-0.86 1.04,-1.38 0,1.45 -0.34,2.64 -0.34,4.16 3.2,-2.26 0.67,5.55 3.82,0 1.04,-1.86 3.82,2.52 4.16,-0.34 0.02,-0.32 6.08,-1.48 6.93,-1.75 7.78,-2.36 2.83,14.66 7.28,1.75 0.86,-2.52 2.28,2.2 3.13,0 1.67,-4.35 3.52,3.39 5.89,0 1.4,-2.03 1.27,5.33 2.43,3.46 0.69,-1.1 1.14,-2.43 3.12,-2.43 0.67,0 3.65,-8.55 6.93,-4.16 0.81,-2.41 2.89,0.13 3.82,1.38 0,-4.89 1.93,-0.89 3.13,0.7 0,-5.38 6.73,3.08 8.66,3.47 -2,-3.34 -8.38,-9.53 -1.03,-6.6 7.42,2.98 -1.7,-5.11 -2.43,-6.93 1.18,0.29 2.08,1.05 3.46,1.05 -1.98,-2.48 -3.58,-4.98 -5.89,-7.29 -3.18,-3.19 7.99,1.06 1.73,-5.21 -2.04,-2.03 -5.68,-2.81 -2.77,-3.82 4.43,-1.51 -6.98,-6.94 -5.04,-7.84 2.46,-1.12 3.81,0.36 4.64,-0.37 1.46,-1.29 -6.38,-6.32 -7.23,-7.39 3.08,-0.28 3.69,0.6 4.79,1.16 1.98,1.01 -4.93,-10.19 -5.84,-11.91 -1.07,-2.06 3.54,1.66 2.78,-1.39 -0.75,-3.03 -3.28,-6.4 -5.55,-8.67 1.37,-0.5 2.6,0.43 4.17,1.04 3.21,1.24 -4.74,-5.89 -5.56,-8.32 0.67,-0.48 1.79,-0.64 3.47,0 1.98,0.74 -3.95,-5 -5.54,-6.59 1.31,-1.4 2.47,-1.34 3.8,-1.12 2.32,0.39 -6.67,-7.17 -6.44,-6.89 2.62,-0.99 3.33,0.29 3.65,-0.5 0.46,-1.15 -0.72,-3.35 -2.28,-5.3 -1.92,-2.4 -4.41,-4.08 -5.13,-4.76 -2.89,-2.7 -6.06,-4.73 -6.98,-4.49 0,-14.03 0,-27.31 0.75,-41.18 13.11,-0.1 23.25,-0.74 23.25,-1.51 0,-0.83 -11.89,-1.51 -26.57,-1.51 -14.68,0 -26.58,0.68 -26.58,1.51 0,0.77 10.14,1.41 23.26,1.51 1.36,13.49 1.36,27.3 1.36,40.81 -1.28,-0.02 -3.77,0.01 -3.84,1.04 v 0"
       style="fill:#4a044e;fill-opacity:1;fill-rule:evenodd;stroke:none"
       transform="matrix(0.13333333,0,0,-0.13333333,0,869.29333)" />
    <path
       id="path188"
       d="m 4899.75,5533.44 -13.99,-2.53 35.44,0.68 -13.16,2.3 c -0.35,1.55 -0.44,2.57 -0.4,3.9 1.52,0.12 5.87,1.08 3.3,2.44 1.1,0.79 2.22,1.58 3.35,2.37 2.71,-0.57 7.1,0.46 5.29,4.12 4.05,2.55 3.17,0.86 3.17,5.34 0,0.45 0.04,-1.44 2.13,-1.33 2.15,0.12 0.82,1.9 0.48,2.61 -0.33,0.72 -0.79,0.95 0.46,1.29 2.28,2.2 -2.48,4.33 -2.46,3.78 0,0 0.95,0.95 0.95,2.61 0,1.62 2.6,3.86 2.6,3.86 -2.42,3.88 3.54,3.28 -0.82,6.73 -0.14,0.55 0.12,2.7 1.9,3.11 1.17,0.27 -0.16,2.58 -0.01,3.4 1.05,1.29 2.15,3.02 -0.16,3.63 1.29,2.57 2.91,4.5 -0.44,6.02 2.38,2.37 2.83,3.03 2.83,6.72 0,0.84 -2.83,0.24 -2.83,0.24 0,0 1.81,0.83 2.56,1.28 1.25,0.68 -0.45,4.12 1.78,2.27 1.24,2.76 0.7,2.94 -0.57,5.74 0.95,2.69 1.1,4.66 1.17,7.46 -3.01,-1.43 -2.09,-0.61 -1.89,2.46 -0.67,-0.11 -1.36,-0.23 -2,-0.35 -1.7,1.6 -2.99,2.62 -2,5.41 0.6,1.64 -0.95,4.51 -0.95,5.57 0,1.06 1.17,3.06 1.17,3.52 0,0.48 -1.74,1.77 -0.95,3.05 0.83,1.29 -0.22,6.52 -0.22,6.52 0,0 1.29,4.68 1.29,5.29 0,0.57 -1.89,2 -1.89,2.95 0,0.95 1.17,2.91 0.94,3.37 -0.22,0.45 -1.06,3.07 -1.06,3.07 -1.13,-0.31 -2.31,-0.69 -3.4,-1.07 0.68,1.94 2.5,3.8 0,4.02 2.19,2.94 1.13,5.77 0.49,9.18 -0.35,0.69 -2.2,3.86 0.11,2.73 0,0 0.23,2.49 0.23,3.05 0,0.61 -2.83,3.19 -2.83,3.19 3.11,-1.74 1.6,2.9 1.05,4.27 -0.18,0.57 2.12,2.46 2.12,2.46 0.04,0.98 0.08,1.97 0.11,2.95 -0.41,0 -0.79,0 -1.18,0 0.24,2.61 2.52,11.1 -0.82,5.18 0.72,10.29 1.66,20.58 1.66,30.9 0,1.07 -1.81,1.67 -2.01,2.35 -0.17,0.66 0.69,7.09 0.95,7.9 0.2,0.69 -1.78,4.35 -1.78,4.35 -0.18,1.82 -0.22,2.84 -1.66,4.24 -0.72,0.72 1.26,5.52 0.83,7.34 0.12,1.14 0.23,2.26 0.39,3.4 -0.57,2.24 -1.98,2.88 -0.27,5.18 0.27,0.88 0.53,1.74 0.83,2.61 -5.97,0.41 0.08,1.61 -3.63,5.75 0,0 -1.22,4.85 -1.22,5.56 0,4.63 -4.22,-3.12 -4.46,-3.78 -0.22,1.48 -0.26,2.77 -0.11,4.24 -0.35,0 -0.65,0 -0.94,0 0,0.95 0,1.89 0,2.83 -0.72,-0.68 -1.45,-1.36 -2.12,-2 -2.4,3.73 -3.26,-3.04 -2.58,-5.19 -0.34,-1.09 -0.67,-2.18 -1.05,-3.29 -0.34,0.65 -0.69,1.33 -1.07,2.02 -0.45,-2.62 -0.94,-3.83 -2.22,-6.14 0.18,-2.38 0.26,-4.23 0,-6.62 0.83,-2.15 1.66,-4.31 2.46,-6.47 0.49,-2.23 0.97,-4.42 1.43,-6.61 -0.3,-0.8 -0.6,-1.6 -0.94,-2.35 0.34,-2.76 0.64,-5.52 0.94,-8.24 -0.07,-3.33 -0.15,-6.62 -0.22,-9.91 -0.61,-1.07 -1.25,-2.12 -1.9,-3.18 -0.38,6.24 -0.8,12.49 -1.21,18.72 -1.7,-6.95 -1.23,-13.45 -1.17,-20.61 -2.38,0.18 -2.38,4.38 -2.58,6.12 -1.01,4.13 -2.04,8.26 -3.05,12.38 -0.96,-4.5 0.83,-5.99 0.83,-10.37 0,-5.22 3.93,-9.87 4.58,-15.09 -0.72,1.43 -1.48,2.88 -2.24,4.35 -1.22,-3.31 0.27,-5.5 1.29,-8.85 0.23,-4.27 0.41,-8.55 0.6,-12.83 -0.3,0.83 -0.6,1.71 -0.94,2.58 -0.48,6.37 -0.59,11.34 -3.07,17.21 -0.45,-3.71 -0.15,-6.66 0.34,-10.36 -0.19,-0.57 -0.38,-1.15 -0.56,-1.67 -0.38,1.43 -0.79,2.92 -1.22,4.39 -0.73,-2.53 -0.64,-3.43 -0.11,-6.02 0,0 -0.98,0 -1.89,-1.28 -1.06,-1.44 0.34,-5.34 0.83,-7.11 -3.91,2.96 -7.95,1.73 -3.06,-2.46 -2.99,-1.25 0.95,-5.38 1.77,-7.08 -0.37,-0.03 -0.75,-0.07 -1.17,-0.11 0.08,-0.69 0.16,-1.36 0.22,-2 -0.52,0.26 -1.09,0.53 -1.66,0.83 -2.2,-3.13 -4.91,-4.11 -4.01,-7.91 -0.75,-0.04 -1.54,-0.07 -2.34,-0.11 0.76,-0.91 1.51,-1.82 2.23,-2.73 -0.34,0 -0.68,0 -1.06,0 -0.26,-1.43 -0.53,-2.83 -0.83,-4.23 0.49,-1.66 0.99,-3.33 1.44,-4.95 -1.7,-2.81 -4.61,-6.25 -4.61,-9.65 1.27,-0.11 2.52,-0.23 3.77,-0.35 -0.22,-0.56 -0.44,-1.17 -0.71,-1.77 -1.32,0.41 -1.75,0.54 -3.06,0.11 0.3,-0.39 0.6,-0.8 0.91,-1.21 -0.44,-0.19 0.1,-2.22 -0.31,-3.13 0.92,-1.02 1.85,-2.12 2.72,-3.23 -0.45,-1.21 -0.23,-2.56 -0.23,-2.56 0.12,0.05 0.45,0.2 0.87,0.4 -0.11,-0.91 -0.44,-1.17 -1.47,-2.3 0.94,-2.12 1.57,-2.52 0,-4.24 0.64,-1.77 0.98,-2.75 2.12,-4.22 -0.41,-0.2 -0.87,-0.39 -1.32,-0.61 -0.36,-1.12 -2.22,-3.45 -1.74,-4.39 0.12,-0.26 0.61,-0.76 1.12,-1.23 0.32,-5.24 1.07,-7.72 -2.45,-11.97 0,-2.46 0.04,-4.61 0.42,-6.96 1.59,-1.09 2.54,-1.08 1.13,-2.65 0.31,-0.11 0.57,-0.26 0.83,-0.41 -0.3,-1.93 -0.42,-3.75 -0.42,-5.72 0.97,-2.18 1.3,-2.82 0.84,-5.14 1.66,-4.55 1.7,-6.29 0.98,-11.12 2.75,-11.1 4.47,-15.79 10.56,-27.16 8.37,-4.85 6.52,-4.86 5.89,-11.05 v 0"
       style="fill:#4a044e;fill-opacity:1;fill-rule:evenodd;stroke:none"
       transform="matrix(0.13333333,0,0,-0.13333333,0,869.29333)" />
    <path
       id="path189"
       d="m 4329.55,5495.01 c -3.71,0 -4,-0.17 -5.67,-0.33 -1.66,-0.16 -5.23,-0.14 -4.22,-0.9 1,-0.77 5.28,-1.57 6.62,-1.57 4.06,0 7.76,-1.32 11.94,-0.9 2.57,0.26 6.74,-0.22 9.53,0.21 2.77,0.43 5.22,0.64 4.52,1.33 -0.69,0.7 -3.04,1.34 -4.21,1.45 -11.69,1.05 -9.51,-0.62 -10.59,13.29 -0.05,2.17 -0.18,4.14 0,5.37 1.74,0.33 3.21,-1.03 3.64,-0.83 3.81,1.78 7.17,1.74 11.01,0.25 0.52,3.37 0.37,0.84 2.9,2.23 1.57,0.86 0.69,3.05 2.76,4.48 -0.73,1.76 -0.92,1.75 0.89,0.96 -0.19,1.96 1.05,5.05 3.01,5.77 -0.96,1.71 -1,1.72 -0.26,3.53 0.35,-0.37 0.69,-0.74 1.06,-1.13 0.51,2.89 1.04,6.06 -0.8,8.72 -0.71,1.05 -2.03,0.47 -2.03,0.47 -0.58,2.49 -1.43,3.68 0.96,1.45 0,0 1.56,1.03 1.96,1.92 0.07,5.27 3.64,5.37 3.64,5.84 0,0.49 -1.94,2.21 -0.79,4.04 0,0.62 -1.44,1.81 -2.45,2.38 -2.59,1.63 -3.51,1.15 -2.11,4.73 -0.45,2.8 -4.13,1.59 -0.33,3.59 0,0 0.82,1.37 0.82,1.78 0,1.4 -1.79,0.91 -1.79,3.19 0,0.09 -0.02,0 -1.38,1.36 -1.59,1.57 -4.43,-0.17 -1.7,1.45 0,0 -1.3,1.03 -1.95,1.76 -2.17,2.36 -4.62,-2.25 -3.71,2.49 0,0 -0.98,2.15 -0.98,3.04 0,3.02 -5.82,0.26 -0.88,3.77 -1.27,0.17 -2.54,0.36 -3.8,0.55 0,0 -0.73,0.4 -0.73,1.05 0,0.64 -2.28,3.45 -2.68,3.92 -0.38,0.47 -4.94,-0.24 -5.82,-0.88 -1.54,-1.08 0.8,-4.63 -1.29,-2.17 -0.68,-2.35 -0.47,-2.21 -2.83,-1.76 0.46,-1.93 -0.09,-1.14 -1.63,-0.49 -1.02,-2.31 -0.86,-2.04 -3.24,-1.2 0,0 -2.67,1.44 -3.8,1.44 -1.14,0 -3.91,-2.16 -4.55,-2.79 -1.57,-1.57 1.46,-6.41 -1.45,-3.38 -0.37,-1.23 -0.25,-3.15 -1.22,-1.5 -0.71,-1.65 -0.58,-1.49 -2.26,-0.89 -0.4,-1.72 -0.18,-5.15 1.29,-6.33 -0.69,-1.67 -0.54,-2.25 -1.22,-0.33 -0.07,-1.66 0.44,-7.48 -0.73,-2.8 -0.74,-2.18 -0.79,-4.45 -0.16,-6.63 0,0 -1.21,-1.22 -2.1,-1.69 -1.6,-0.88 -0.9,-5.02 -1.85,-1.93 0,0 -2.04,-2.31 -2.04,-3.84 0,-1.53 0.64,-3.44 0.64,-3.44 1.62,0 1.97,-0.68 3.16,-1.77 -0.25,-0.75 -0.53,-1.49 -0.81,-2.25 2.21,-0.62 1.25,-8.89 -1.13,-8.45 1.11,-2.65 1.82,-4.53 2.1,-7.37 3.04,-0.63 2.28,-1.13 2.28,-4.18 0.82,-0.84 1.64,-1.7 2.43,-2.55 2.69,-0.58 5.37,-4.4 6.17,-4.24 2.87,0.5 2.87,-0.82 5.2,-3.37 1.66,2.37 3.76,-0.15 6.24,-0.94 -0.02,-3.82 0.12,-14.98 -3.58,-14.98 z m -0.01,18.63 c 1.03,-0.46 2.27,-0.63 3.38,-0.8 -0.19,3.96 -0.24,0.24 -2.35,1.01 -0.3,0.11 -0.66,0.02 -1.03,-0.21 v 0"
       style="fill:#4a044e;fill-opacity:1;fill-rule:evenodd;stroke:none"
       transform="matrix(0.13333333,0,0,-0.13333333,0,869.29333)" />
    <path
       id="path190"
       d="m 4259.99,5484.76 c -2.77,0 -2.99,-0.13 -4.24,-0.25 -1.25,-0.12 -3.91,-0.1 -3.16,-0.67 0.75,-0.58 3.95,-1.17 4.96,-1.17 3.04,0 5.81,-1 8.93,-0.69 1.93,0.2 5.05,-0.16 7.13,0.16 2.08,0.33 3.92,0.49 3.4,1 -0.53,0.52 -2.28,1 -3.16,1.09 -8.75,0.79 -7.12,-0.47 -7.92,9.95 -0.04,1.62 -0.14,3.09 -0.01,4.01 1.31,0.25 2.4,-0.77 2.72,-0.62 2.86,1.34 5.38,1.31 8.25,0.18 0.4,2.54 0.28,0.65 2.17,1.68 1.17,0.65 0.52,2.28 2.07,3.36 -0.54,1.31 -0.69,1.3 0.67,0.72 -0.15,1.46 0.78,3.78 2.24,4.31 -0.71,1.28 -0.75,1.29 -0.19,2.65 0.26,-0.27 0.53,-0.57 0.8,-0.85 0.38,2.16 0.78,4.54 -0.61,6.53 -0.52,0.78 -1.52,0.35 -1.52,0.35 -0.42,1.87 -1.06,2.76 0.73,1.08 0,0 1.16,0.78 1.46,1.44 0.06,3.95 2.73,4.03 2.73,4.38 0,0.36 -1.46,1.65 -0.59,3.03 0,0.46 -1.09,1.34 -1.84,1.76 -1.94,1.24 -2.62,0.87 -1.57,3.55 -0.34,2.09 -3.1,1.19 -0.26,2.69 0,0 0.62,1.03 0.62,1.32 0,1.06 -1.34,0.7 -1.34,2.41 0,0.05 -0.02,0 -1.02,1 -1.21,1.18 -3.33,-0.12 -1.28,1.09 0,0 -0.98,0.77 -1.46,1.32 -1.64,1.77 -3.45,-1.68 -2.78,1.86 0,0 -0.73,1.62 -0.73,2.28 0,2.27 -4.36,0.19 -0.67,2.83 -0.95,0.12 -1.89,0.27 -2.85,0.41 0,0 -0.54,0.3 -0.54,0.78 0,0.48 -1.7,2.58 -2.01,2.94 -0.28,0.35 -3.69,-0.18 -4.35,-0.67 -1.14,-0.8 0.59,-3.45 -0.97,-1.62 -0.5,-1.75 -0.35,-1.65 -2.12,-1.32 0.35,-1.43 -0.07,-0.85 -1.22,-0.36 -0.75,-1.74 -0.64,-1.53 -2.42,-0.9 0,0 -2,1.09 -2.85,1.09 -0.84,0 -2.92,-1.63 -3.39,-2.1 -1.19,-1.17 1.08,-4.8 -1.1,-2.52 -0.28,-0.93 -0.18,-2.36 -0.9,-1.13 -0.54,-1.25 -0.44,-1.12 -1.7,-0.67 -0.3,-1.29 -0.13,-3.84 0.96,-4.74 -0.51,-1.25 -0.4,-1.68 -0.91,-0.24 -0.05,-1.25 0.33,-5.6 -0.54,-2.1 -0.56,-1.64 -0.6,-3.33 -0.12,-4.97 0,0 -0.91,-0.91 -1.57,-1.26 -1.2,-0.65 -0.69,-3.76 -1.4,-1.45 0,0 -1.52,-1.73 -1.52,-2.87 0,-1.15 0.48,-2.57 0.48,-2.57 1.22,0 1.47,-0.51 2.37,-1.33 -0.2,-0.56 -0.4,-1.13 -0.62,-1.68 1.66,-0.47 0.94,-6.66 -0.84,-6.34 0.84,-1.97 1.36,-3.39 1.58,-5.51 2.27,-0.47 1.7,-0.85 1.7,-3.12 0.61,-0.64 1.22,-1.28 1.82,-1.91 2.01,-0.44 4.03,-3.3 4.62,-3.18 2.15,0.37 2.15,-0.61 3.89,-2.53 1.25,1.78 2.82,-0.1 4.68,-0.69 -0.02,-2.86 0.09,-11.22 -2.69,-11.22 z m -0.01,13.95 c 0.77,-0.36 1.7,-0.48 2.54,-0.6 -0.14,2.95 -0.18,0.17 -1.76,0.75 -0.22,0.09 -0.49,0.01 -0.78,-0.15 v 0"
       style="fill:#4a044e;fill-opacity:1;fill-rule:evenodd;stroke:none"
       transform="matrix(0.13333333,0,0,-0.13333333,0,869.29333)" />
    <path
       id="path191"
       d="m 4387.97,5504.26 c -1.84,0 -1.99,-0.09 -2.81,-0.17 -0.84,-0.07 -2.61,-0.07 -2.1,-0.45 0.49,-0.38 2.62,-0.77 3.29,-0.77 2.02,0 3.86,-0.66 5.94,-0.45 1.27,0.13 3.35,-0.12 4.73,0.1 1.38,0.21 2.6,0.32 2.26,0.66 -0.35,0.36 -1.53,0.68 -2.1,0.73 -5.82,0.52 -4.74,-0.3 -5.27,6.61 -0.02,1.07 -0.09,2.06 0,2.66 0.86,0.17 1.6,-0.5 1.81,-0.41 1.89,0.89 3.58,0.86 5.48,0.12 0.25,1.69 0.19,0.43 1.44,1.11 0.78,0.43 0.34,1.52 1.37,2.24 -0.36,0.87 -0.46,0.86 0.44,0.47 -0.09,0.98 0.53,2.51 1.51,2.87 -0.48,0.85 -0.51,0.86 -0.14,1.76 0.18,-0.19 0.35,-0.37 0.53,-0.57 0.25,1.44 0.53,3.02 -0.39,4.35 -0.37,0.52 -1.02,0.22 -1.02,0.22 -0.28,1.24 -0.71,1.84 0.49,0.72 0,0 0.76,0.52 0.96,0.96 0.04,2.62 1.82,2.68 1.82,2.9 0,0.25 -0.98,1.1 -0.4,2.01 0,0.32 -0.72,0.9 -1.22,1.19 -1.28,0.81 -1.74,0.57 -1.04,2.35 -0.23,1.39 -2.07,0.79 -0.17,1.79 0,0 0.41,0.68 0.41,0.88 0,0.7 -0.89,0.45 -0.89,1.59 0,0.04 -0.01,0 -0.68,0.67 -0.8,0.78 -2.21,-0.08 -0.85,0.73 0,0 -0.65,0.5 -0.97,0.87 -1.08,1.18 -2.29,-1.12 -1.85,1.23 0,0 -0.48,1.08 -0.48,1.52 0,1.5 -2.9,0.13 -0.44,1.87 -0.64,0.09 -1.26,0.19 -1.9,0.27 0,0 -0.36,0.21 -0.36,0.53 0,0.31 -1.13,1.72 -1.33,1.95 -0.19,0.23 -2.46,-0.12 -2.9,-0.44 -0.76,-0.53 0.4,-2.3 -0.63,-1.08 -0.33,-1.16 -0.24,-1.1 -1.42,-0.88 0.23,-0.95 -0.04,-0.55 -0.81,-0.23 -0.5,-1.15 -0.42,-1.03 -1.6,-0.6 0,0 -1.34,0.72 -1.89,0.72 -0.57,0 -1.95,-1.09 -2.26,-1.39 -0.78,-0.79 0.72,-3.2 -0.72,-1.68 -0.2,-0.61 -0.13,-1.57 -0.61,-0.75 -0.35,-0.82 -0.29,-0.74 -1.12,-0.44 -0.2,-0.86 -0.09,-2.56 0.63,-3.15 -0.34,-0.82 -0.26,-1.12 -0.6,-0.16 -0.04,-0.83 0.22,-3.72 -0.36,-1.4 -0.37,-1.08 -0.4,-2.21 -0.08,-3.3 0,0 -0.61,-0.61 -1.04,-0.84 -0.81,-0.43 -0.45,-2.49 -0.93,-0.96 0,0 -1.01,-1.14 -1.01,-1.9 0,-0.76 0.31,-1.72 0.31,-1.72 0.81,0 0.98,-0.33 1.57,-0.88 -0.12,-0.37 -0.26,-0.74 -0.39,-1.11 1.09,-0.31 0.62,-4.43 -0.57,-4.21 0.55,-1.32 0.91,-2.26 1.04,-3.66 1.52,-0.31 1.14,-0.57 1.14,-2.08 0.41,-0.42 0.82,-0.84 1.21,-1.27 1.34,-0.28 2.67,-2.18 3.06,-2.11 1.44,0.25 1.43,-0.4 2.59,-1.67 0.83,1.18 1.87,-0.07 3.11,-0.47 -0.01,-1.9 0.05,-7.45 -1.79,-7.45 z m 0,9.26 c 0.51,-0.23 1.12,-0.31 1.68,-0.39 -0.1,1.96 -0.12,0.11 -1.17,0.5 -0.15,0.05 -0.33,0 -0.51,-0.11 v 0"
       style="fill:#4a044e;fill-opacity:1;fill-rule:evenodd;stroke:none"
       transform="matrix(0.13333333,0,0,-0.13333333,0,869.29333)" />
    <path
       id="path192"
       d="m 4051.11,5465.5 c -0.9,0 -0.98,-0.04 -1.39,-0.08 -0.41,-0.04 -1.28,-0.03 -1.04,-0.22 0.25,-0.19 1.3,-0.39 1.63,-0.39 1,0 1.91,-0.32 2.93,-0.22 0.64,0.07 1.66,-0.05 2.35,0.06 0.68,0.1 1.29,0.15 1.11,0.32 -0.17,0.17 -0.75,0.33 -1.04,0.36 -2.87,0.26 -2.34,-0.15 -2.6,3.26 -0.01,0.54 -0.04,1.03 0,1.33 0.42,0.08 0.79,-0.26 0.9,-0.2 0.93,0.42 1.76,0.42 2.7,0.05 0.13,0.84 0.1,0.21 0.72,0.55 0.39,0.22 0.17,0.75 0.68,1.11 -0.18,0.43 -0.23,0.43 0.21,0.23 -0.04,0.48 0.27,1.24 0.75,1.42 -0.24,0.42 -0.25,0.43 -0.07,0.87 0.08,-0.09 0.17,-0.19 0.26,-0.28 0.13,0.71 0.26,1.49 -0.19,2.14 -0.18,0.26 -0.5,0.12 -0.5,0.12 -0.14,0.61 -0.36,0.91 0.23,0.36 0,0 0.38,0.25 0.48,0.47 0.02,1.3 0.9,1.32 0.9,1.43 0,0.12 -0.48,0.55 -0.2,1 0,0.15 -0.35,0.45 -0.61,0.58 -0.63,0.41 -0.85,0.29 -0.51,1.17 -0.11,0.68 -1.02,0.39 -0.08,0.88 0,0 0.21,0.34 0.21,0.44 0,0.34 -0.44,0.22 -0.44,0.78 0,0.03 -0.02,0 -0.35,0.34 -0.38,0.38 -1.09,-0.04 -0.42,0.35 0,0 -0.32,0.25 -0.47,0.44 -0.54,0.58 -1.13,-0.56 -0.91,0.6 0,0 -0.24,0.53 -0.24,0.76 0,0.74 -1.44,0.06 -0.22,0.93 -0.32,0.04 -0.62,0.08 -0.94,0.13 0,0 -0.18,0.1 -0.18,0.26 0,0.15 -0.56,0.85 -0.66,0.96 -0.09,0.12 -1.21,-0.06 -1.43,-0.21 -0.38,-0.28 0.2,-1.14 -0.32,-0.54 -0.16,-0.58 -0.11,-0.54 -0.69,-0.43 0.11,-0.48 -0.03,-0.28 -0.4,-0.13 -0.25,-0.56 -0.22,-0.49 -0.8,-0.29 0,0 -0.66,0.35 -0.94,0.35 -0.27,0 -0.96,-0.52 -1.11,-0.68 -0.38,-0.39 0.36,-1.57 -0.36,-0.83 -0.09,-0.3 -0.06,-0.77 -0.29,-0.37 -0.18,-0.4 -0.15,-0.36 -0.56,-0.22 -0.1,-0.42 -0.04,-1.27 0.31,-1.56 -0.16,-0.41 -0.13,-0.54 -0.29,-0.08 -0.02,-0.41 0.11,-1.84 -0.19,-0.68 -0.18,-0.54 -0.19,-1.09 -0.04,-1.63 0,0 -0.29,-0.3 -0.52,-0.42 -0.39,-0.21 -0.21,-1.23 -0.44,-0.48 0,0 -0.51,-0.57 -0.51,-0.94 0,-0.38 0.16,-0.85 0.16,-0.85 0.4,0 0.48,-0.16 0.77,-0.44 -0.05,-0.17 -0.12,-0.36 -0.19,-0.54 0.54,-0.16 0.3,-2.19 -0.29,-2.08 0.28,-0.66 0.46,-1.12 0.52,-1.82 0.76,-0.15 0.56,-0.27 0.56,-1.03 0.21,-0.2 0.41,-0.41 0.61,-0.62 0.65,-0.14 1.31,-1.08 1.51,-1.04 0.7,0.12 0.7,-0.2 1.28,-0.84 0.41,0.59 0.93,-0.02 1.53,-0.22 0,-0.94 0.03,-3.69 -0.88,-3.69 z m 0,4.59 c 0.26,-0.12 0.56,-0.16 0.83,-0.21 -0.05,0.98 -0.05,0.07 -0.57,0.26 -0.08,0.03 -0.17,0 -0.26,-0.05 v 0"
       style="fill:#4a044e;fill-opacity:1;fill-rule:evenodd;stroke:none"
       transform="matrix(0.13333333,0,0,-0.13333333,0,869.29333)" />
  </g>
</svg>
