<?xml version="1.0" encoding="UTF-8" standalone="no"?>
<!-- Created with Inkscape (http://www.inkscape.org/) -->

<svg
   version="1.1"
   id="svg1"
   width="265.18536"
   height="45.177399"
   viewBox="0 0 265.18536 45.177398"
   xmlns="http://www.w3.org/2000/svg"
   xmlns:svg="http://www.w3.org/2000/svg">
  <defs
     id="defs1" />
  <g
     id="g1"
     transform="translate(-533.91865,-366.24927)">
    <path
       id="path193"
       d="m 5258.59,3718.44 h 69.07 v 20.22 h -69.07 z M 4004.39,3434 v 45.73 h 31.63 c 0.84,2.86 0.79,7.41 0.8,9.41 -1.96,0.63 -3.62,2.62 -4.94,0.74 -1.84,2.02 -1.84,3.07 -4.11,2.67 -0.64,-0.12 -2.76,2.9 -4.89,3.36 -0.62,0.67 -1.28,1.35 -1.92,2.02 0,2.41 0.6,2.8 -1.8,3.3 -0.23,2.24 -0.78,3.73 -1.67,5.83 1.89,-0.34 2.65,6.2 0.9,6.69 0.22,0.6 0.44,1.19 0.64,1.78 -0.94,0.86 -1.22,1.4 -2.5,1.4 0,0 -0.51,1.52 -0.51,2.73 0,1.21 1.62,3.04 1.62,3.04 0.75,-2.45 0.19,0.82 1.46,1.52 0.7,0.37 1.66,1.34 1.66,1.34 -0.51,1.73 -0.46,3.51 0.13,5.24 0.93,-3.7 0.53,0.91 0.57,2.22 0.55,-1.52 0.43,-1.06 0.97,0.26 -1.15,0.94 -1.34,3.65 -1.01,5 1.33,-0.47 1.22,-0.59 1.78,0.72 0.76,-1.31 0.67,0.21 0.96,1.19 2.3,-2.4 -0.09,1.42 1.16,2.66 0.49,0.5 2.69,2.22 3.59,2.22 0.89,0 3,-1.14 3,-1.14 1.9,-0.68 1.77,-0.89 2.56,0.95 1.22,-0.52 1.66,-1.14 1.3,0.37 1.87,-0.35 1.71,-0.45 2.24,1.4 1.65,-1.94 -0.19,0.87 1.02,1.72 0.7,0.51 4.3,1.07 4.6,0.7 0.33,-0.38 2.12,-2.59 2.12,-3.11 0,-0.51 0.58,-0.82 0.58,-0.82 1.01,-0.15 2.01,-0.3 3.02,-0.44 -3.91,-2.79 0.69,-0.59 0.69,-2.99 0,-0.7 0.77,-2.4 0.77,-2.4 -0.71,-3.75 1.21,-0.1 2.94,-1.97 0.51,-0.58 1.54,-1.39 1.54,-1.39 -2.16,-1.28 0.09,0.1 1.35,-1.15 1.07,-1.08 1.09,-1.01 1.09,-1.08 0,-1.79 1.42,-1.42 1.42,-2.53 0,-0.31 -0.65,-1.4 -0.65,-1.4 -3.01,-1.59 -0.09,-0.63 0.26,-2.85 -1.1,-2.82 -0.38,-2.45 1.67,-3.74 0.79,-0.45 1.93,-1.38 1.93,-1.87 -0.9,-1.45 0.64,-2.81 0.64,-3.2 0,-0.38 -2.83,-0.45 -2.89,-4.62 -0.31,-0.71 -1.55,-1.53 -1.55,-1.53 -1.89,1.77 -1.22,0.83 -0.77,-1.14 0,0 1.05,0.46 1.61,-0.37 1.47,-2.1 1.04,-4.63 0.64,-6.91 -0.29,0.31 -0.57,0.61 -0.84,0.9 -0.59,-1.43 -0.55,-1.44 0.2,-2.79 -1.55,-0.58 -2.52,-3.02 -2.37,-4.57 -1.43,0.63 -1.29,0.63 -0.7,-0.75 -1.64,-1.14 -0.95,-2.87 -2.19,-3.55 -2,-1.09 -1.88,0.9 -2.29,-1.78 -3.04,1.19 -5.7,1.23 -8.72,-0.19 -0.35,-0.15 -1.51,0.93 -2.88,0.67 -0.14,-0.98 -0.04,-2.54 0,-4.25 0.29,-3.73 0.28,-6.05 0.5,-7.52 h 30.38 v 11.36 h 12.05 l 2.51,54.57 h 12.36 l 1.64,-54.57 h 9.76 v 55.82 c -8.67,-0.45 -14.48,0.27 -27.93,1.31 0.27,0.99 1.57,1.13 2.42,0.91 0.29,0.58 1.01,0.59 1.62,0.47 0.25,0.48 0.86,0.7 1.35,0.37 0.87,0.41 1.72,0.66 2.54,0.07 0.28,1.1 1.36,1.59 2.4,1.25 1.08,1.44 4.71,1.51 6.13,0.4 0.97,0.33 2.16,0.34 2.83,-0.52 0.85,1.52 2.52,3.43 4.32,2.51 1.37,1.05 2.94,1.28 4.32,0.44 v 30.38 h 3.78 v -30.16 c 0.91,-0.03 1.84,-0.53 2.38,-1.19 0.57,0.96 1.37,1.31 2.44,1.03 0.81,0.66 1.75,0.62 2.65,0.25 1.11,1.7 4.09,1.68 5.51,0.37 0.52,0.45 0.86,0.59 1.52,0.32 1.25,2.14 4.91,2.2 6.38,0.32 1.87,2.01 4.17,2.77 6.86,2.77 7.42,0.02 8.35,-11.51 -3.24,-10.21 -8.71,0.98 -11.37,0.65 -16.85,-0.01 -2.88,-0.35 -5.37,-0.61 -7.65,-0.81 v -46.42 h 8.23 v 2.96 h 0.52 v -2.96 h 0.01 l 4.59,12.69 6.02,2.28 1.87,29.93 c 3.81,0 7.63,0 11.44,0 l 1.31,-22.95 h 3.66 l 0.38,0.14 v 6.95 l 1.38,0.55 -1.6,4.93 c -0.47,-0.05 -0.84,-0.16 -0.84,-0.16 v 3.9 h -1.61 v 2.31 h 2.5 c 0,0 0,2.49 0,4.44 0,1.71 1.64,0.69 2.04,0.41 v 13.7 h 0.43 v 6.57 l -0.52,1.14 v 10.88 h -1.24 v 1.89 h -2.49 c -0.39,0 -0.72,0.32 -0.72,0.71 0,0.39 0.33,0.71 0.72,0.71 h 3.99 v 2.3 h -1.86 v 3.42 l -8.18,5.16 c -0.16,0.11 -0.21,0.32 -0.11,0.48 0.11,0.17 0.33,0.22 0.49,0.12 l 8.4,-5.29 7.47,5.17 h 2.93 v -2.31 h -2.31 l -3.28,-3.1 0.79,-2.22 h 2.49 v -2.65 l 1.16,-0.74 1.7,1.39 2.73,6.85 v 0.47 l -2.5,3.15 c -0.26,0.33 0.19,0.77 0.51,0.49 l 1.99,-1.68 v 4.48 h 0.47 v -4.88 l 0.5,-0.42 v 0.99 h 5.86 v -1.95 h -1.42 v -1.87 l 2.75,-0.62 v 4.88 h 3.46 v 10.73 h 0.47 v -10.73 h 1.48 v -2.75 h -1.48 v -6.2 l 1.39,-1.43 h 1.6 v 7.69 h 0.47 v -7.69 h 0.23 v 4.08 h 0.98 v -5.32 h 4.26 v 11 c 0,0.38 0.32,0.7 0.71,0.7 0.39,0 0.7,-0.32 0.7,-0.7 v -49 l 2.67,0.49 v 0.79 c 0,0.19 0.16,0.35 0.36,0.35 0.19,0 0.34,-0.16 0.34,-0.35 v -0.67 l 46.53,8.61 v -11.47 c 1.26,0.57 2.64,0.81 4.16,0.81 1.94,0 3.44,-0.79 4.38,-1.93 h 10.4 v 69.15 c -0.21,-0.04 -0.43,-0.05 -0.64,-0.1 v 0.81 c -6.15,0.01 -12,0.64 -22.46,1.45 0.28,0.99 1.58,1.12 2.43,0.91 0.28,0.57 1.02,0.58 1.61,0.47 0.26,0.47 0.87,0.7 1.36,0.37 0.88,0.41 1.72,0.65 2.53,0.05 0.29,1.12 1.37,1.61 2.41,1.27 0.08,0.09 0.16,0.19 0.26,0.28 l -0.51,-0.06 c -16.81,-2.04 -20.89,-1.19 -39.36,0.24 0.27,0.98 1.57,1.12 2.42,0.9 0.28,0.58 1.02,0.59 1.61,0.47 0.27,0.48 0.87,0.7 1.36,0.37 0.88,0.41 1.72,0.65 2.55,0.07 0.27,1.1 1.36,1.59 2.39,1.25 1.09,1.44 4.72,1.51 6.14,0.4 0.96,0.32 2.15,0.34 2.83,-0.52 0.84,1.52 2.51,3.43 4.31,2.51 1.49,1.14 3.2,1.31 4.63,0.23 0.71,0.46 1.35,0.4 2.04,-0.06 1.15,0.98 2.96,0.34 3.81,-0.69 0.58,0.95 1.38,1.3 2.44,1.02 0.8,0.66 1.75,0.62 2.66,0.25 1.09,1.69 4.08,1.69 5.51,0.37 0.52,0.45 0.86,0.59 1.51,0.32 1.26,2.14 4.91,2.2 6.39,0.32 1.87,2 4.16,2.77 6.85,2.77 4.73,0.02 6.82,-4.66 4.72,-7.73 0.45,0.28 1,0.34 1.63,0.18 0.81,0.64 1.76,0.61 2.67,0.24 1.09,1.7 4.08,1.69 5.5,0.36 0.52,0.46 0.86,0.61 1.52,0.33 1.26,2.14 4.91,2.2 6.39,0.33 1.87,2 4.15,2.77 6.85,2.77 7.41,0.01 8.35,-11.52 -3.25,-10.21 -8.71,0.97 -11.36,0.64 -16.85,-0.02 -1.51,-0.19 -2.92,-0.35 -4.25,-0.48 v -1.54 c -0.22,0.05 -0.44,0.06 -0.65,0.1 v -60.73 h 1.82 v 12.59 h 16.14 v 45.35 c -0.2,-0.05 -0.42,-0.06 -0.63,-0.1 v 3.47 c 4.03,0.73 8.16,0.73 12.18,0 v -3.47 c -0.22,0.04 -0.42,0.05 -0.63,0.1 v -45.35 h 5.13 v -12.59 l 43.69,21.23 v -22.74 h 24.6 l -0.44,45.08 3.72,0.04 0.46,-45.12 h 3.15 v 75.64 h 50.73 v -69.67 l 10.95,-7.65 10.58,68.53 c -1.67,0 -3.36,0 -5.04,0 0,1.71 0,3.43 0,5.15 v 0 c 1.72,0 3.42,0 5.14,0 v 2.97 h 6.9 c 1.27,1.35 3.73,1.49 5.47,1.04 0.73,1.48 2.57,1.48 4.11,1.2 0.66,1.22 2.21,1.79 3.46,0.96 2.23,1.03 4.38,1.66 6.48,0.15 0.72,2.82 3.48,4.08 6.11,3.2 2.78,3.66 12.02,3.86 15.64,1.02 2.49,0.82 5.5,0.86 7.22,-1.31 2.16,3.83 6.42,8.74 11.02,6.38 3.77,2.89 8.12,3.34 11.8,0.6 1.8,1.15 3.45,1.01 5.2,-0.18 2.93,2.51 7.56,0.88 9.71,-1.76 1.47,2.46 3.51,3.34 6.22,2.62 2.07,1.66 4.46,1.57 6.8,0.63 2.79,4.32 10.4,4.3 14.03,0.93 1.32,1.16 2.19,1.53 3.87,0.84 3.21,5.45 12.52,5.6 16.29,0.8 4.76,5.13 10.61,7.09 17.48,7.09 11.72,0.02 17.09,-11.27 12.43,-19.07 v -39.68 c 0.11,-0.67 0.16,-1.15 0.16,-1.37 0,-0.19 0,-0.96 0,-2.12 h 1.41 V 3583 h -1.41 v -3.64 c 0.48,-0.08 0.95,-0.18 1.42,-0.29 v 24.23 h 20.66 v -18.92 h 15.39 v -4.18 c 0.67,-0.55 1.27,-1.17 1.81,-1.85 2.89,3.11 6.03,5.46 9.44,7.18 l -0.06,74.57 40.23,0.13 0.04,-25.24 c 0.7,-0.22 1.34,-0.6 1.83,-1.23 1.67,2.97 4.98,6.76 8.53,4.94 2.91,2.24 6.28,2.59 9.12,0.46 1.4,0.89 2.67,0.78 4.02,-0.14 2.27,1.95 5.84,0.69 7.52,-1.36 1.14,1.9 2.71,2.59 4.81,2.03 1.59,1.29 3.45,1.22 5.24,0.48 2.17,3.35 8.05,3.34 10.85,0.72 1.04,0.9 1.7,1.18 3,0.64 2.48,4.23 9.69,4.35 12.59,0.64 3.69,3.96 8.21,5.47 13.53,5.47 14.61,0.03 16.46,-22.71 -6.41,-20.14 -17.18,1.93 -22.4,1.28 -33.22,-0.03 -18.53,-2.24 -29.21,-2.71 -41.39,-2.2 l 0.11,-76.23 h 48.05 v -35.48 h 13.73 v 12.53 h 12.34 v 23.5 h -1.47 v 2.26 h 1.47 v 28.33 h -1.47 v 2.26 h 1.47 v 38.38 c -0.49,-0.04 -0.98,-0.02 -1.48,-0.06 -0.1,1.33 -0.2,2.67 -0.3,4 7.02,0.54 14.07,0.54 21.08,0 -0.09,-1.33 -0.2,-2.67 -0.31,-4 -0.49,0.04 -0.99,0.02 -1.47,0.06 v -38.38 h 1.47 v -2.26 H 4801 v -28.21 h 6.75 v 1.78 h -1.87 v 11.58 h 16.39 v 10.92 h 0.8 l 11.22,0.94 v 10.6 h 0.22 v 10.45 h 0.16 l -0.01,0.02 12.98,3.55 v 0.07 h 0.28 l 0.56,0.14 0.04,-0.14 h 0.43 v -2.83 l 4.86,1.33 v 0.08 h 0.28 l 0.56,0.15 0.04,-0.15 h 0.43 v -21.53 l 12.4,1.03 v 14.29 l -0.12,0.68 0.12,0.02 v 0.12 h 0.74 l 5.29,0.9 v 6.15 l 4.93,3.17 c 0.74,3.8 2.57,6.87 7.23,6.87 4.33,0 6.61,-1.87 7.84,-4.97 0.91,0.29 2.17,0.59 3.57,0.6 1.38,0 3.02,-0.33 4.34,-1.58 1.31,-1.25 1.98,-3.17 1.97,-5.6 0,-3.93 0,-10.09 0,-15.52 l 12.32,2.1 0.3,0.26 v -0.22 l 1.75,0.31 c 0.09,-0.06 0.19,-0.08 0.29,-0.09 l 0.17,0.16 v -7.41 c 0,0 -1.53,0.63 -1.53,1.9 0,0.91 0,2.6 0,3.5 l -0.68,-0.12 v -5.44 c 0,0 -1.55,0.64 -1.55,1.9 0,0.84 0,2.35 0,3.29 l -2.61,-0.46 -1.68,-3.66 c 0,0 0,0 0,0 h 0.06 l -0.31,-6.43 c 1.75,-0.5 3.54,-1.24 5.24,-2.5 3.85,-2.83 6.78,-8.05 6.74,-16.34 v -9.17 h 2.97 v -33.11 h 12.78 v -34.21 l 29.79,0.19 c 0.5,2.58 0.66,6.17 0.66,7.77 -1.79,0.59 -3.32,2.42 -4.53,0.69 -1.7,1.86 -1.7,2.82 -3.79,2.46 -0.57,-0.12 -2.52,2.65 -4.48,3.08 -0.58,0.62 -1.18,1.23 -1.78,1.86 0,2.21 0.56,2.58 -1.65,3.04 -0.21,2.06 -0.72,3.42 -1.53,5.35 1.73,-0.31 2.43,5.7 0.82,6.16 0.21,0.55 0.41,1.09 0.6,1.63 -0.87,0.8 -1.12,1.29 -2.31,1.29 0,0 -0.47,1.4 -0.47,2.5 0,1.11 1.49,2.81 1.49,2.81 0.69,-2.26 0.18,0.76 1.35,1.39 0.65,0.34 1.53,1.23 1.53,1.23 -0.47,1.59 -0.43,3.23 0.12,4.84 0.85,-3.42 0.47,0.82 0.52,2.03 0.5,-1.4 0.4,-0.98 0.89,0.24 -1.06,0.86 -1.23,3.35 -0.94,4.6 1.23,-0.43 1.14,-0.56 1.65,0.64 0.7,-1.2 0.61,0.21 0.89,1.11 2.11,-2.21 -0.08,1.31 1.06,2.45 0.45,0.45 2.48,2.03 3.3,2.03 0.82,0 2.76,-1.04 2.76,-1.04 1.74,-0.62 1.63,-0.82 2.36,0.86 1.12,-0.46 1.52,-1.04 1.19,0.36 1.72,-0.33 1.57,-0.42 2.06,1.28 1.51,-1.79 -0.18,0.8 0.94,1.58 0.64,0.47 3.95,0.99 4.22,0.64 0.3,-0.34 1.96,-2.39 1.96,-2.86 0,-0.47 0.52,-0.75 0.52,-0.75 0.93,-0.15 1.85,-0.29 2.78,-0.41 -3.6,-2.55 0.64,-0.54 0.64,-2.75 0,-0.64 0.71,-2.2 0.71,-2.2 -0.66,-3.45 1.12,-0.09 2.7,-1.81 0.47,-0.53 1.42,-1.28 1.42,-1.28 -2,-1.18 0.09,0.08 1.24,-1.06 0.98,-0.99 1,-0.92 1,-0.99 0,-1.65 1.3,-1.31 1.3,-2.33 0,-0.29 -0.59,-1.28 -0.59,-1.28 -2.77,-1.46 -0.09,-0.59 0.24,-2.62 -1.03,-2.6 -0.35,-2.26 1.53,-3.45 0.74,-0.4 1.78,-1.27 1.78,-1.72 -0.83,-1.34 0.59,-2.59 0.59,-2.93 0,-0.35 -2.6,-0.43 -2.66,-4.25 -0.29,-0.65 -1.42,-1.41 -1.42,-1.41 -1.74,1.63 -1.12,0.76 -0.71,-1.05 0,0 0.96,0.42 1.49,-0.34 1.34,-1.94 0.95,-4.25 0.57,-6.36 -0.26,0.29 -0.52,0.57 -0.77,0.84 -0.54,-1.32 -0.51,-1.33 0.2,-2.57 -1.44,-0.53 -2.33,-2.78 -2.19,-4.2 -1.32,0.57 -1.18,0.57 -0.65,-0.69 -1.51,-1.06 -0.86,-2.64 -2.01,-3.27 -1.85,-1 -1.74,0.84 -2.11,-1.63 -2.79,1.09 -5.24,1.13 -8.01,-0.18 -0.33,-0.14 -1.39,0.85 -2.65,0.61 -0.14,-0.89 -0.04,-2.33 0,-3.91 0.21,-2.63 0.24,-4.89 0.35,-6.22 14.67,0 28.43,0.08 42.34,0.08 v 17.71 h 8.09 v 15.18 h 9.11 v -15.18 h 10.77 V 3542 h 124.57 l 8.83,57.04 c -1.16,0 -2.32,0 -3.48,0 0,1.19 0,2.35 0,3.54 v 0 c 1.19,0 2.37,0 3.54,0 v 1.83 h 20.92 v 0.84 h 8.74 v -29.19 h 10.78 v 11.15 h 8.74 v -11.15 h 15.42 v 139.29 h 106.18 V 3500.1 h 5.17 v 77.2 h 1.71 v 48.72 h 106.19 V 3500.1 h 2.53 v 51.8 h 6.61 v 10.09 l 21.33,-8.75 v 4.34 h 15.82 v -5.69 l 2.44,-0.01 v 10.5 l -39.7,16.28 c 0,5.58 0,11.14 0,16.71 l 39.7,-16.35 v 6.27 h 15.84 v -12.79 l 24.35,-10.03 v 6.22 h 14.21 v -12.07 l 82.88,-34.13 c 0,5.62 0,11.23 0,16.85 l -86.99,35.5 c 0.47,-2.36 -1.17,-5.07 -1.37,-5.07 -6.56,0.22 -7.5,4.16 -5.27,8.14 -4.63,-0.18 -9.88,8.66 -1.39,12.26 -7.08,-0.48 -12.97,9.58 -2.97,14.86 -12.22,-1.6 -17.87,24.89 5.1,24.99 21.47,0.09 17.54,-24.99 4.59,-25.11 8.18,-3.95 5.31,-10.83 1.47,-13.33 l 86.83,-35.72 c 0,36.48 0,72.94 0,109.41 9.1,0 18.19,0 27.29,0 v -150.81 h 9.08 l 20.02,129.5 c -1.55,0 -3.11,0 -4.65,0 0,1.59 0,3.17 0,4.74 v 0 c 1.58,0 3.16,0 4.74,0 v 2.46 h 33.15 v -2.46 c 1.58,0 3.17,0 4.75,0 0,-1.57 0,-3.15 0,-4.74 -1.55,0 -3.11,0 -4.65,0 l 16.8,-108.42 c 2.62,2.85 14.41,5.53 15.23,5.7 4.16,0.83 4.04,-2.91 6.21,-10.46 4.4,1.26 8.79,2.51 13.19,3.77 0,4.2 0,8.4 0,12.6 0.51,0 6.94,0 6.94,0 0,-3.54 0,-7.08 0,-10.63 23.47,6.7 46.92,13.4 70.4,20.1 -1,1.43 -1.49,3.29 -1.71,4.72 0.05,1.14 7.33,7.71 9.2,8.8 8.86,5.11 13.15,-28.44 7.16,-35.6 -5.1,-6.11 -6.48,1.73 -10.71,12.25 -9.62,-2.77 -19.26,-5.52 -28.9,-8.27 l 17.95,-59.48 h 77.28 c 0.38,3.53 0.35,7.33 0.35,9.35 -2.84,0.92 -5.25,3.82 -7.18,1.08 -2.68,2.94 -2.67,4.46 -5.98,3.88 -0.92,-0.17 -4,4.23 -7.1,4.88 -0.93,0.99 -1.86,1.97 -2.8,2.94 0,3.51 0.88,4.1 -2.62,4.81 -0.33,3.27 -1.13,5.44 -2.42,8.48 2.73,-0.5 3.83,9.02 1.3,9.75 0.32,0.86 0.63,1.72 0.94,2.58 -1.38,1.27 -1.77,2.04 -3.65,2.04 0,0 -0.74,2.21 -0.74,3.96 0,1.76 2.34,4.43 2.34,4.43 1.1,-3.57 0.3,1.2 2.15,2.21 1.02,0.55 2.42,1.95 2.42,1.95 -0.74,2.51 -0.68,5.12 0.18,7.64 1.35,-5.39 0.76,1.31 0.84,3.23 0.78,-2.21 0.61,-1.55 1.41,0.38 -1.68,1.35 -1.96,5.29 -1.49,7.27 1.94,-0.68 1.78,-0.88 2.6,1.03 1.11,-1.9 0.98,0.32 1.41,1.74 3.34,-3.49 -0.14,2.06 1.68,3.88 0.71,0.72 3.92,3.22 5.21,3.22 1.31,0 4.39,-1.66 4.39,-1.66 2.74,-0.98 2.56,-1.29 3.72,1.38 1.77,-0.74 2.41,-1.65 1.88,0.56 2.73,-0.52 2.49,-0.67 3.26,2.02 2.4,-2.82 -0.28,1.27 1.48,2.5 1.02,0.74 6.27,1.56 6.71,1.03 0.45,-0.54 3.07,-3.78 3.07,-4.53 0,-0.74 0.84,-1.19 0.84,-1.19 1.47,-0.22 2.93,-0.45 4.4,-0.65 -5.7,-4.04 1.01,-0.85 1.01,-4.34 0,-1.02 1.12,-3.5 1.12,-3.5 -1.04,-5.45 1.77,-0.14 4.28,-2.87 0.74,-0.83 2.24,-2.02 2.24,-2.02 -3.15,-1.86 0.13,0.14 1.97,-1.68 1.56,-1.56 1.58,-1.46 1.58,-1.56 0,-2.62 2.05,-2.06 2.05,-3.68 0,-0.46 -0.93,-2.04 -0.93,-2.04 -4.39,-2.31 -0.14,-0.92 0.38,-4.14 -1.61,-4.11 -0.56,-3.56 2.42,-5.44 1.16,-0.66 2.82,-2.02 2.82,-2.73 -1.33,-2.12 0.92,-4.1 0.92,-4.66 0,-0.54 -4.11,-0.66 -4.2,-6.72 -0.47,-1.03 -2.25,-2.23 -2.25,-2.23 -2.75,2.58 -1.77,1.22 -1.11,-1.65 0,0 1.52,0.66 2.34,-0.54 2.13,-3.07 1.51,-6.72 0.92,-10.04 -0.43,0.43 -0.82,0.88 -1.23,1.29 -0.86,-2.09 -0.8,-2.09 0.31,-4.06 -2.26,-0.83 -3.69,-4.39 -3.47,-6.64 -2.07,0.9 -1.86,0.91 -1.02,-1.1 -2.38,-1.66 -1.37,-4.17 -3.18,-5.17 -2.91,-1.59 -2.74,1.32 -3.34,-2.58 -4.41,1.72 -8.28,1.78 -12.68,-0.28 -0.5,-0.24 -2.18,1.34 -4.2,0.97 -0.19,-1.42 -0.05,-3.71 0.02,-6.19 0.2,-2.66 0.3,-4.82 0.39,-6.59 h 53.46 V 3434 Z m 29.59,58.03 c 0.81,-0.37 1.79,-0.51 2.67,-0.64 -0.15,3.14 -0.19,0.19 -1.85,0.81 -0.24,0.09 -0.53,0.01 -0.82,-0.17 z m 931.56,-2.05 c 0.74,-0.35 1.65,-0.47 2.46,-0.59 -0.14,2.88 -0.18,0.18 -1.71,0.74 -0.22,0.08 -0.48,0.01 -0.75,-0.15 z m -379.72,131.72 v -8.19 c -0.63,-0.22 -1.09,-0.81 -1.09,-1.51 0,-0.59 0.35,-1.09 0.83,-1.36 -0.79,-3.73 -2.76,-12.94 -4.17,-20.07 -1.14,5.61 -2.35,11.24 -2.92,13.95 0.49,0.28 0.83,0.76 0.83,1.36 0,0.88 -0.71,1.58 -1.59,1.58 l -9.32,0.01 c -0.88,0 -1.58,-0.71 -1.58,-1.59 0,-0.6 0.34,-1.08 0.82,-1.36 -1.31,-6.12 -5.77,-27.14 -5.77,-29.12 0,-0.13 0,-0.58 0,-1.26 h -1.43 v -0.33 c -1.41,0.68 -2.87,1.09 -4.36,1.26 v 21.89 h -27.44 v -20.7 c -0.67,-3.28 -1.27,-6.34 -1.68,-8.58 h -6.3 v -3.39 c -1.52,-0.03 -3.07,-0.33 -4.5,-0.81 -4.94,3.86 -16.63,4.1 -22.33,0.25 l -5.15,33.2 c 5.78,0.17 12.17,0.71 20.78,1.75 8.24,1 12.21,1.5 25.28,0.03 17.41,-1.96 16.01,15.34 4.88,15.32 -4.04,0 -7.48,-1.15 -10.29,-4.15 -2.21,2.81 -7.7,2.72 -9.59,-0.49 -0.98,0.41 -1.49,0.18 -2.27,-0.5 -2.14,1.99 -6.61,2 -8.26,-0.54 -1.37,0.56 -2.78,0.61 -3.99,-0.37 -1.6,0.43 -2.8,-0.1 -3.67,-1.54 -1.26,1.55 -3.99,2.52 -5.71,1.03 -1.03,0.71 -2,0.78 -3.06,0.11 -1.8,1.35 -3.88,1.38 -5.81,0.38 l -0.96,6.21 c 1.69,0 3.36,0 5.05,0 v 4.08 c 21.57,-1.5 35.69,-1.44 65.41,2.16 10.64,1.29 17.09,2.08 29.36,1.29 z m 83.21,-72.34 v -2.15 h -11.26 v 3.2 c 3.44,-0.28 7.17,-0.62 11.26,-1.05 z m -148.38,-4.89 v -3.78 h -3.47 v -3.33 l -1.59,-0.35 h -0.4 v -0.08 l -1.48,-0.33 v 8.26 c 2.35,-0.15 4.67,-0.28 6.94,-0.39 z m -31.96,17.82 c -0.45,-0.03 -0.89,-0.1 -1.31,-0.21 l 1.21,0.95 z m -5.76,-3.72 c -0.26,-0.5 -0.49,-1.06 -0.63,-1.67 -0.28,0.21 -0.56,0.37 -0.84,0.53 z m -11.08,-1.69 c -0.44,0.23 -0.9,0.35 -1.35,0.39 v 9.94 c 4.66,0 9.32,0 13.98,0 z m -12.87,-3.31 c -3.26,0.39 -7.25,-0.46 -8.19,-3.87 3.9,-0.31 7.62,-0.59 11.2,-0.88 l -12.59,-10.3 -5.42,3.8 3.18,20.43 z m 16.46,-5.84 c 2.94,-0.24 5.78,-0.46 8.52,-0.69 v -5.84 z m 144.86,2.55 c 0.47,0.05 0.95,0.1 1.42,0.14 v -0.56 l -1.42,-0.29 z m -510.44,34.9 c 6.23,-0.71 5.74,5.5 1.74,5.48 -1.44,0 -2.67,-0.41 -3.68,-1.49 -0.79,1.02 -2.75,0.99 -3.44,-0.17 -0.35,0.15 -0.52,0.07 -0.81,-0.17 -0.76,0.71 -2.37,0.71 -2.96,-0.2 -0.48,0.2 -0.99,0.22 -1.42,-0.13 -0.58,0.15 -1.01,-0.04 -1.32,-0.56 -0.45,0.57 -1.43,0.91 -2.04,0.38 -0.37,0.24 -0.72,0.27 -1.11,0.04 -0.77,0.58 -1.68,0.48 -2.48,-0.14 -0.97,0.5 -1.87,-0.52 -2.32,-1.33 -0.36,0.45 -1,0.45 -1.52,0.27 -0.77,0.59 -2.72,0.55 -3.29,-0.22 -0.56,0.19 -1.15,-0.08 -1.29,-0.67 -0.45,0.32 -0.9,0.19 -1.37,-0.03 -0.26,0.18 -0.6,0.06 -0.73,-0.2 -0.32,0.05 -0.71,0.05 -0.87,-0.26 -0.46,0.12 -1.15,0.05 -1.3,-0.49 9.93,-0.76 12.12,-1.22 21.15,-0.12 2.95,0.36 4.38,0.53 9.06,0.01 z m 143.94,30.42 c -0.24,-0.31 -0.44,-0.63 -0.61,-0.93 -0.67,0.86 -1.86,0.84 -2.83,0.52 -0.19,0.15 -0.43,0.28 -0.69,0.38 1.26,0.07 2.58,0.09 4.13,0.03 z m 220.51,-10.88 c -1.05,0.49 -2.43,0.71 -3.81,0.66 v 3.64 c 2.6,0 5.19,0 7.8,0 z m -9,-0.95 c -1.03,0.15 -2.03,-0.25 -2.6,-1.09 l -5.89,6.34 c 2.83,0 5.66,0 8.49,0 z m -7.64,-1.88 c -0.5,-0.01 -0.97,-0.32 -1.22,-0.78 -0.91,0.17 -2,0.16 -2.42,-0.71 -0.3,0.08 -0.64,0.13 -0.99,0.14 l 0.85,5.48 z m -4.9,-3.04 c 3.01,-0.24 5.75,-0.46 8.29,-0.67 l 3.55,-3.87 c -5.02,-5.4 -10.04,-10.8 -15.07,-16.2 z m 21.63,-1.66 c 3.09,-0.18 5.97,-0.3 8.88,-0.33 l 3.09,-19.68 c -5.12,5.51 -10.23,11.01 -15.33,16.51 z m 147.32,-48.4 v -5.03 h -1.42 c 0,1.59 0,3.17 0,4.74 z m 0,-6.08 v -1.17 h -1.42 c 0,0.39 0,0.78 0,1.17 z m -104.54,-6.43 v -2.06 l -0.94,0.02 v 1.83 z m 0,-3.12 v -2.12 l -0.94,-0.21 v 2.35 z m 0,-3.21 v -2.5 l -0.94,0.02 v 2.28 z m 0,-3.56 v -0.32 l -0.94,-0.2 v 0.55 z m 0,-1.4 v -0.81 l -0.94,-0.23 v 0.85 z m 0,-6.65 v -4.78 h -0.22 l -3.25,3.07 v 1.71 z m -1.75,-4.78 h -1.72 v 1.63 z m -1.72,9.78 v 0.9 l 1.48,0.32 v -0.86 z m 0,1.98 v 1.16 l 1.48,-0.03 v -0.81 z m 0,2.21 v 1.67 l 1.48,0.32 v -2.02 z m 0,2.75 v 2.96 l 1.48,-0.03 v -2.61 z m 0,4.02 v 1.23 l 1.48,0.31 v -1.57 z m -29.75,-0.13 v -4.92 h -13.46 c 0,5.13 0,10.25 0,15.38 z m -25.32,-4.92 v 2.81 l -4.99,3.49 11.66,9.18 c 0,-5.17 0,-10.33 0,-15.48 z m 446.4,17.42 h -1.61 v 4.51 l 7.98,1.41 -3.51,-5.42 z m -35.63,-8.35 h -0.84 v 0.44 c 0.29,-0.09 0.56,-0.15 0.84,-0.24 z m -1.89,0 h -5.44 v 2.05 c 1.78,-0.36 3.6,-0.81 5.44,-1.33 z m -6.5,0 h -3.52 c -0.47,0.05 -0.95,0.1 -1.44,0.15 v 2.89 c 1.63,-0.21 3.28,-0.47 4.96,-0.79 z m -28.1,14.47 v -0.82 h -13.73 v 1.78 h 12.7 z m -9.38,12.54 h 14.08 v 1.27 l -14.08,0.03 z m 30.85,-13.36 h 1.67 v -9.33 c 3.67,-0.46 7.49,-1.2 11.46,-2.29 v 15.67 l -9.38,0.5 -3.75,-4.42 z m -389.08,15.24 c -5.1,0 -10.19,0 -15.28,0 5.09,-3.9 10.18,-7.81 15.28,-11.71 0,3.9 0,7.81 0,11.71 z m 5.19,5.15 c 4.73,0 9.46,0 14.2,0 -4.74,5.17 -9.47,10.35 -14.2,15.52 0,-5.17 0,-10.35 0,-15.52 z m -20.04,0 c 4.95,0 9.9,0 14.85,0 0,5.14 0,10.27 0,15.41 -4.95,-5.14 -9.9,-10.27 -14.85,-15.41 z m -297.42,-38.3 v -3.22 l -1.46,4.48 c 0.72,-0.02 1.45,-0.27 1.46,-1.26 z m 23.33,56.59 h 0.97 v -5.71 l -0.97,1.01 z m 10.37,-10.29 v -35.66 h -2.13 v 23.69 l -2.13,10.71 v 1.26 z m 731.4,-25.19 -2.12,-0.37 v 0.93 l 2.12,0.38 c 0,-0.09 0,-0.17 0,-0.27 0,-0.2 0,-0.45 0,-0.67 z m 0,-6.19 -2.12,-0.37 v 4.79 l 2.12,0.37 c 0,-1.43 0,-3.05 0,-4.79 z m -2.12,10.88 1.77,0.3 c 0.08,-0.44 0.14,-0.89 0.19,-1.37 l -1.96,-0.34 z m 0,5.67 c 0.46,-0.8 0.87,-1.7 1.2,-2.76 l -1.2,-0.21 z m -1.04,-3.15 -1.02,-0.19 0.19,4.4 0.83,0.15 z m 0,-4.12 -1.23,-0.21 0.07,1.41 1.16,0.21 z m 0,-3.65 -1.39,-0.23 0.04,0.93 1.35,0.24 z m 0,-6.19 -1.7,-0.31 0.24,4.84 1.46,0.26 z m -16.46,19.44 v 0.17 l 3.63,3.62 c 0.48,0.04 1.1,0.09 1.87,0.09 0.23,0 0.5,-0.03 0.75,-0.04 l -1.73,-3.84 z m -1.05,9.78 -2.59,-1.66 c 0,1.93 0,3.92 0,5.91 l 2.59,0.43 z m 2.16,5.06 c 0,-1.32 0,-2.56 0,-3.68 l -1.11,-0.71 v 4.19 z m 0,15.95 c 0,-4.04 0,-9.41 0,-14.21 l -4.75,-0.81 c 0,4.92 0,9.56 0,12.55 0,0.58 -0.02,1.11 -0.02,1.67 z m -5.17,4.82 c 0.72,0.24 1.71,0.53 2.66,0.53 0.82,0 1.36,-0.2 1.72,-0.53 0.34,-0.33 0.79,-1.05 0.79,-2.86 0,-0.05 0,-0.14 0,-0.21 l -4.81,-0.81 c -0.05,1.39 -0.18,2.67 -0.36,3.88 z m 8.97,-20.13 7.2,1.22 -4.17,-9.16 c -0.89,0.1 -1.71,0.13 -2.44,0.14 -0.22,0 -0.39,-0.01 -0.59,-0.02 0,1.74 0,4.58 0,7.82 z m 8.96,-31.78 -0.16,-3.62 -2.47,-0.44 z m -3.04,9.83 0.2,4.38 3.55,0.62 -0.21,-4.39 z m 3.42,-2.12 -0.08,-1.41 -3.54,-0.63 0.07,1.42 z m -0.21,-4.14 -0.04,-0.95 -0.04,-0.01 -0.03,0.02 -0.02,-0.02 -9,-1.59 v 0.94 z m -4.41,3.34 -0.06,-1.42 -4.66,-0.82 v 1.41 z m 0.33,7.12 -0.2,-4.39 -4.85,-0.86 v 4.37 z m -0.94,9.62 1.56,3.44 -0.17,-3.67 c -0.48,0.11 -0.93,0.16 -1.39,0.23 z m 1.2,-4.12 -0.19,-4.09 -5.12,-0.89 v 0.08 l 2.48,5.45 c 0.91,-0.09 1.86,-0.27 2.83,-0.55 z m 4.19,-1.95 c 0.1,-0.08 0.18,-0.16 0.27,-0.25 l -0.05,-1.08 -3.53,-0.62 0.17,3.55 c 1.08,-0.39 2.15,-0.88 3.14,-1.6 z m -34.97,11.69 -2.69,-0.22 v 12.9 c 0.26,-0.14 0.48,-0.33 0.78,-0.33 h 1.91 c 0,-3.25 0,-7.81 0,-12.35 z m 0,-5.95 h -2.69 v 4.46 l 2.69,0.23 c 0,-1.61 0,-3.19 0,-4.69 z m 0,-7.02 h -2.69 v 4.36 l 2.69,0.22 c 0,-1.76 0,-3.3 0,-4.58 z m -2.69,5.75 h 1.43 l -1.43,-0.11 z m 0,25.82 1.59,-2.46 h -0.81 c -0.3,0 -0.52,-0.19 -0.78,-0.32 z m -1.72,-18.96 -4.98,-0.42 v 13.32 l 4.98,0.85 z m 0,-5.59 -4.98,0.01 v 3.89 l 4.98,0.42 z m 0,-1.53 -4.98,-0.42 v 0.7 h 4.98 z m 0,-5.49 h -2.23 v -0.07 l -2.75,0.01 v 3.86 l 4.98,0.42 z m -2.23,-2.37 h -2.75 v 1.04 h 2.75 z m 0,-8.61 -0.85,0.05 v 2.71 h 0.85 z m 0,-17.73 c -0.25,0.12 -0.47,0.28 -0.71,0.36 -0.04,0.02 -0.09,0.03 -0.14,0.04 v 16.32 l 0.85,-0.05 z m -1.91,17.82 -0.84,0.05 v 2.62 h 0.84 z m 0,-17.13 c -0.28,0.08 -0.55,0.14 -0.84,0.23 v 15.9 l 0.84,-0.04 z m -1.89,35.06 h -5.88 l 0.2,3.32 5.68,0.47 z m 0,-2.06 -6.02,-0.5 0.07,1.3 5.95,-0.01 z m 0,-5.04 -6.29,0.01 0.2,3.25 6.09,0.51 z m 0,-2.31 h -6.41 l 0.05,1.05 6.36,-0.01 z m 0,-8.41 -8.52,0.44 1.81,2.12 h 6.71 z m -13.13,2.56 h 5.04 l -1.75,-2.05 -0.27,0.02 -0.02,-0.36 -3,-3.53 z m 0,6.92 2.97,-0.01 0.03,-1.06 h -3 z m 0,3.92 2.88,0.24 0.07,-2.89 h -2.95 z m 0,3.17 h 2.8 l 0.04,-1.67 -2.84,-0.23 z m 0,3.86 h 0.73 v 0.15 l 1.96,0.16 0.08,-2.91 -2.77,0.01 z m 3.89,-5.44 -0.04,1.58 h 2.28 l -0.08,-1.39 z m 1.83,-5.52 -0.06,-1.06 h -1.6 l -0.03,1.06 z m -1.72,1.27 -0.08,2.99 2.05,0.17 -0.18,-3.16 z m 2.38,10.32 -0.17,-3.23 h -2.39 l -0.07,3 z m -6.96,11.33 -4.86,-0.54 v 8.78 l 4.86,1.31 z m -5.5,-0.62 v 0.06 h 0.5 z m -0.67,9.84 -5.49,-1.49 v 1.75 l 5.49,1.5 z m -0.63,-9.99 -4.86,-0.56 v 7.7 l 4.86,1.34 z m -23.47,-20.8 14.08,1.17 v -1.21 l -14.08,0.03 z m 0,5.82 14.08,-0.03 v -3.35 l -14.08,-1.18 z m 0,1.3 14.08,1.17 v -1.24 l -14.08,0.03 z m 12.27,22.21 5.03,1.36 v -1.74 l -0.01,-0.01 0.01,-0.02 h -0.16 v -8.83 l -1.66,-0.2 h -3.21 z m 969.07,-118.19 h 2.35 c 6.4,18.73 17.05,50.93 18.4,55.69 -10.75,-3.06 -21.5,-6.14 -32.24,-9.21 0,-4.82 0,-9.64 0,-14.46 4.46,0 8.49,0.75 10.71,-3.42 1.04,-1.94 0.9,-18.49 0.78,-28.6 z m 8.67,0 h 37.07 l -14.08,48.17 c -2.58,0 -5.15,0 -7.73,0 z m 116.74,13.56 c 1.17,-0.55 2.61,-0.74 3.89,-0.93 -0.22,4.55 -0.29,0.27 -2.7,1.16 -0.35,0.13 -0.76,0.02 -1.19,-0.23 z m -744.27,74.16 c -3.5,0 -7,0 -10.51,0 3.51,-2.69 7.01,-5.37 10.51,-8.06 0,2.69 0,5.37 0,8.06 z m 4.46,0 h -0.89 c 0,-2.62 0,-5.24 0,-7.87 l 0.89,0.73 z m -0.89,3.54 h 0.89 v 5.76 h 3.6 l -4.49,4.91 c 0,-3.56 0,-7.11 0,-10.67 z m -13.78,0 c 3.41,0 6.81,0 10.21,0 0,3.53 0,7.06 0,10.59 -3.4,-3.53 -6.8,-7.06 -10.21,-10.59 z m 10.21,-33.19 h -8.21 v -2.85 l 8.21,-5.08 c 0,2.64 0,5.29 0,7.93 z m 4.46,0 h -0.89 c 0,-2.77 0,-5.55 0,-8.33 l 0.89,0.56 z m -0.89,3.54 h 0.89 v 9.9 l -0.89,0.68 c 0,-3.52 0,-7.05 0,-10.58 z m -11.78,0 h 8.21 c 0,3.55 0,7.1 0,10.65 l -11.8,-9.3 h 3.59 z m 8.21,-32.3 h -4.28 v -6.74 l 4.28,-2.22 c 0,2.99 0,5.97 0,8.96 z m 4.46,0 h -0.89 c 0,-3.15 0,-6.3 0,-9.44 l 0.89,0.48 z m -0.89,3.54 h 0.89 v 9.99 l -0.89,0.57 c 0,-3.51 0,-7.04 0,-10.56 z m -7.85,0 h 4.28 c 0,3.38 0,6.75 0,10.12 l -8.21,-4.95 v -4.65 h 3.93 z m 0,-14.62 2.48,-1.29 -2.48,-1.35 z m -3.93,32.82 6.83,-4.43 -6.83,-4.29 z m -4.26,33.61 c 3.74,-2.91 7.49,-5.83 11.24,-8.74 -4.82,-3.94 -9.63,-7.87 -14.45,-11.81 1.07,6.85 2.14,13.71 3.21,20.55 z m 4.63,29.74 c 2.45,-2.69 4.91,-5.37 7.37,-8.06 -3.46,-3.71 -6.92,-7.42 -10.36,-11.13 0.99,6.39 1.99,12.79 2.99,19.19 z m 7.84,2.06 c 0,-2.1 0,-4.2 0,-6.29 -1.94,2.09 -3.89,4.19 -5.84,6.29 1.95,0 3.9,0 5.84,0 z m 8.94,0 c -1.8,-1.93 -3.58,-3.84 -5.37,-5.77 0,1.93 0,3.84 0,5.77 1.79,0 3.57,0 5.37,0 z m 1.39,-17.41 -6.39,6.88 6.39,6.61 z m -14.61,-87.07 4.28,2.28 c 0,-4.41 0,-8.84 0,-13.26 h -4.28 z m 7.85,-10.98 c 0,4.39 0,8.77 0,13.15 l 0.89,-0.46 v -12.69 z m 526.37,120.68 c -4.69,0 -9.39,0 -14.08,0 4.69,-3.6 9.39,-7.2 14.08,-10.79 0,3.59 0,7.19 0,10.79 z m 17.65,0 c -4.28,0 -8.58,0 -12.88,0 0,-3.51 0,-7.03 0,-10.53 4.3,3.5 8.6,7.02 12.88,10.53 z m -12.88,4.75 c 4.37,0 8.72,0 13.09,0 -4.37,4.76 -8.72,9.52 -13.09,14.29 0,-4.77 0,-9.53 0,-14.29 z m -18.46,0 c 4.57,0 9.12,0 13.69,0 0,4.72 0,9.45 0,14.18 -4.57,-4.73 -9.12,-9.46 -13.69,-14.18 z m 13.69,-44.46 c -5.73,0 -11.47,0 -17.19,0 5.72,-3.55 11.46,-7.09 17.19,-10.64 0,3.55 0,7.09 0,10.64 z m 22.54,0 c -5.93,0 -11.85,0 -17.77,0 0,-3.72 0,-7.45 0,-11.17 5.92,3.72 11.84,7.45 17.77,11.17 z m -17.77,4.73 c 6.09,0 12.16,0 18.25,0 -6.09,4.73 -12.16,9.46 -18.25,14.18 0,-4.72 0,-9.45 0,-14.18 z m -22.9,0 c 6.05,0 12.09,0 18.13,0 0,4.76 0,9.51 0,14.27 -6.04,-4.76 -12.08,-9.51 -18.13,-14.27 z m 18.13,-43.27 c -7.73,0 -15.45,0 -23.19,0 l 15.46,-8.01 h 7.73 z m 28.06,0 c -7.76,0 -15.52,0 -23.29,0 v -8.01 h 8.57 z m -23.29,4.74 c 7.28,0 14.56,0 21.83,0 -7.27,4.72 -14.55,9.43 -21.83,14.16 0,-4.73 0,-9.44 0,-14.16 z m -27.27,0 c 7.5,0 15,0 22.5,0 0,4.53 0,9.04 0,13.57 -7.5,-4.53 -15,-9.04 -22.5,-13.57 z m -6.23,-7.62 9.86,-5.13 h -10.65 z m 6.16,39.5 c 6.9,-4.47 13.81,-8.95 20.71,-13.43 -8.42,-5.3 -16.85,-10.6 -25.28,-15.9 1.52,9.78 3.05,19.56 4.57,29.33 z m 5.85,37.53 c 5.02,-3.91 10.04,-7.8 15.06,-11.7 -6.45,-5.27 -12.91,-10.54 -19.36,-15.82 1.44,9.17 2.87,18.34 4.3,27.52 z m 6.2,39.84 c 3.29,-3.59 6.58,-7.19 9.87,-10.78 -4.63,-4.98 -9.25,-9.95 -13.87,-14.93 1.33,8.57 2.66,17.14 4,25.71 z m 10.52,2.77 c 0,-2.81 0,-5.62 0,-8.44 -2.61,2.82 -5.22,5.63 -7.83,8.44 2.61,0 5.22,0 7.83,0 z m 11.96,0 c -2.39,-2.58 -4.79,-5.16 -7.19,-7.73 0,2.57 0,5.15 0,7.73 2.4,0 4.8,0 7.19,0 z m 7.43,-29.34 c -4.71,5.08 -9.41,10.15 -14.12,15.22 3.36,3.5 6.73,6.98 10.1,10.48 1.34,-8.57 2.67,-17.13 4.02,-25.7 z m 6.19,-39.57 c -6.4,4.91 -12.79,9.81 -19.2,14.71 5.02,3.95 10.04,7.89 15.04,11.83 1.39,-8.84 2.78,-17.69 4.16,-26.54 z m 6.21,-39.61 c -7.98,4.93 -15.95,9.86 -23.94,14.81 6.58,3.96 13.17,7.94 19.75,11.9 1.4,-8.9 2.79,-17.8 4.19,-26.71 z m -1.82,-35.77 -15.85,8.21 v 6.71 l 19.31,10.31 1.47,-9.34 c -2.62,-0.48 -4.69,-1.73 -4.93,-4.85 z m 9.68,16.17 -2.9,18.6 c 1.88,-6.14 3.75,-12.29 5.63,-18.65 -0.86,0 -1.78,0.03 -2.73,0.05 z m -25.53,-13.81 9.84,-5.13 h -4.89 v -7.63 h -4.95 z m 56.37,13.76 c -2.5,0 -5,0 -7.5,0 -1.03,3.19 -1.84,6.37 -2.76,9.55 l 10.26,2.93 c 0,-4.16 0,-8.31 0,-12.48 z m -132.56,174.21 c -7.78,-0.29 -16.6,14.55 -2.35,20.6 -11.88,-0.81 -21.78,16.09 -4.98,24.97 -20.55,-2.68 -30.04,41.84 8.56,41.99 36.07,0.16 29.48,-41.98 7.71,-42.18 17.01,-8.22 5.57,-23.99 -2.17,-23.99 5.21,-1.14 11.74,-12.17 1.72,-19.95 -1.72,-1.34 -4.28,-1.01 -2.81,-1.41 10.02,-2.73 3.67,-13.72 3.16,-13.7 -11.03,0.36 -12.61,6.97 -8.84,13.67 z m -582.8,-48.67 c -7.78,-0.29 -16.61,14.55 -2.35,20.6 -11.88,-0.81 -21.78,16.09 -4.97,24.97 -20.56,-2.69 -30.05,41.83 8.55,41.99 36.07,0.16 29.49,-41.98 7.72,-42.18 17.02,-8.22 5.57,-23.99 -2.18,-23.99 5.21,-1.14 11.75,-12.17 1.74,-19.95 -1.73,-1.35 -4.3,-1.02 -2.82,-1.41 10.02,-2.74 3.67,-13.72 3.16,-13.7 -11.02,0.36 -12.62,6.97 -8.85,13.67 z m 78.58,-1.59 c 4.69,-0.17 10.01,8.79 1.4,12.43 7.17,-0.49 13.15,9.71 3.01,15.06 12.4,-1.61 18.13,25.23 -5.15,25.34 -21.76,0.09 -17.8,-25.33 -4.66,-25.45 -10.27,-4.96 -3.36,-14.47 1.32,-14.47 -3.16,-0.69 -7.09,-7.35 -1.06,-12.04 1.05,-0.81 2.6,-0.61 1.7,-0.85 -6.03,-1.64 -2.21,-8.27 -1.9,-8.26 6.65,0.21 7.6,4.21 5.34,8.24 z m 405.94,-56.78 c -0.68,-0.18 -1.14,-0.14 -0.57,-0.3 0.21,-0.06 0.39,-0.12 0.57,-0.18 z m -331.35,18.89 c 4.63,-0.18 9.88,8.66 1.4,12.26 7.07,-0.49 12.95,9.58 2.95,14.86 12.23,-1.6 17.89,24.89 -5.09,24.99 -21.47,0.09 -17.54,-24.99 -4.58,-25.1 -10.14,-4.89 -3.31,-14.27 1.29,-14.29 -3.11,-0.67 -7,-7.23 -1.03,-11.86 1.01,-0.8 2.55,-0.6 1.68,-0.84 -5.98,-1.63 -2.19,-8.16 -1.9,-8.16 6.57,0.22 7.52,4.16 5.28,8.14 z m 163.49,96.93 c -6.6,-0.25 -14.06,12.32 -2,17.43 -10.05,-0.69 -18.43,13.62 -4.21,21.12 -17.38,-2.27 -25.41,35.39 7.24,35.53 30.52,0.13 24.95,-35.52 6.53,-35.69 14.4,-6.95 4.71,-20.29 -1.84,-20.29 4.41,-0.97 9.94,-10.29 1.46,-16.88 -1.45,-1.14 -3.63,-0.86 -2.39,-1.19 8.48,-2.31 3.12,-11.61 2.69,-11.59 -9.33,0.3 -10.68,5.9 -7.48,11.56 z m 145.91,-142.19 h -9.81 v 4.02 z m -442.81,-5.51 c -8.49,0 -16.99,0 -25.49,0 1.42,24.87 2.83,49.74 4.26,74.6 5.52,0 11.02,0 16.53,0 1.58,-24.86 3.14,-49.73 4.7,-74.6 z m 68.03,0 c -8.49,0 -16.99,0 -25.46,0 1.42,24.87 2.86,49.74 4.29,74.6 5.49,0 10.98,0 16.48,0 1.56,-24.86 3.11,-49.73 4.69,-74.6 z m 212.78,82.76 h 69.04 v 20.23 h -40.52 v 32.2 h -12.37 v -32.2 h -16.15 v -20.23 0"
       style="fill:#b5b024;fill-opacity:1;fill-rule:evenodd;stroke:none"
       transform="matrix(0.13333333,0,0,-0.13333333,0,869.29333)" />
  </g>
</svg>
