<?xml version="1.0" encoding="UTF-8" standalone="no"?>
<!-- Created with Inkscape (http://www.inkscape.org/) -->

<svg
   version="1.1"
   id="svg1"
   width="265.34265"
   height="74.608002"
   viewBox="0 0 265.34265 74.608001"
   xmlns="http://www.w3.org/2000/svg"
   xmlns:svg="http://www.w3.org/2000/svg">
  <defs
     id="defs1" />
  <g
     id="g1"
     transform="translate(-533.83997,-12.221352)">
    <path
       id="path196"
       d="m 4003.8,5868.48 v 122.24 c 10.79,0 21.59,0 32.38,0 0,-6.72 0,-13.46 0,-20.2 8.75,0 17.5,0 26.24,0 0,-5.39 0,-10.79 0,-16.19 7.38,0 14.74,0 22.1,0 0.05,10.76 0.09,21.51 0.13,32.26 3.38,0 6.77,0 10.15,0 0,1.34 0,2.68 0,4.02 2.69,0 5.37,0 8.04,0 0,-1.34 0,-2.68 0,-4.02 4.06,0 8.12,0 12.18,0 0,-6.73 0,-13.46 0,-20.2 12.92,0 25.85,0 38.77,0 0,-2.68 0,-5.35 0,-8.04 1.89,0.04 3.78,0.08 5.67,0.12 0,-3.43 0,-6.85 0,-10.29 4.46,0 8.9,0 13.35,0 0,0.95 0,1.9 0,2.84 2.57,0 5.13,0 7.69,0 0,-0.94 0,-1.89 0,-2.84 6.54,0.04 13.07,0.09 19.62,0.12 0,-2.67 0,-5.35 0,-8.03 5.32,0 10.63,0 15.95,0 0,0.63 0,1.27 0,1.89 2.96,0 5.91,0 8.87,0 0,-0.66 0,-1.34 0,-2 5.12,0 10.25,0 15.36,0 v 159.74 h 16.44 v 6.15 l 38.29,-6.62 c 0,-24.73 0,-49.47 0,-74.2 5.4,0 10.79,0 16.19,0 0.64,0.86 1.26,1.73 1.89,2.6 2.05,0 4.1,0 6.15,0 0.71,-0.87 1.42,-1.74 2.13,-2.6 6.02,0 12.05,0 18.08,0 0,-14.18 0,-28.36 0,-42.53 4.77,0 9.53,0 14.3,0 0,24.25 0,48.52 0,72.78 2.64,0 5.28,0 7.92,0 0,1.97 0,3.93 0,5.91 16.08,0 32.15,0 48.22,0 1.46,-1.46 2.92,-2.91 4.38,-4.38 -0.08,-37.57 -0.16,-75.14 -0.24,-112.72 3.51,0 7.01,0 10.52,0 0,-2.72 0,-5.43 0,-8.16 3.39,0 6.78,0 10.16,0 0,9.42 0,18.83 0,28.25 4.66,0 9.3,0 13.95,0 0,1.41 0,2.83 0,4.25 4.73,0 9.46,0 14.18,0 0,-1.27 0,-2.52 0,-3.79 2.96,0 5.91,0 8.87,0 0.47,1.66 0.95,3.32 1.41,4.97 1.07,0 2.13,0 3.2,0 0.63,-1.54 1.26,-3.07 1.89,-4.6 1.61,0 3.23,0 4.84,0 0,15.9 0,31.82 0,47.73 14.7,-0.08 29.39,-0.15 44.09,-0.23 2.09,53.44 4.18,106.89 6.27,160.34 -6.54,0.58 -22.45,6.71 -9.22,13.83 -1.35,0.94 -2.69,1.89 -4.02,2.83 0,8.37 -0.29,8.51 6.15,13.83 -0.05,4.01 -0.09,8.02 -0.13,12.05 3,0 6,0 8.99,0 0,4.49 0,8.98 0,13.47 0.78,0.59 1.58,1.17 2.36,1.77 0,16.47 0,32.93 0,49.4 -0.78,1.33 -1.58,2.67 -2.36,4.01 1.53,1.61 3.07,3.23 4.6,4.84 0,12.05 0,24.11 0,36.17 0.48,0.9 0.95,1.8 1.42,2.71 0,11.7 0,23.4 0,35.1 0.28,0.82 0.56,1.65 0.83,2.48 0,3.39 0,6.77 0,10.15 0.48,0.72 0.95,1.42 1.42,2.13 0,6.11 0,12.21 0,18.32 0.28,0 0.55,0 0.83,0 0,-6.11 0,-12.21 0,-18.32 0.47,-0.71 0.95,-1.41 1.41,-2.13 0,-3.35 0,-6.69 0,-10.03 0.29,-0.87 0.56,-1.74 0.83,-2.6 0.04,-11.7 0.08,-23.4 0.12,-35.1 0.52,-0.83 1.03,-1.65 1.54,-2.48 0,-12.13 0,-24.26 0,-36.4 1.38,-1.61 2.76,-3.23 4.14,-4.84 -0.8,-1.34 -1.58,-2.68 -2.37,-4.01 0,-16.43 0,-32.85 0,-49.28 0.79,-0.56 1.57,-1.11 2.37,-1.65 0,-4.61 0,-9.22 0,-13.83 3.15,0 6.3,0 9.45,0 0,-3.99 0,-7.96 0,-11.93 6.13,-5.22 5.55,-5.72 5.55,-13.83 -1.29,-0.94 -2.59,-1.89 -3.89,-2.83 14.61,-5.49 -2.26,-13.55 -8.75,-13.95 3.54,-90.79 7.09,-181.57 10.64,-272.36 2.32,0 4.65,0 6.97,0 -0.08,5.16 -0.16,10.32 -0.24,15.48 8.79,-0.04 17.58,-0.08 26.36,-0.12 0,-6.03 0,-12.05 0,-18.08 1.38,-0.04 2.76,-0.08 4.14,-0.12 0,8.79 0,17.57 0,26.35 1.34,0 2.68,0 4.01,0 0.04,-8.54 0.09,-17.09 0.13,-25.63 1.22,0 2.44,0 3.66,0 0,4.6 0,9.21 0,13.82 0.55,0 1.11,0 1.65,0 0.08,-4.33 0.16,-8.66 0.24,-13 5.28,0.08 10.55,0.16 15.84,0.23 0,5.13 0,10.25 0,15.38 3.35,0 6.7,0 10.04,0 0,1.64 0,3.3 0,4.94 3.71,0 7.41,0 11.12,0 0,-1.3 0,-2.59 0,-3.89 2.52,0 5.04,0 7.56,0 0,1.3 0,2.59 0,3.89 24.59,0 49.16,0 73.75,0 0,1.11 0,2.22 0,3.32 1.7,0 3.39,0 5.08,0 0,-1.1 0,-2.21 0,-3.32 2.1,0 4.17,0 6.26,0 0,-2.07 0,-4.16 0,-6.26 1.23,0 2.45,0 3.68,0 0,0.87 0,1.74 0,2.61 1.37,0 2.75,0 4.13,0 0,-0.87 0,-1.74 0,-2.61 4.22,0 8.42,0 12.64,0 0,1.42 0,2.85 0,4.26 2.69,0 5.37,0 8.04,0 0,-7.36 0,-14.73 0,-22.1 0.67,0 1.34,0 2.01,0 0,2.05 0,4.1 0,6.15 2.02,0 4.02,0 6.03,0 0,-2.05 0,-4.1 0,-6.15 4.37,0.04 8.75,0.08 13.12,0.12 l -0.12,10.75 14.07,4.03 c 0.43,7.83 0.87,15.67 1.3,23.5 1.37,0 2.75,0 4.14,0 0.43,-7.83 0.86,-15.67 1.3,-23.5 1.77,0 3.54,0 5.31,0 0.44,7.83 0.87,15.67 1.3,23.5 1.39,0 2.76,0 4.14,0 0.48,-6.76 0.95,-13.54 1.41,-20.31 1.7,0 3.39,0 5.09,0 0,-0.71 0,-1.43 0,-2.13 2.16,0 4.33,0 6.5,0 0,0.62 0,1.26 0,1.88 2.09,0 4.18,0 6.27,0 0,-1.97 0,-3.93 0,-5.9 1.14,-0.04 2.28,-0.08 3.42,-0.12 0,-1.34 0,-2.68 0,-4.02 -0.35,-0.11 -0.71,-0.23 -1.06,-0.36 0,-2.79 0,-5.58 0,-8.39 5,-0.02 10.01,-0.07 15.01,-0.11 -0.04,7.17 -0.08,14.34 -0.12,21.51 -1.1,0 -2.21,0 -3.31,0 0,1.1 0,2.2 0,3.3 2.4,0 4.81,0 7.21,0 0,3.51 0,7.01 0,10.52 17.26,0 34.51,0 51.78,0 0,-3.39 0,-6.77 0,-10.17 4.96,0.06 9.92,0.08 14.88,0.13 0.04,3.74 0.09,7.48 0.13,11.22 1.65,0 3.31,0 4.96,0 0,6.31 0,12.61 0,18.91 2.4,0 4.8,0 7.21,0 0.55,0.75 1.1,1.49 1.65,2.24 2.45,0 4.89,0 7.33,0 0.54,-0.75 1.1,-1.49 1.65,-2.24 2.49,0 4.97,0 7.45,0 0,-6.06 0,-12.13 0,-18.19 6.77,0 13.56,0 20.33,0 0,2.79 0,5.59 0,8.38 1.3,0 2.6,0 3.9,0 0,-2.71 0,-5.43 0,-8.15 h 7.95 v 87.31 h 26.11 v 6.33 h 2.89 v -4.83 h 12.25 v 4.83 h 3 v -9.34 h 4.63 v -9.13 l 15.14,0.13 v -20 h 1.61 v 13.64 h 6.12 v -22.87 h 20.09 v 7.73 h 9.02 v -10.63 h 2.89 v 10.63 h 9.25 v 24.37 h 4.61 l 7.18,27.39 h 7.41 l 8.51,-27.39 h 4.29 v -41.23 h 4.62 v -28.43 l 2.9,1.05 0.11,9.13 3.11,-7.52 h 4.62 v 54.66 h 19.87 l 7.52,-9.02 v 9.02 h 1.39 v 1.72 h 6.23 v 15.24 h 4.63 v 7.63 h 1.6 v 15.14 h 10.53 v 19.86 h 6.21 l 0.02,3.12 h 3.11 v 19.86 h 3.01 v 4.62 h 4.51 v 19.81 l 16.96,-0.06 v 7.42 h 21.17 v 6.13 h 12.13 v -6.13 h 3.23 v 3.13 h 5.9 l 0.22,-3.13 h 4.62 v 6.13 h 9.12 l 0.15,-6.13 h 15 v -9.03 h 9.13 v -51.76 h 4.51 v 19.87 h 26 v -19.87 h 3.1 v -54.67 l 3.79,1.1 0.72,44.45 1.4,-44.26 4.83,-1.59 3.15,-25.32 12,-6.68 v 10.74 h 3.12 v 6.01 h 33.51 v -1.6 h 3.11 v 7.72 h 6.01 v -9.23 h 3.13 v 10.74 h 6 v 4.62 h 12.25 v 13.74 l 4.73,1.5 v 3.01 l 10.61,-0.05 0.23,9.04 h 5.38 v 23.51 h 9.66 v 3.22 h 5.47 v 29.64 h 11.5 v 12.88 l 24.38,0.02 v -13.54 h 16.64 v -30.5 h 9.14 v -66.32 h 2.89 l 6.12,16.85 4.74,-7.62 -1.51,-0.11 v -9.12 h 4.51 v -21.38 h 6.23 v -15.03 h 9.02 v 6.12 h 10.74 v 15.14 h 25.89 v -4.61 h 3.11 v -1.62 h 1.51 v 6.23 h 4.62 v -10.73 h 4.61 v 4.5 h 6.02 v 15.25 h 19.98 v -4.51 h 4.39 v 9.13 h 10.75 v 15.36 h 9.02 v -4.62 h 6.02 v 15.36 h 9.33 v -10.74 h 15.16 v 6.12 h 10.84 v -6.12 h 4.51 v -9.12 h 4.63 v -6.24 h 30.5 v -19.87 h 10.62 v 6.23 h 30.62 v 6.02 l 4.51,3 v 19.98 h 10.62 l 3.11,-10.91 1.62,3.28 7.69,1.67 -0.17,55.25 7.64,-0.24 0.27,87.75 11.96,0.04 v 72.87 l 3.12,3.01 v 15.25 l 10.62,0.58 26.02,50.43 1.76,155.51 2.38,-155.24 24.07,-52.9 h 11.51 v -15.13 l 2.9,-1.51 v -72.69 l 9.14,-0.18 v -86.15 h 10.84 v -77.94 l 18.14,1.37 1.62,7.62 10.74,1.4 1.51,-6.12 h 13.75 V 5868.48 H 4003.8 v 0"
       style="fill:#1b1919;fill-opacity:1;fill-rule:evenodd;stroke:none"
       transform="matrix(0.13333333,0,0,-0.13333333,0,869.29333)" />
  </g>
</svg>
