<?xml version="1.0" encoding="UTF-8" standalone="no"?>
<!-- Created with Inkscape (http://www.inkscape.org/) -->

<svg
   version="1.1"
   id="svg1"
   width="254.67731"
   height="40.968994"
   viewBox="0 0 254.67731 40.968994"
   xmlns="http://www.w3.org/2000/svg"
   xmlns:svg="http://www.w3.org/2000/svg">
  <defs
     id="defs1" />
  <g
     id="g1"
     transform="translate(-539.17199,-532.75635)">
    <path
       id="path166"
       d="m 5179.04,2290.3 c 23.36,15.53 47.69,-2.14 65.1,-6.19 11.6,11.23 58.61,9.29 70.89,1.06 43.56,13.49 62.9,-4.32 100.22,-8.94 12.62,16.7 71.06,-11.25 132.75,-20.45 17.25,19.26 61.39,1.52 99.83,-4.73 10.45,13.95 67.81,-25.98 82.4,-9.15 39.16,-10.33 47.11,10.83 82.56,1.51 -1.42,-14.21 47.03,-22.36 49.1,-9.72 9.71,-9.74 47.91,-13.22 50.75,-6.42 17.8,-10.67 40.07,-3.98 41.23,-10.51 -636.69,0 -1273.38,0 -1910.08,0 1.15,6.53 23.44,-0.16 41.23,10.51 2.84,-6.8 41.04,-3.32 50.74,6.42 2.07,-12.64 50.53,-4.49 49.12,9.72 35.44,9.32 43.38,-11.84 82.54,-1.51 14.6,-16.83 71.96,23.1 82.42,9.15 38.44,6.25 82.56,23.99 99.83,4.73 61.68,9.2 120.13,37.15 132.74,20.45 37.32,4.62 56.66,22.43 100.22,8.94 12.29,8.23 59.28,10.17 70.89,-1.06 17.41,4.05 38.62,20.69 65.09,6.19 18.48,18.31 72.62,5.9 123.27,-2.24 34.31,-7.27 80.1,-7.16 113.91,0 50.64,8.14 104.79,20.55 123.25,2.24 v 0"
       style="fill:#25732f;fill-opacity:1;fill-rule:evenodd;stroke:none"
       transform="matrix(0.13333333,0,0,-0.13333333,0,869.29333)" />
    <path
       id="path167"
       d="m 5449.8,2307.42 c 2.72,-0.37 4.34,-0.06 5.38,0.72 -0.6,1.26 -0.42,1.54 0.43,2.6 -1.22,0.88 -1.7,1.07 -1.53,2.61 1.68,0.2 3.51,0.93 4.77,2.14 -2.59,0.58 -3.4,0.96 -5.26,2.85 5.07,0.68 10.67,3.39 13.05,7.77 -1.82,1.04 -7.46,1.53 -8.16,3.3 2.79,0.99 5.11,2.67 6.21,4.89 -1.49,0.24 -2.56,0.32 -3.79,1.22 4.15,1.38 7.15,3.64 9.21,5.74 -1.81,-0.26 -2.12,0.3 -1.75,2.05 -1.7,-0.73 -4.05,-0.86 -5.51,0.5 6.27,2.68 15.31,14.04 18.32,22.44 1.83,-5.81 3.26,-10.88 8.38,-14.28 -2.24,-1.37 -2.07,-1.06 0.14,-2.42 -0.03,-0.3 -0.06,-0.61 -0.1,-0.92 0.86,-0.35 4.63,-1.57 2.38,-2.61 1.86,-1.7 2.78,-2.67 5.63,-3.91 -1.88,-0.55 -3.55,-0.85 -5.49,-1.09 1.17,-1.62 -0.09,-1.34 -1.58,-1.34 0.31,-1.95 3.19,-2.79 4.92,-3.16 0.49,-0.67 0.23,-1.02 0.06,-1.83 1.33,0.02 2.24,-0.23 4.05,-0.28 -0.33,-1.03 -1.05,-1.23 -1.96,-1.81 0.78,-1.58 2.19,-1.34 3.79,-1.36 -1.16,-2.3 -5.18,-2.18 -7.46,-2.32 1.87,-2.03 4.28,-5.04 8.25,-6.83 -1.2,-1.88 -4.21,-0.68 -6.09,-0.95 1.88,-1.21 3.64,-2.33 6.33,-3.01 -0.41,-1.35 -1.15,-1.29 -2.41,-1.89 1.26,-1.65 1.51,-1.19 2,-3.24 1.12,-0.39 2.03,-0.47 3.28,-0.4 -0.37,-2.97 -3.41,-3.17 -5.73,-3.6 1.98,-1.07 3.44,-2.5 7.65,-2.94 -0.24,-2.11 -3.46,-2.42 -5.26,-2.67 4.69,-3.4 6.35,-4.03 11.27,-4.15 0,-1.76 -1.05,-2.19 -2.46,-3.08 0,-4.28 -4.22,-4.6 -7.79,-4.91 4.65,-4.08 8.42,-5.25 13.89,-6.21 0,-3.51 -8.21,-1.76 -10.22,-2.81 2.23,-1.66 1.78,-3 6.15,-5.8 -0.35,-1.1 -0.64,-1.07 -1.68,-1.57 3.62,-0.72 7.05,-1.38 11.49,-0.94 0.17,-2.51 -8.3,-4.34 -11,-4.06 -4.3,-2.8 -5.75,-1.79 -10.82,-0.34 0.39,-1.94 1.79,-3.87 3.99,-6.57 -4.61,-1.59 -11.9,3.1 -15.36,5.52 0,-3.51 1.6,-6.13 4.65,-8.27 -3.67,-0.54 -5.43,1.1 -10.84,0.35 -0.99,-0.2 -3.79,1 -3.79,1 -2.85,-0.64 -5.59,-1.32 -8.43,-0.82 2.98,2.15 4.25,3.19 5.8,6.47 -1.72,0.14 -2.52,0.18 -2.03,2.03 -3.34,-1.69 -4.91,-4.72 -7.54,0.36 -1,-0.77 -1.84,-1.41 -2.97,-1.95 -1,0.88 -3.12,-0.96 -4.63,-1.22 0.3,1.06 -0.15,2.21 -0.86,3.44 -2.73,2.78 -11.63,-5.46 -12.85,1.66 -1.39,0.12 -4.01,0.09 -4.01,1.95 6.88,0 10.79,4.83 14.61,9.62 -2,-0.18 -5.47,-0.96 -6.77,0.8 0.65,0.56 0.86,1.04 0.76,1.79 -1.99,0.27 -3.63,0.01 -3.95,2.23 1.38,0.01 1.84,0.49 2.35,1.39 -1.94,0.34 -3.38,1.38 -4.48,3.55 5.82,-0.04 9.96,1.51 12.8,5.06 -1.69,-0.29 -2.23,-0.66 -3.48,0.5 0.33,0.22 0.74,0.69 0.72,1.21 -0.99,0.4 -1.74,0.71 -2.58,1.36 1.68,0.75 2.7,1.45 3.29,2.61 0.03,0 -6.3,1.11 -5.38,3.83 v 0"
       style="fill:#25732f;fill-opacity:1;fill-rule:evenodd;stroke:none"
       transform="matrix(0.13333333,0,0,-0.13333333,0,869.29333)" />
    <path
       id="path168"
       d="m 5449.8,2307.42 c 2.72,-0.37 4.34,-0.06 5.38,0.72 -0.6,1.26 -0.42,1.54 0.43,2.6 -1.22,0.88 -1.7,1.07 -1.53,2.61 1.68,0.2 3.51,0.93 4.77,2.14 -2.59,0.58 -3.4,0.96 -5.26,2.85 5.07,0.68 10.67,3.39 13.05,7.77 -1.82,1.04 -7.46,1.53 -8.16,3.3 2.79,0.99 5.11,2.67 6.21,4.89 -1.49,0.24 -2.56,0.32 -3.79,1.22 4.15,1.38 7.15,3.64 9.21,5.74 -1.81,-0.26 -2.12,0.3 -1.75,2.05 -1.7,-0.73 -4.05,-0.86 -5.51,0.5 6.27,2.68 15.31,14.04 18.32,22.44 1.83,-5.81 3.26,-10.88 8.38,-14.28 -2.24,-1.37 -2.07,-1.06 0.14,-2.42 -0.03,-0.3 -0.06,-0.61 -0.1,-0.92 0.86,-0.35 4.63,-1.57 2.38,-2.61 1.86,-1.7 2.78,-2.67 5.63,-3.91 -1.88,-0.55 -3.55,-0.85 -5.49,-1.09 1.17,-1.62 -0.09,-1.34 -1.58,-1.34 0.31,-1.95 3.19,-2.79 4.92,-3.16 0.49,-0.67 0.23,-1.02 0.06,-1.83 1.33,0.02 2.24,-0.23 4.05,-0.28 -0.33,-1.03 -1.05,-1.23 -1.96,-1.81 0.78,-1.58 2.19,-1.34 3.79,-1.36 -1.16,-2.3 -5.18,-2.18 -7.46,-2.32 1.87,-2.03 4.28,-5.04 8.25,-6.83 -1.2,-1.88 -4.21,-0.68 -6.09,-0.95 1.88,-1.21 3.64,-2.33 6.33,-3.01 -0.41,-1.35 -1.15,-1.29 -2.41,-1.89 1.26,-1.65 1.51,-1.19 2,-3.24 1.12,-0.39 2.03,-0.47 3.28,-0.4 -0.37,-2.97 -3.41,-3.17 -5.73,-3.6 1.98,-1.07 3.44,-2.5 7.65,-2.94 -0.24,-2.11 -3.46,-2.42 -5.26,-2.67 4.69,-3.4 6.35,-4.03 11.27,-4.15 0,-1.76 -1.05,-2.19 -2.46,-3.08 0,-4.28 -4.22,-4.6 -7.79,-4.91 4.65,-4.08 8.42,-5.25 13.89,-6.21 0,-3.51 -8.21,-1.76 -10.22,-2.81 2.23,-1.66 1.78,-3 6.15,-5.8 -0.35,-1.1 -0.64,-1.07 -1.68,-1.57 3.62,-0.72 7.05,-1.38 11.49,-0.94 0.17,-2.51 -8.3,-4.34 -11,-4.06 -4.3,-2.8 -5.75,-1.79 -10.82,-0.34 0.39,-1.94 1.79,-3.87 3.99,-6.57 -4.61,-1.59 -11.9,3.1 -15.36,5.52 0,-3.51 1.6,-6.13 4.65,-8.27 -3.67,-0.54 -5.43,1.1 -10.84,0.35 -0.99,-0.2 -3.79,1 -3.79,1 -2.85,-0.64 -5.59,-1.32 -8.43,-0.82 2.98,2.15 4.25,3.19 5.8,6.47 -1.72,0.14 -2.52,0.18 -2.03,2.03 -3.34,-1.69 -4.91,-4.72 -7.54,0.36 -1,-0.77 -1.84,-1.41 -2.97,-1.95 -1,0.88 -3.12,-0.96 -4.63,-1.22 0.3,1.06 -0.15,2.21 -0.86,3.44 -2.73,2.78 -11.63,-5.46 -12.85,1.66 -1.39,0.12 -4.01,0.09 -4.01,1.95 6.88,0 10.79,4.83 14.61,9.62 -2,-0.18 -5.47,-0.96 -6.77,0.8 0.65,0.56 0.86,1.04 0.76,1.79 -1.99,0.27 -3.63,0.01 -3.95,2.23 1.38,0.01 1.84,0.49 2.35,1.39 -1.94,0.34 -3.38,1.38 -4.48,3.55 5.82,-0.04 9.96,1.51 12.8,5.06 -1.69,-0.29 -2.23,-0.66 -3.48,0.5 0.33,0.22 0.74,0.69 0.72,1.21 -0.99,0.4 -1.74,0.71 -2.58,1.36 1.68,0.75 2.7,1.45 3.29,2.61 0.03,0 -6.3,1.11 -5.38,3.83 z"
       style="fill:none;stroke:#211d1d;stroke-width:2.16;stroke-linecap:butt;stroke-linejoin:bevel;stroke-miterlimit:2.4142;stroke-dasharray:none;stroke-opacity:1"
       transform="matrix(0.13333333,0,0,-0.13333333,0,869.29333)" />
    <path
       id="path169"
       d="m 5736.5,2266.13 c 2.06,-0.27 3.3,-0.04 4.09,0.56 -0.45,0.95 -0.32,1.17 0.33,1.97 -0.92,0.68 -1.3,0.81 -1.15,1.99 1.27,0.15 2.66,0.71 3.62,1.62 -1.97,0.46 -2.59,0.75 -4,2.18 3.85,0.52 8.12,2.58 9.94,5.92 -1.4,0.79 -5.69,1.16 -6.22,2.51 2.12,0.75 3.88,2.04 4.72,3.72 -1.12,0.19 -1.94,0.25 -2.88,0.93 3.16,1.06 5.44,2.77 7.01,4.37 -1.37,-0.19 -1.61,0.24 -1.32,1.57 -1.3,-0.56 -3.1,-0.66 -4.2,0.38 4.77,2.04 11.67,10.68 13.95,17.09 1.39,-4.42 2.48,-8.3 6.38,-10.87 -1.71,-1.05 -1.57,-0.82 0.11,-1.86 -0.02,-0.22 -0.05,-0.46 -0.08,-0.69 0.66,-0.27 3.53,-1.2 1.81,-1.99 1.41,-1.29 2.11,-2.03 4.28,-2.98 -1.43,-0.41 -2.69,-0.65 -4.17,-0.83 0.89,-1.23 -0.07,-1.02 -1.2,-1.02 0.23,-1.48 2.42,-2.11 3.73,-2.41 0.38,-0.51 0.18,-0.78 0.06,-1.39 1,0.01 1.7,-0.17 3.08,-0.2 -0.25,-0.79 -0.8,-0.95 -1.5,-1.4 0.61,-1.19 1.67,-1.01 2.89,-1.02 -0.88,-1.76 -3.94,-1.66 -5.68,-1.77 1.42,-1.54 3.26,-3.85 6.29,-5.21 -0.91,-1.42 -3.21,-0.51 -4.64,-0.72 1.43,-0.92 2.76,-1.78 4.82,-2.29 -0.32,-1.03 -0.88,-0.99 -1.84,-1.44 0.96,-1.25 1.15,-0.91 1.53,-2.46 0.85,-0.3 1.53,-0.36 2.49,-0.31 -0.27,-2.26 -2.6,-2.41 -4.36,-2.74 1.51,-0.82 2.62,-1.9 5.82,-2.23 -0.17,-1.61 -2.63,-1.85 -4,-2.04 3.56,-2.59 4.84,-3.06 8.59,-3.16 0,-1.35 -0.8,-1.67 -1.89,-2.34 0,-3.26 -3.2,-3.51 -5.93,-3.74 3.55,-3.11 6.42,-4.01 10.58,-4.73 0,-2.67 -6.25,-1.35 -7.77,-2.15 1.69,-1.25 1.34,-2.28 4.68,-4.42 -0.27,-0.83 -0.51,-0.81 -1.29,-1.19 2.76,-0.55 5.37,-1.05 8.75,-0.71 0.13,-1.92 -6.32,-3.31 -8.38,-3.09 -3.26,-2.13 -4.37,-1.37 -8.24,-0.27 0.32,-1.47 1.37,-2.93 3.04,-5 -3.51,-1.21 -9.05,2.36 -11.69,4.21 0,-2.67 1.21,-4.67 3.54,-6.29 -2.8,-0.42 -4.14,0.83 -8.25,0.26 -0.76,-0.16 -2.89,0.76 -2.89,0.76 -2.17,-0.49 -4.26,-1.01 -6.42,-0.62 2.27,1.64 3.24,2.42 4.42,4.92 -1.32,0.1 -1.92,0.13 -1.55,1.55 -2.54,-1.29 -3.73,-3.59 -5.74,0.26 -0.75,-0.58 -1.39,-1.06 -2.26,-1.48 -0.76,0.68 -2.37,-0.73 -3.53,-0.93 0.24,0.81 -0.11,1.68 -0.64,2.62 -2.09,2.13 -8.87,-4.14 -9.79,1.27 -1.06,0.09 -3.06,0.07 -3.06,1.48 5.25,0 8.22,3.68 11.13,7.33 -1.52,-0.14 -4.16,-0.73 -5.16,0.61 0.49,0.43 0.65,0.8 0.59,1.36 -1.52,0.21 -2.78,0.01 -3.01,1.7 1.04,0.01 1.4,0.37 1.78,1.06 -1.47,0.26 -2.57,1.05 -3.41,2.71 4.43,-0.04 7.59,1.14 9.74,3.84 -1.28,-0.22 -1.68,-0.5 -2.65,0.39 0.27,0.17 0.58,0.52 0.56,0.92 -0.75,0.31 -1.33,0.54 -1.97,1.04 1.29,0.57 2.05,1.1 2.5,1.97 0.04,0 -4.79,0.85 -4.09,2.92 v 0"
       style="fill:#25732f;fill-opacity:1;fill-rule:evenodd;stroke:none"
       transform="matrix(0.13333333,0,0,-0.13333333,0,869.29333)" />
    <path
       id="path170"
       d="m 5736.5,2266.13 c 2.06,-0.27 3.3,-0.04 4.09,0.56 -0.45,0.95 -0.32,1.17 0.33,1.97 -0.92,0.68 -1.3,0.81 -1.15,1.99 1.27,0.15 2.66,0.71 3.62,1.62 -1.97,0.46 -2.59,0.75 -4,2.18 3.85,0.52 8.12,2.58 9.94,5.92 -1.4,0.79 -5.69,1.16 -6.22,2.51 2.12,0.75 3.88,2.04 4.72,3.72 -1.12,0.19 -1.94,0.25 -2.88,0.93 3.16,1.06 5.44,2.77 7.01,4.37 -1.37,-0.19 -1.61,0.24 -1.32,1.57 -1.3,-0.56 -3.1,-0.66 -4.2,0.38 4.77,2.04 11.67,10.68 13.95,17.09 1.39,-4.42 2.48,-8.3 6.38,-10.87 -1.71,-1.05 -1.57,-0.82 0.11,-1.86 -0.02,-0.22 -0.05,-0.46 -0.08,-0.69 0.66,-0.27 3.53,-1.2 1.81,-1.99 1.41,-1.29 2.11,-2.03 4.28,-2.98 -1.43,-0.41 -2.69,-0.65 -4.17,-0.83 0.89,-1.23 -0.07,-1.02 -1.2,-1.02 0.23,-1.48 2.42,-2.11 3.73,-2.41 0.38,-0.51 0.18,-0.78 0.06,-1.39 1,0.01 1.7,-0.17 3.08,-0.2 -0.25,-0.79 -0.8,-0.95 -1.5,-1.4 0.61,-1.19 1.67,-1.01 2.89,-1.02 -0.88,-1.76 -3.94,-1.66 -5.68,-1.77 1.42,-1.54 3.26,-3.85 6.29,-5.21 -0.91,-1.42 -3.21,-0.51 -4.64,-0.72 1.43,-0.92 2.76,-1.78 4.82,-2.29 -0.32,-1.03 -0.88,-0.99 -1.84,-1.44 0.96,-1.25 1.15,-0.91 1.53,-2.46 0.85,-0.3 1.53,-0.36 2.49,-0.31 -0.27,-2.26 -2.6,-2.41 -4.36,-2.74 1.51,-0.82 2.62,-1.9 5.82,-2.23 -0.17,-1.61 -2.63,-1.85 -4,-2.04 3.56,-2.59 4.84,-3.06 8.59,-3.16 0,-1.35 -0.8,-1.67 -1.89,-2.34 0,-3.26 -3.2,-3.51 -5.93,-3.74 3.55,-3.11 6.42,-4.01 10.58,-4.73 0,-2.67 -6.25,-1.35 -7.77,-2.15 1.69,-1.25 1.34,-2.28 4.68,-4.42 -0.27,-0.83 -0.51,-0.81 -1.29,-1.19 2.76,-0.55 5.37,-1.05 8.75,-0.71 0.13,-1.92 -6.32,-3.31 -8.38,-3.09 -3.26,-2.13 -4.37,-1.37 -8.24,-0.27 0.32,-1.47 1.37,-2.93 3.04,-5 -3.51,-1.21 -9.05,2.36 -11.69,4.21 0,-2.67 1.21,-4.67 3.54,-6.29 -2.8,-0.42 -4.14,0.83 -8.25,0.26 -0.76,-0.16 -2.89,0.76 -2.89,0.76 -2.17,-0.49 -4.26,-1.01 -6.42,-0.62 2.27,1.64 3.24,2.42 4.42,4.92 -1.32,0.1 -1.92,0.13 -1.55,1.55 -2.54,-1.29 -3.73,-3.59 -5.74,0.26 -0.75,-0.58 -1.39,-1.06 -2.26,-1.48 -0.76,0.68 -2.37,-0.73 -3.53,-0.93 0.24,0.81 -0.11,1.68 -0.64,2.62 -2.09,2.13 -8.87,-4.14 -9.79,1.27 -1.06,0.09 -3.06,0.07 -3.06,1.48 5.25,0 8.22,3.68 11.13,7.33 -1.52,-0.14 -4.16,-0.73 -5.16,0.61 0.49,0.43 0.65,0.8 0.59,1.36 -1.52,0.21 -2.78,0.01 -3.01,1.7 1.04,0.01 1.4,0.37 1.78,1.06 -1.47,0.26 -2.57,1.05 -3.41,2.71 4.43,-0.04 7.59,1.14 9.74,3.84 -1.28,-0.22 -1.68,-0.5 -2.65,0.39 0.27,0.17 0.58,0.52 0.56,0.92 -0.75,0.31 -1.33,0.54 -1.97,1.04 1.29,0.57 2.05,1.1 2.5,1.97 0.04,0 -4.79,0.85 -4.09,2.92 z"
       style="fill:none;stroke:#211d1d;stroke-width:2.16;stroke-linecap:butt;stroke-linejoin:bevel;stroke-miterlimit:2.4142;stroke-dasharray:none;stroke-opacity:1"
       transform="matrix(0.13333333,0,0,-0.13333333,0,869.29333)" />
    <path
       id="path171"
       d="m 5899.17,2247.18 c 1.42,-0.2 2.26,-0.03 2.8,0.38 -0.31,0.65 -0.21,0.8 0.24,1.35 -0.65,0.47 -0.9,0.56 -0.8,1.36 0.88,0.1 1.83,0.49 2.48,1.12 -1.35,0.31 -1.77,0.51 -2.74,1.49 2.65,0.36 5.57,1.78 6.82,4.07 -0.96,0.54 -3.91,0.8 -4.27,1.72 1.46,0.52 2.67,1.4 3.25,2.56 -0.78,0.13 -1.34,0.16 -1.98,0.63 2.17,0.73 3.73,1.91 4.82,3.02 -0.95,-0.15 -1.12,0.15 -0.92,1.07 -0.88,-0.39 -2.12,-0.45 -2.89,0.25 3.29,1.41 8.02,7.35 9.59,11.74 0.95,-3.04 1.72,-5.69 4.38,-7.46 -1.17,-0.73 -1.08,-0.57 0.07,-1.27 -0.02,-0.17 -0.03,-0.32 -0.04,-0.49 0.44,-0.17 2.41,-0.82 1.24,-1.36 0.97,-0.88 1.45,-1.39 2.94,-2.05 -0.98,-0.28 -1.86,-0.45 -2.87,-0.56 0.6,-0.86 -0.05,-0.71 -0.82,-0.71 0.16,-1.01 1.66,-1.45 2.56,-1.65 0.26,-0.35 0.13,-0.53 0.04,-0.95 0.69,0.01 1.17,-0.12 2.12,-0.15 -0.18,-0.54 -0.56,-0.65 -1.03,-0.95 0.41,-0.83 1.14,-0.7 1.97,-0.71 -0.59,-1.2 -2.69,-1.15 -3.9,-1.21 0.99,-1.06 2.25,-2.64 4.32,-3.58 -0.61,-0.97 -2.19,-0.36 -3.17,-0.49 0.98,-0.63 1.89,-1.22 3.3,-1.58 -0.22,-0.7 -0.61,-0.67 -1.26,-0.98 0.65,-0.86 0.79,-0.63 1.04,-1.69 0.59,-0.21 1.06,-0.26 1.72,-0.22 -0.19,-1.55 -1.79,-1.65 -2.99,-1.87 1.02,-0.57 1.79,-1.32 3.99,-1.55 -0.12,-1.1 -1.8,-1.26 -2.74,-1.39 2.45,-1.78 3.33,-2.1 5.9,-2.17 0,-0.93 -0.56,-1.15 -1.3,-1.61 0,-2.25 -2.21,-2.4 -4.07,-2.57 2.42,-2.14 4.41,-2.74 7.27,-3.25 0,-1.84 -4.3,-0.92 -5.35,-1.48 1.16,-0.85 0.92,-1.56 3.22,-3.02 -0.18,-0.58 -0.34,-0.56 -0.89,-0.83 1.9,-0.37 3.69,-0.71 6.01,-0.48 0.09,-1.32 -4.34,-2.27 -5.75,-2.12 -2.24,-1.47 -3,-0.94 -5.66,-0.18 0.22,-1.02 0.94,-2.03 2.09,-3.44 -2.4,-0.83 -6.23,1.62 -8.03,2.89 0,-1.84 0.83,-3.22 2.42,-4.33 -1.91,-0.28 -2.83,0.58 -5.66,0.19 -0.53,-0.11 -1.97,0.52 -1.97,0.52 -1.51,-0.34 -2.93,-0.69 -4.42,-0.42 1.56,1.12 2.23,1.66 3.03,3.37 -0.9,0.08 -1.31,0.09 -1.05,1.07 -1.75,-0.89 -2.58,-2.48 -3.95,0.18 -0.53,-0.4 -0.96,-0.73 -1.55,-1.02 -0.53,0.47 -1.63,-0.5 -2.42,-0.64 0.15,0.56 -0.08,1.16 -0.45,1.8 -1.44,1.46 -6.09,-2.85 -6.73,0.87 -0.72,0.07 -2.09,0.05 -2.09,1.03 3.59,0 5.64,2.51 7.64,5.01 -1.05,-0.08 -2.86,-0.49 -3.54,0.44 0.33,0.29 0.45,0.54 0.39,0.92 -1.03,0.15 -1.89,0.01 -2.05,1.17 0.71,0.01 0.96,0.26 1.21,0.73 -1,0.17 -1.76,0.72 -2.33,1.86 3.03,-0.02 5.21,0.79 6.69,2.65 -0.88,-0.16 -1.16,-0.35 -1.82,0.25 0.18,0.12 0.39,0.36 0.38,0.64 -0.52,0.21 -0.91,0.37 -1.36,0.71 0.89,0.39 1.42,0.76 1.72,1.36 0.02,0 -3.29,0.58 -2.8,2.01 v 0"
       style="fill:#25732f;fill-opacity:1;fill-rule:evenodd;stroke:none"
       transform="matrix(0.13333333,0,0,-0.13333333,0,869.29333)" />
    <path
       id="path172"
       d="m 5899.17,2247.18 c 1.42,-0.2 2.26,-0.03 2.8,0.38 -0.31,0.65 -0.21,0.8 0.24,1.35 -0.65,0.47 -0.9,0.56 -0.8,1.36 0.88,0.1 1.83,0.49 2.48,1.12 -1.35,0.31 -1.77,0.51 -2.74,1.49 2.65,0.36 5.57,1.78 6.82,4.07 -0.96,0.54 -3.91,0.8 -4.27,1.72 1.46,0.52 2.67,1.4 3.25,2.56 -0.78,0.13 -1.34,0.16 -1.98,0.63 2.17,0.73 3.73,1.91 4.82,3.02 -0.95,-0.15 -1.12,0.15 -0.92,1.07 -0.88,-0.39 -2.12,-0.45 -2.89,0.25 3.29,1.41 8.02,7.35 9.59,11.74 0.95,-3.04 1.72,-5.69 4.38,-7.46 -1.17,-0.73 -1.08,-0.57 0.07,-1.27 -0.02,-0.17 -0.03,-0.32 -0.04,-0.49 0.44,-0.17 2.41,-0.82 1.24,-1.36 0.97,-0.88 1.45,-1.39 2.94,-2.05 -0.98,-0.28 -1.86,-0.45 -2.87,-0.56 0.6,-0.86 -0.05,-0.71 -0.82,-0.71 0.16,-1.01 1.66,-1.45 2.56,-1.65 0.26,-0.35 0.13,-0.53 0.04,-0.95 0.69,0.01 1.17,-0.12 2.12,-0.15 -0.18,-0.54 -0.56,-0.65 -1.03,-0.95 0.41,-0.83 1.14,-0.7 1.97,-0.71 -0.59,-1.2 -2.69,-1.15 -3.9,-1.21 0.99,-1.06 2.25,-2.64 4.32,-3.58 -0.61,-0.97 -2.19,-0.36 -3.17,-0.49 0.98,-0.63 1.89,-1.22 3.3,-1.58 -0.22,-0.7 -0.61,-0.67 -1.26,-0.98 0.65,-0.86 0.79,-0.63 1.04,-1.69 0.59,-0.21 1.06,-0.26 1.72,-0.22 -0.19,-1.55 -1.79,-1.65 -2.99,-1.87 1.02,-0.57 1.79,-1.32 3.99,-1.55 -0.12,-1.1 -1.8,-1.26 -2.74,-1.39 2.45,-1.78 3.33,-2.1 5.9,-2.17 0,-0.93 -0.56,-1.15 -1.3,-1.61 0,-2.25 -2.21,-2.4 -4.07,-2.57 2.42,-2.14 4.41,-2.74 7.27,-3.25 0,-1.84 -4.3,-0.92 -5.35,-1.48 1.16,-0.85 0.92,-1.56 3.22,-3.02 -0.18,-0.58 -0.34,-0.56 -0.89,-0.83 1.9,-0.37 3.69,-0.71 6.01,-0.48 0.09,-1.32 -4.34,-2.27 -5.75,-2.12 -2.24,-1.47 -3,-0.94 -5.66,-0.18 0.22,-1.02 0.94,-2.03 2.09,-3.44 -2.4,-0.83 -6.23,1.62 -8.03,2.89 0,-1.84 0.83,-3.22 2.42,-4.33 -1.91,-0.28 -2.83,0.58 -5.66,0.19 -0.53,-0.11 -1.97,0.52 -1.97,0.52 -1.51,-0.34 -2.93,-0.69 -4.42,-0.42 1.56,1.12 2.23,1.66 3.03,3.37 -0.9,0.08 -1.31,0.09 -1.05,1.07 -1.75,-0.89 -2.58,-2.48 -3.95,0.18 -0.53,-0.4 -0.96,-0.73 -1.55,-1.02 -0.53,0.47 -1.63,-0.5 -2.42,-0.64 0.15,0.56 -0.08,1.16 -0.45,1.8 -1.44,1.46 -6.09,-2.85 -6.73,0.87 -0.72,0.07 -2.09,0.05 -2.09,1.03 3.59,0 5.64,2.51 7.64,5.01 -1.05,-0.08 -2.86,-0.49 -3.54,0.44 0.33,0.29 0.45,0.54 0.39,0.92 -1.03,0.15 -1.89,0.01 -2.05,1.17 0.71,0.01 0.96,0.26 1.21,0.73 -1,0.17 -1.76,0.72 -2.33,1.86 3.03,-0.02 5.21,0.79 6.69,2.65 -0.88,-0.16 -1.16,-0.35 -1.82,0.25 0.18,0.12 0.39,0.36 0.38,0.64 -0.52,0.21 -0.91,0.37 -1.36,0.71 0.89,0.39 1.42,0.76 1.72,1.36 0.02,0 -3.29,0.58 -2.8,2.01 z"
       style="fill:none;stroke:#211d1d;stroke-width:2.16;stroke-linecap:butt;stroke-linejoin:bevel;stroke-miterlimit:2.4142;stroke-dasharray:none;stroke-opacity:1"
       transform="matrix(0.13333333,0,0,-0.13333333,0,869.29333)" />
    <path
       id="path173"
       d="m 5305.02,2402.64 c 1.84,-2.58 3.85,-5.1 5.8,-7.62 -2.97,1.89 -6.17,3.98 -8.09,5.09 0.59,1.07 1.43,1.88 2.29,2.53 z m 1.25,-16.47 c 0.43,-1.22 1.37,-4.18 1.37,-5.9 0,-0.59 0.06,-1.34 0.13,-2.12 -0.74,0.87 -1.5,1.75 -2.04,2.39 -1.37,1.66 -3.54,4.78 -3.54,4.78 -0.9,1.04 2.8,0.96 4.08,0.85 z m 5.19,-10.11 c -0.78,3.5 -1.56,7 -2.33,10.49 6.12,0.81 6.71,-3 10.73,-7.55 -2.69,-3.67 -4.23,-1.99 -8.4,-2.94 z m -18.69,5.76 c 1.66,-1.81 7.15,-1.69 9.46,-1.48 -1.18,1.73 -2.52,4.5 -2.71,4.87 -3.56,-0.23 -6.47,-1.04 -7,-1.34 -0.63,-0.37 -0.96,-1.69 0.25,-2.05 z m 11.01,-3.28 c -3.78,0.18 -7.2,0.24 -10.72,1.87 0.72,-1.68 1.57,-3 2.6,-4.51 4.03,1.23 3.87,0.84 7.44,-1.51 2.72,0.61 2.43,-0.48 3.83,-2.82 0.43,0.6 0.87,1.2 1.3,1.78 -0.75,0.9 -3.02,3.6 -4.45,5.19 z m 8.25,-18.72 c -1.8,-1.56 -4.51,-4.3 -4.32,-6.67 0.25,-3.5 -1.57,-5.68 -1.57,-5.68 0,0 -4.64,1.4 -5.77,0.16 -4.8,-5.27 -6.05,-10.88 -0.72,-15.98 0,0 -0.84,-3.75 1.15,-5.86 1.99,-2.18 7.91,-3.11 7.91,-3.11 3.38,2.59 7.54,1.07 10.86,3.64 7.64,-6.26 8.54,-8.73 12.79,-8.18 -0.02,-2.16 -0.21,-4.47 -0.64,-6.88 -1.62,-9.12 -2.83,-25.24 -3.32,-32.54 -11.66,0.8 -24.69,0.41 -30.63,-2.52 -2.95,-2.15 2.7,-3.5 2.7,-3.5 19.2,-2.27 36.46,-5 56.2,-2.63 8.46,0 14.38,0.21 14.01,2.63 -0.39,2.29 -25.37,3.78 -27.05,4.14 -1.91,0.37 -4.11,0.72 -6.5,1.03 0.21,3.3 0.02,7.56 -0.29,10.02 -1.04,8.09 1.03,18.46 1.56,24.52 0.04,0.47 0.23,3.94 0.49,7.54 7.61,2.54 9.41,3.45 13.43,10.95 10.17,-3.21 13.68,-2.42 25.59,-0.46 0,0 3.01,-2.18 4.59,-2.18 7.32,0 16.91,15.78 9.75,22.47 -2.55,3.29 -3.5,2.7 -7.76,3.03 1.78,1.41 2.53,2.04 4.77,2.33 -0.1,12.66 -12.29,6.82 -17.25,2.62 -5.67,1.65 -8.14,-0.03 -13.65,-2.29 -6.84,-0.29 -12.48,-2.44 -4.26,3.21 7.12,-0.09 9.49,-1.85 13.32,4.22 6.96,-1.34 6.62,-2.3 5.59,4.79 5.45,-1.28 18.16,-2.57 19.7,4.03 5.12,-2.6 5.42,3.85 1.25,6.82 1.88,2.72 2.47,4.59 2.34,7.91 -0.54,-0.37 -1.07,-0.74 -1.6,-1.12 -0.38,0.53 -0.77,1.06 -1.15,1.57 -0.39,-0.88 -0.76,-1.76 -1.15,-2.65 -0.43,0.84 -0.86,1.66 -1.29,2.5 -1.05,-1.39 -2.11,-2.8 -3.14,-4.19 0,0 -0.43,2.77 -0.43,3.44 0,1 -6.21,1.03 -7.03,1.06 1.34,2.62 1.4,4.76 -0.88,7.3 -2.25,2.42 -8.85,1.08 -3.09,2.66 -0.88,0.43 -1.74,0.88 -2.59,1.33 0.66,0.63 1.36,1.27 2.05,1.9 2.05,4.61 2.89,8.23 -2.86,8.76 0,0 -0.85,2.96 -2.09,5.2 -1.21,2.2 -6.44,-2.24 -6.44,-2.24 0,0 -2.08,3.39 -3.86,5.92 -1.79,2.51 -5.61,0.76 -5.61,0.76 -1.1,1.27 -2.15,2.53 -3.18,3.83 0,0 -3.74,3.56 -4.8,3.87 -1.09,0.27 -4.56,-2.66 -4.56,-2.66 -0.49,0.69 -1,1.36 -1.51,2.05 -0.31,-0.69 -0.64,-1.36 -0.97,-2.05 -0.54,0.88 -1.08,1.75 -1.62,2.66 -0.26,-0.87 -0.49,-1.69 -0.71,-2.5 -2.26,1.96 -2.11,4.28 -5.86,4.28 -1.02,-0.52 -2.02,-0.99 -3.01,-1.48 -1.1,0.62 -2.92,-0.3 -1.54,1.03 -0.73,0.73 -1.48,1.48 -2.2,2.2 -0.46,-0.54 -0.94,-1.08 -1.46,-1.6 0,0.88 0,1.75 0,2.66 -0.63,-0.64 -1.26,-1.26 -1.93,-1.94 0,0.79 0,1.57 0,2.39 -0.7,-0.63 -1.39,-1.27 -2.08,-1.93 0.11,0.88 0.21,1.75 0.3,2.66 -5.6,2.31 -8.63,0.64 -12.65,-3.27 -3.52,4.19 -5.47,2.69 -10.31,2.69 0.12,-0.54 0.27,-1.11 0.39,-1.66 -0.62,0.06 -1.27,0.13 -1.89,0.19 0.09,-0.58 0.17,-1.13 0.27,-1.66 -0.88,-0.16 -1.76,-0.31 -2.66,-0.49 5.92,-2.44 10.24,-0.62 5.98,-7.41 2.36,-1.26 4.95,-1.96 7.52,-2.74 2.5,1.03 5.23,2.21 7.7,3.26 3.84,-2.66 -1.39,-5.24 -3.72,-7.12 -3.46,2.25 -5.95,3.66 -9.88,4.89 -2.32,-0.62 -4.04,2.11 -6.48,3.56 -0.06,-0.52 -0.16,-1.02 -0.24,-1.51 -1.61,0.76 -3.21,1.51 -4.84,2.23 0,-0.44 0,-0.89 0,-1.35 -0.63,0.15 -1.27,0.3 -1.9,0.46 2.04,-3.57 -4.51,-2.2 -1.25,-5.47 -1.5,-0.97 -4.67,-2.43 -4.67,-4.48 0,-1.93 1.78,-5.28 3.72,-6.04 7.69,0.12 12.42,-7.79 10.72,-8.45 0.2,-0.4 0.45,-0.79 0.66,-1.18 -0.46,0 -0.87,0 -1.32,0 0.45,-0.58 0.86,-1.08 1.32,-1.63 -0.7,0.03 -1.45,0.09 -2.2,0.12 0.51,-0.54 1.02,-1.09 1.54,-1.61 -0.98,0.07 -1.93,0.19 -2.87,0.28 0.6,-0.73 1.17,-1.48 1.78,-2.21 -2.12,-1.58 -2.05,-2.23 -3.87,-0.29 1.29,5.61 1.41,8.15 -5.07,8.15 -0.79,0.69 -1.54,1.39 -2.33,2.05 -0.54,-0.49 -1.08,-0.99 -1.66,-1.48 0.13,-0.7 0.27,-1.39 0.39,-2.05 -0.81,0 -1.62,0 -2.47,0 -3.29,-1.99 -1.46,-4.5 1.54,-5.34 -3.27,-1.52 -3.68,-1.24 -4.68,-4.75 -0.39,0.6 -0.82,1.18 -1.25,1.79 -1.89,-0.94 -5.21,-4.11 -3.13,-6.38 -3.08,-3.06 -3.82,-6.88 2.72,-7.24 0.33,-2.5 5.07,-5.91 7.01,-7.74 -1.43,-3.7 -0.17,-4.9 3.71,-4.9 3.23,-3.82 5.14,-6.38 9.42,-9.17 2.48,-1.64 7.49,2.38 7.49,2.38 3.17,0.77 6.32,1.53 9.48,2.32 z m 2.54,34.73 c -1.47,3.8 -2.91,7.61 -4.61,11.29 9,3.24 6.9,-6.9 4.61,-11.29 z m -5.68,10.55 c 0.74,-2.25 1.4,-4.41 2.13,-6.55 -2.08,2.25 -2.92,3.25 -4.97,5.24 0.57,0.62 1.92,2.23 2.84,1.31 z m 43.88,-23.37 c -0.04,0.5 -0.07,1.02 -0.11,1.53 0,0 0.42,5.05 1.77,6.38 0.55,0.53 2.87,0.17 5.49,-0.44 -0.17,-1.54 -0.72,-3.61 -2.4,-4.61 -1.35,-0.78 -3.17,-1.89 -4.75,-2.86 z m 16.41,7.3 c 0.2,0.93 0.35,2.01 0.35,2.99 0,7.69 4.53,-1.09 5.24,-1.99 -1.86,-2.63 -3.23,-3.09 -5.59,-1 v 0"
       style="fill:#25732f;fill-opacity:1;fill-rule:evenodd;stroke:none"
       transform="matrix(0.13333333,0,0,-0.13333333,0,869.29333)" />
    <path
       id="path174"
       d="m 5559.73,2349.06 c 1.32,-1.85 2.75,-3.66 4.16,-5.47 -2.13,1.36 -4.44,2.86 -5.81,3.66 0.43,0.77 1.02,1.36 1.65,1.81 z m 0.9,-11.81 c 0.3,-0.88 0.98,-3.01 0.98,-4.25 0,-0.42 0.03,-0.96 0.09,-1.52 -0.53,0.62 -1.07,1.25 -1.47,1.71 -0.98,1.2 -2.54,3.44 -2.54,3.44 -0.65,0.75 2.02,0.68 2.94,0.62 z m 3.72,-7.27 c -0.56,2.51 -1.12,5.02 -1.67,7.53 4.39,0.58 4.82,-2.16 7.69,-5.42 -1.93,-2.64 -3.03,-1.43 -6.02,-2.11 z m -13.43,4.13 c 1.2,-1.3 5.13,-1.21 6.81,-1.06 -0.85,1.25 -1.83,3.24 -1.95,3.5 -2.56,-0.16 -4.65,-0.75 -5.03,-0.96 -0.46,-0.27 -0.69,-1.21 0.17,-1.48 z m 7.92,-2.35 c -2.71,0.13 -5.17,0.17 -7.71,1.35 0.53,-1.22 1.14,-2.16 1.88,-3.25 2.89,0.89 2.77,0.61 5.33,-1.08 1.95,0.44 1.76,-0.35 2.75,-2.02 0.32,0.43 0.63,0.85 0.94,1.28 -0.53,0.64 -2.17,2.59 -3.19,3.72 z m 5.93,-13.44 c -1.31,-1.12 -3.25,-3.09 -3.11,-4.8 0.18,-2.5 -1.13,-4.07 -1.13,-4.07 0,0 -3.34,1 -4.14,0.11 -3.46,-3.78 -4.35,-7.81 -0.52,-11.47 0,0 -0.6,-2.69 0.83,-4.2 1.43,-1.57 5.68,-2.24 5.68,-2.24 2.42,1.87 5.41,0.76 7.8,2.61 5.48,-4.49 6.13,-6.27 9.18,-5.86 -0.02,-1.55 -0.16,-3.21 -0.45,-4.95 -1.18,-6.55 -2.03,-18.13 -2.39,-23.37 -8.38,0.57 -17.74,0.3 -21.99,-1.81 -2.13,-1.54 1.93,-2.51 1.93,-2.51 13.79,-1.63 26.18,-3.58 40.36,-1.89 6.07,0 10.32,0.15 10.06,1.89 -0.28,1.64 -18.22,2.71 -19.44,2.97 -1.37,0.27 -2.95,0.52 -4.67,0.74 0.16,2.38 0.02,5.43 -0.2,7.2 -0.73,5.81 0.74,13.25 1.12,17.61 0.04,0.33 0.18,2.83 0.35,5.42 5.47,1.82 6.76,2.47 9.65,7.85 7.31,-2.31 9.82,-1.74 18.37,-0.32 0,0 2.17,-1.57 3.29,-1.57 5.28,0 12.16,11.33 7.01,16.14 -1.83,2.35 -2.52,1.93 -5.57,2.16 1.28,1.01 1.82,1.47 3.42,1.68 -0.07,9.09 -8.82,4.9 -12.38,1.88 -4.08,1.19 -5.85,-0.02 -9.8,-1.65 -4.92,-0.21 -8.97,-1.74 -3.07,2.31 5.12,-0.07 6.82,-1.32 9.57,3.03 5,-0.96 4.76,-1.65 4.02,3.45 3.91,-0.93 13.03,-1.86 14.14,2.88 3.68,-1.86 3.89,2.77 0.9,4.9 1.35,1.95 1.77,3.3 1.68,5.69 -0.39,-0.28 -0.77,-0.54 -1.15,-0.81 -0.27,0.38 -0.55,0.75 -0.83,1.13 -0.27,-0.64 -0.54,-1.27 -0.82,-1.91 -0.31,0.6 -0.62,1.2 -0.93,1.8 -0.76,-1 -1.5,-2.01 -2.26,-3.02 0,0 -0.3,2 -0.3,2.47 0,0.73 -4.46,0.75 -5.05,0.76 0.96,1.89 1.01,3.42 -0.63,5.26 -1.62,1.73 -6.36,0.77 -2.21,1.9 -0.64,0.31 -1.27,0.63 -1.87,0.96 0.48,0.45 0.98,0.91 1.47,1.37 1.48,3.31 2.08,5.9 -2.06,6.28 0,0 -0.6,2.13 -1.49,3.74 -0.87,1.58 -4.62,-1.61 -4.62,-1.61 0,0 -1.5,2.43 -2.77,4.25 -1.29,1.8 -4.05,0.54 -4.05,0.54 -0.78,0.91 -1.53,1.83 -2.26,2.75 0,0 -2.7,2.56 -3.46,2.78 -0.78,0.19 -3.27,-1.91 -3.27,-1.91 -0.34,0.5 -0.71,0.98 -1.08,1.48 -0.22,-0.5 -0.46,-0.98 -0.7,-1.48 -0.39,0.63 -0.78,1.27 -1.17,1.91 -0.17,-0.63 -0.34,-1.21 -0.5,-1.8 -1.63,1.41 -1.52,3.08 -4.21,3.08 -0.73,-0.36 -1.45,-0.71 -2.16,-1.06 -0.8,0.44 -2.1,-0.22 -1.11,0.74 -0.53,0.51 -1.06,1.06 -1.58,1.58 -0.33,-0.39 -0.68,-0.79 -1.04,-1.16 0,0.64 0,1.26 0,1.92 -0.46,-0.46 -0.91,-0.91 -1.39,-1.39 0,0.57 0,1.12 0,1.71 -0.5,-0.45 -1.01,-0.91 -1.5,-1.39 0.08,0.63 0.15,1.27 0.22,1.92 -4.03,1.66 -6.2,0.46 -9.08,-2.35 -2.53,3 -3.94,1.93 -7.41,1.93 0.09,-0.39 0.2,-0.8 0.29,-1.19 -0.46,0.05 -0.91,0.08 -1.37,0.12 0.07,-0.41 0.13,-0.8 0.2,-1.19 -0.64,-0.1 -1.26,-0.21 -1.91,-0.34 4.25,-1.76 7.34,-0.44 4.3,-5.31 1.68,-0.91 3.55,-1.42 5.39,-1.98 1.8,0.74 3.75,1.59 5.53,2.35 2.76,-1.91 -1,-3.77 -2.66,-5.13 -2.5,1.62 -4.29,2.64 -7.1,3.52 -1.67,-0.44 -2.9,1.51 -4.66,2.56 -0.04,-0.37 -0.12,-0.73 -0.17,-1.09 -1.16,0.55 -2.31,1.09 -3.48,1.61 0,-0.33 0,-0.65 0,-0.97 -0.45,0.1 -0.9,0.21 -1.36,0.32 1.46,-2.56 -3.25,-1.57 -0.89,-3.92 -1.09,-0.7 -3.36,-1.75 -3.36,-3.22 0,-1.39 1.27,-3.79 2.66,-4.34 5.53,0.09 8.94,-5.59 7.71,-6.07 0.14,-0.28 0.32,-0.55 0.47,-0.84 -0.33,0 -0.62,0 -0.95,0 0.33,-0.41 0.62,-0.78 0.95,-1.17 -0.49,0.02 -1.03,0.06 -1.58,0.09 0.37,-0.39 0.74,-0.79 1.11,-1.16 -0.7,0.04 -1.39,0.13 -2.07,0.2 0.43,-0.52 0.84,-1.06 1.29,-1.58 -1.53,-1.14 -1.48,-1.6 -2.78,-0.22 0.93,4.04 1.01,5.85 -3.64,5.85 -0.57,0.5 -1.12,1 -1.67,1.48 -0.39,-0.34 -0.78,-0.72 -1.2,-1.07 0.09,-0.5 0.19,-0.99 0.29,-1.47 -0.59,0 -1.17,0 -1.78,0 -2.36,-1.43 -1.04,-3.23 1.1,-3.84 -2.35,-1.08 -2.64,-0.89 -3.36,-3.4 -0.28,0.43 -0.59,0.84 -0.88,1.28 -1.37,-0.67 -3.76,-2.95 -2.27,-4.58 -2.2,-2.19 -2.73,-4.94 1.96,-5.2 0.23,-1.8 3.65,-4.24 5.03,-5.55 -1.03,-2.66 -0.12,-3.53 2.66,-3.53 2.33,-2.74 3.7,-4.57 6.78,-6.58 1.78,-1.17 5.37,1.71 5.37,1.71 2.28,0.56 4.54,1.1 6.82,1.67 z m 1.81,24.94 c -1.05,2.72 -2.09,5.46 -3.31,8.11 6.46,2.32 4.95,-4.96 3.31,-8.11 z m -4.08,7.57 c 0.54,-1.61 1.02,-3.16 1.52,-4.7 -1.48,1.61 -2.09,2.33 -3.55,3.76 0.41,0.45 1.37,1.6 2.03,0.94 z m 31.5,-16.79 c -0.02,0.37 -0.04,0.75 -0.07,1.12 0,0 0.31,3.61 1.28,4.57 0.39,0.38 2.06,0.13 3.93,-0.32 -0.12,-1.11 -0.51,-2.59 -1.72,-3.3 -0.96,-0.56 -2.28,-1.36 -3.42,-2.07 z m 11.8,5.26 c 0.14,0.66 0.25,1.43 0.25,2.15 0,5.5 3.25,-0.8 3.75,-1.44 -1.33,-1.88 -2.32,-2.22 -4,-0.71 v 0"
       style="fill:#25732f;fill-opacity:1;fill-rule:evenodd;stroke:none"
       transform="matrix(0.13333333,0,0,-0.13333333,0,869.29333)" />
    <path
       id="path175"
       d="m 5801.2,2287.22 c 0.8,-1.13 1.67,-2.23 2.53,-3.33 -1.29,0.84 -2.69,1.75 -3.53,2.22 0.26,0.47 0.62,0.83 1,1.11 z m 0.55,-7.18 c 0.18,-0.53 0.59,-1.82 0.59,-2.58 0,-0.25 0.02,-0.57 0.06,-0.92 -0.32,0.37 -0.65,0.76 -0.9,1.04 -0.59,0.72 -1.54,2.09 -1.54,2.09 -0.39,0.45 1.23,0.42 1.79,0.37 z m 2.25,-4.4 c -0.33,1.52 -0.67,3.04 -1.01,4.56 2.67,0.36 2.93,-1.31 4.69,-3.29 -1.18,-1.6 -1.86,-0.86 -3.68,-1.27 z m -8.14,2.5 c 0.72,-0.78 3.12,-0.74 4.12,-0.64 -0.52,0.75 -1.1,1.96 -1.18,2.13 -1.55,-0.11 -2.82,-0.46 -3.06,-0.6 -0.27,-0.15 -0.41,-0.73 0.12,-0.89 z m 4.8,-1.43 c -1.66,0.08 -3.14,0.11 -4.68,0.82 0.32,-0.73 0.69,-1.31 1.14,-1.97 1.75,0.53 1.69,0.37 3.24,-0.66 1.18,0.27 1.07,-0.21 1.67,-1.23 0.2,0.27 0.38,0.52 0.57,0.78 -0.33,0.39 -1.31,1.57 -1.94,2.26 z m 3.6,-8.16 c -0.79,-0.68 -1.97,-1.88 -1.88,-2.91 0.1,-1.53 -0.69,-2.48 -0.69,-2.48 0,0 -2.02,0.61 -2.51,0.07 -2.11,-2.29 -2.64,-4.75 -0.32,-6.97 0,0 -0.36,-1.63 0.5,-2.56 0.87,-0.95 3.45,-1.34 3.45,-1.34 1.47,1.12 3.28,0.45 4.73,1.58 3.34,-2.74 3.73,-3.81 5.59,-3.57 -0.02,-0.94 -0.1,-1.95 -0.28,-2.99 -0.71,-3.99 -1.24,-11.01 -1.46,-14.2 -5.08,0.34 -10.76,0.18 -13.34,-1.1 -1.3,-0.94 1.17,-1.53 1.17,-1.53 8.37,-0.99 15.9,-2.17 24.51,-1.15 3.68,0 6.27,0.09 6.11,1.15 -0.17,1 -11.07,1.65 -11.8,1.81 -0.83,0.16 -1.79,0.32 -2.84,0.44 0.09,1.45 0.01,3.31 -0.12,4.38 -0.45,3.52 0.45,8.05 0.68,10.69 0.02,0.2 0.1,1.72 0.22,3.29 3.32,1.11 4.1,1.51 5.86,4.77 4.42,-1.4 5.95,-1.05 11.15,-0.2 0,0 1.31,-0.94 1.99,-0.94 3.2,0 7.38,6.88 4.26,9.8 -1.11,1.43 -1.53,1.17 -3.38,1.31 0.78,0.62 1.1,0.9 2.08,1.01 -0.05,5.53 -5.36,2.98 -7.53,1.16 -2.46,0.72 -3.54,-0.02 -5.95,-1.01 -2.98,-0.13 -5.44,-1.05 -1.86,1.41 3.1,-0.04 4.14,-0.81 5.82,1.83 3.03,-0.58 2.88,-1 2.43,2.09 2.37,-0.55 7.92,-1.12 8.58,1.76 2.25,-1.13 2.37,1.68 0.56,2.98 0.82,1.18 1.07,2 1.02,3.44 -0.24,-0.16 -0.46,-0.32 -0.7,-0.48 -0.17,0.22 -0.33,0.46 -0.51,0.68 -0.16,-0.38 -0.33,-0.77 -0.49,-1.15 -0.19,0.36 -0.38,0.72 -0.57,1.08 -0.46,-0.6 -0.91,-1.22 -1.36,-1.82 0,0 -0.19,1.21 -0.19,1.5 0,0.43 -2.72,0.45 -3.07,0.46 0.59,1.14 0.61,2.08 -0.39,3.18 -0.98,1.06 -3.85,0.48 -1.34,1.17 -0.38,0.18 -0.76,0.38 -1.13,0.57 0.28,0.29 0.6,0.56 0.89,0.83 0.9,2.02 1.27,3.59 -1.25,3.82 0,0 -0.36,1.3 -0.9,2.27 -0.53,0.96 -2.81,-0.97 -2.81,-0.97 0,0 -0.91,1.47 -1.68,2.58 -0.78,1.09 -2.46,0.33 -2.46,0.33 -0.47,0.55 -0.93,1.1 -1.38,1.67 0,0 -1.63,1.55 -2.1,1.69 -0.47,0.12 -1.98,-1.16 -1.98,-1.16 -0.21,0.3 -0.44,0.59 -0.66,0.89 -0.13,-0.3 -0.28,-0.59 -0.43,-0.89 -0.23,0.38 -0.46,0.76 -0.7,1.16 -0.11,-0.38 -0.21,-0.75 -0.31,-1.09 -0.98,0.84 -0.92,1.86 -2.55,1.86 -0.45,-0.23 -0.89,-0.43 -1.32,-0.64 -0.48,0.27 -1.27,-0.14 -0.67,0.44 -0.31,0.32 -0.65,0.65 -0.96,0.96 -0.2,-0.23 -0.41,-0.47 -0.63,-0.69 0,0.38 0,0.76 0,1.16 -0.28,-0.28 -0.55,-0.55 -0.84,-0.85 0,0.34 0,0.69 0,1.05 -0.32,-0.28 -0.61,-0.56 -0.92,-0.84 0.06,0.38 0.1,0.76 0.13,1.15 -2.44,1.01 -3.77,0.28 -5.51,-1.42 -1.54,1.83 -2.4,1.17 -4.49,1.17 0.04,-0.24 0.11,-0.48 0.16,-0.73 -0.27,0.03 -0.55,0.06 -0.82,0.09 0.04,-0.25 0.08,-0.49 0.12,-0.73 -0.39,-0.06 -0.76,-0.13 -1.17,-0.21 2.59,-1.06 4.47,-0.27 2.61,-3.23 1.04,-0.55 2.17,-0.85 3.28,-1.19 1.1,0.45 2.29,0.96 3.36,1.41 1.68,-1.16 -0.6,-2.28 -1.62,-3.1 -1.51,0.99 -2.6,1.6 -4.3,2.14 -1.02,-0.28 -1.77,0.92 -2.83,1.55 -0.04,-0.22 -0.07,-0.45 -0.11,-0.67 -0.71,0.34 -1.4,0.67 -2.11,0.98 0,-0.19 0,-0.39 0,-0.59 -0.28,0.06 -0.55,0.13 -0.82,0.2 0.88,-1.55 -1.98,-0.96 -0.55,-2.39 -0.66,-0.42 -2.04,-1.04 -2.04,-1.95 0,-0.84 0.77,-2.3 1.62,-2.63 3.35,0.05 5.42,-3.4 4.68,-3.69 0.08,-0.17 0.19,-0.34 0.29,-0.51 -0.21,0 -0.39,0 -0.59,0 0.2,-0.26 0.38,-0.48 0.59,-0.71 -0.31,0.01 -0.64,0.04 -0.96,0.04 0.22,-0.23 0.44,-0.46 0.67,-0.69 -0.43,0.03 -0.84,0.08 -1.25,0.12 0.25,-0.31 0.51,-0.64 0.77,-0.96 -0.93,-0.69 -0.89,-0.97 -1.69,-0.13 0.57,2.45 0.62,3.55 -2.21,3.55 -0.34,0.31 -0.67,0.61 -1.01,0.9 -0.24,-0.22 -0.47,-0.44 -0.73,-0.65 0.06,-0.3 0.12,-0.6 0.18,-0.89 -0.36,0 -0.72,0 -1.08,0 -1.44,-0.87 -0.64,-1.96 0.67,-2.34 -1.43,-0.65 -1.6,-0.53 -2.05,-2.06 -0.16,0.27 -0.35,0.51 -0.53,0.77 -0.84,-0.41 -2.28,-1.78 -1.37,-2.77 -1.34,-1.34 -1.68,-3.01 1.18,-3.16 0.14,-1.1 2.22,-2.58 3.06,-3.37 -0.62,-1.62 -0.08,-2.14 1.62,-2.14 1.41,-1.67 2.24,-2.79 4.11,-4.01 1.07,-0.71 3.26,1.05 3.26,1.05 1.38,0.33 2.75,0.66 4.14,1.01 z m 1.1,15.14 c -0.63,1.66 -1.26,3.32 -2,4.92 3.93,1.42 3.01,-3 2,-4.92 z m -2.47,4.6 c 0.32,-0.98 0.61,-1.92 0.92,-2.85 -0.9,0.98 -1.27,1.42 -2.15,2.29 0.23,0.27 0.82,0.97 1.23,0.56 z m 19.13,-10.19 c -0.01,0.22 -0.03,0.45 -0.05,0.67 0,0 0.19,2.2 0.78,2.78 0.24,0.23 1.25,0.08 2.39,-0.19 -0.07,-0.68 -0.32,-1.57 -1.04,-2 -0.58,-0.34 -1.39,-0.84 -2.08,-1.26 z m 7.16,3.19 c 0.08,0.4 0.16,0.87 0.16,1.3 0,3.35 1.97,-0.48 2.28,-0.87 -0.82,-1.15 -1.41,-1.34 -2.44,-0.43 v 0"
       style="fill:#25732f;fill-opacity:1;fill-rule:evenodd;stroke:none"
       transform="matrix(0.13333333,0,0,-0.13333333,0,869.29333)" />
    <path
       id="path176"
       d="m 5076.24,2287.55 c 0,0 10.67,-0.17 14.32,0.44 2.82,0.48 11.8,1.98 15.65,2.62 0.57,0.5 1.06,1.07 1.45,1.77 1.95,3.63 -0.04,10.1 -0.32,12.67 -0.3,2.57 -0.92,20.78 -0.92,29.16 0,8.38 -0.44,10.32 -0.44,12.76 0,2.43 -3.42,7.27 -3.42,7.27 0.15,-0.06 0.29,-0.12 0.43,-0.19 -0.39,0.51 -0.79,1.03 -1.17,1.58 0.11,-0.45 0.16,-0.77 0.16,-0.77 0,0 -4.64,7.13 -6.64,8.42 -6.56,4.34 -15.03,6.64 -22.52,8.91 -2.03,0.61 -6.64,0.4 -8.86,0.4 -2.21,0 -8.86,-2.27 -10.32,-2.27 -1.46,0 -4.66,-1.33 -10.46,-1.33 -5.8,0 -8.86,0.58 -8.86,0.58 0,0.31 0,0.57 0,0.84 2.7,0.05 5.36,0.05 8.02,0.05 0.15,-0.02 0.3,-0.04 0.44,-0.05 l 5.01,1.03 3.22,1.12 -3.71,2.2 c 0,0 -4.29,-0.81 -7.49,-0.81 -3.14,0 -10.37,0.18 -10.37,0.18 l 0.67,0.94 c 0,0 5.67,-0.27 8.46,-0.05 2.8,0.22 7.09,1.07 7.09,1.07 0,0 1.47,1.77 -2.56,2.43 -4,0.58 -7.18,2.7 -8.65,3.5 -1.5,0.84 -2.97,3.23 -2.97,3.23 v 0.72 c 0,0 2.52,-2.28 4.65,-3.89 1.34,-0.45 3.14,-1.01 4.7,-1.35 2.97,-0.7 5.32,-1.01 5.85,-2.03 0.18,-0.33 0.66,-0.81 1.28,-1.32 1.69,-1.27 4.93,-3.77 6.43,-3.51 0.9,0.13 1.39,0.17 1.59,0.13 l 2.37,0.88 c -1.14,0.89 -5.78,4.55 -7.06,5.37 -1.47,0.93 -11.52,3.23 -13.47,4.65 -1.12,0.78 -3.27,3.21 -5.04,5.3 -0.96,-0.47 -1.61,-0.82 -1.61,-0.82 -0.22,0.27 -0.49,0.53 -0.75,0.75 0,0 0.74,0.31 1.8,0.74 -1.18,1.42 -2.1,2.56 -2.24,2.72 0.58,-0.18 1.11,-0.31 1.63,-0.45 0.61,-0.6 1.17,-1.21 1.73,-1.81 2.06,0.84 4.59,1.85 5.41,2.13 0.95,0.34 2.31,0.45 3.47,0.92 -4.29,0.89 -8.78,1.02 -11.89,4.35 l 0.49,1.15 c 2.59,-3.53 8.46,-4.24 12.73,-4.65 0.08,0.09 0.17,0.2 0.25,0.31 1.15,1.64 3.02,2.97 3.5,4.96 0.37,1.45 0.84,3.75 1.07,4.84 -0.82,0.03 -1.71,0.16 -2.56,0.32 -2.63,0.32 -5.97,0.83 -7.46,1.49 -2.62,1.1 -8.15,4.83 -8.15,4.83 0.22,0.22 0.44,0.48 0.66,0.71 0,0 6.74,-3.86 7.27,-4.04 0.48,-0.17 1.77,-0.44 5.18,-0.7 6.46,-0.44 10.69,-1.4 15.96,-3.83 -0.38,0.88 -0.8,1.65 -1.28,2.36 -3.74,3.66 -7.14,5.86 -11.97,8.33 -5.37,-1.59 -9.52,-2.35 -15.16,-1.06 0.09,0.23 0.14,0.49 0.18,0.75 4.78,-1.64 9.09,-0.61 13.42,1.64 -3.14,3.63 -8.33,2 -12.45,1.16 0.14,0.26 0.22,0.57 0.31,0.88 1.16,0.23 2.31,0.49 3.46,0.76 -1.24,1.41 -2.48,2.88 -3.77,4.34 0.14,0.49 0.26,0.98 0.4,1.42 1.55,-1.78 3.06,-3.55 4.56,-5.32 1.25,0 2.49,0 3.68,0 -1.55,3.36 -4.29,5.93 -6.86,8.55 0.09,0.26 0.17,0.54 0.21,0.84 3.12,-2.1 6.14,-4.38 7.69,-7.75 0.8,-0.97 1.85,-2.02 3.04,-2.71 1.24,-0.7 2.39,-1.26 3.46,-1.75 2.83,-0.96 4.95,-1.97 6.69,-3.14 1.64,-1.04 3.22,-2.45 4.87,-4.71 1.34,-1.74 2.67,-3.78 4.35,-6.26 0.79,-0.26 1.54,-0.49 2.31,-0.71 0,0 -2.41,5.41 -3.11,7.8 -0.16,0.49 -0.25,0.89 -0.36,1.23 l -0.63,1.31 c -0.49,0.59 -1.37,1.12 -3.31,2.02 -1.02,0.49 -7.09,3.28 -11.38,8.73 0.47,-0.39 0.93,-0.78 1.38,-1.16 -0.59,0.59 -1.22,1.22 -1.87,1.92 -2.18,2.3 -2.9,3.96 -3.13,4.91 -3.14,1.15 -4.08,3.02 -8.22,6.39 l 0.53,0.79 c 2.52,-2.62 4.74,-4.39 7.43,-5.6 -0.01,0.02 -0.02,0.05 -0.03,0.06 2.11,-0.78 3.56,-1.12 4.9,-1.19 -2.16,5.64 -4.18,11.05 -10.35,13.43 l 1.06,0.48 c 6.81,-3.71 7.85,-6.58 10.71,-13.91 1.02,0.08 2.07,0.3 3.4,0.54 l -3.55,11.52 0.08,-0.03 c -3.57,1.17 -7.05,2.57 -10.28,4.99 0.53,0.22 1.06,0.44 1.55,0.71 2.62,-0.89 5.23,-1.82 7.84,-2.75 -1.24,3.05 -2.48,6.16 -3.76,9.26 0.22,0.31 0.44,0.67 0.67,1.07 1.79,-3.69 3.55,-7.41 5.32,-11.07 1.77,-0.31 3.54,-0.62 5.29,-0.93 1.07,-0.17 2.12,-0.33 3.17,-0.5 -4.48,5.01 -9.4,9.53 -11.93,15.91 0.4,0.04 0.76,0.08 1.12,0.17 2.25,-1.95 3.45,-4.61 6.11,-6.69 0.41,2.49 0.79,4.98 1.16,7.51 -1.69,0.6 -3.23,1.16 -4.31,1.62 -0.86,0.36 -1.6,0.78 -2.21,1.24 -2.31,1.78 -3.88,3.32 -3.52,3.08 3.34,-2.22 6.14,-2.62 7.64,-2.81 0.46,-0.06 1.17,-0.25 2.05,-0.5 -1.73,2.71 -0.36,4.26 -4.44,10.29 0.31,0.09 0.57,0.18 0.84,0.27 2.21,-3.2 3.94,-6.34 4.87,-10.2 0.95,-0.6 1.88,-1.15 2.79,-1.71 3.1,-1.09 6.42,-2.36 7.95,-2.96 l 0.64,0.32 c -0.08,0.23 -0.18,0.47 -0.29,0.7 -1.3,1.51 -4.64,5.48 -5.82,7.51 -1.5,2.48 -4.47,9.13 -4.47,9.13 l 0.25,-0.26 c -0.05,0.16 -0.1,0.32 -0.16,0.48 l 1.81,-0.22 c 3.41,-8.2 9.62,-13.74 14.14,-20.08 0,0 7,-4.56 8.81,-5.89 0.17,-0.12 0.35,-0.28 0.57,-0.47 l -0.04,0.44 c -5.41,4.05 -12,8.15 -12,15.94 -1.46,4.74 -3.14,6.11 -5.4,8.73 -2.27,2.61 -3.95,8.51 -3.95,8.51 0.41,0.17 0.76,0.35 1.1,0.52 1.7,-3.36 1.29,-7 5.28,-9.03 2.18,3.72 2.76,5.54 2.3,9.83 0.23,0.14 0.46,0.27 0.67,0.41 2.35,-3.69 0.4,-7.9 -1.24,-11.53 4.07,-6.98 1.1,-11.77 9.98,-19.52 l 0.71,-0.11 c -0.17,1.04 -0.52,2.95 -0.76,3.99 -0.31,1.55 -2.49,7.4 -3.59,10.06 -1.07,2.66 -1.07,6.61 -0.85,9.17 0.22,2.57 1.51,7.36 1.51,7.36 l 0.05,-0.02 c -0.95,1.11 -1.8,2.19 -2.44,3.25 -1.1,3.15 -2.92,6.83 -2.92,6.83 0.35,0.04 0.7,0.13 1.05,0.22 0,0 0.06,-0.11 0.15,-0.3 0.46,-0.28 1.24,-0.86 1.54,-1.65 0.8,-2.31 2.88,-5.19 4.35,-7.23 1.54,3.2 2.43,9.13 3.14,15.03 l 0.67,-0.71 c 0,0 -0.23,-4.21 -0.76,-7.8 -0.53,-3.55 -1.81,-7.85 -1.81,-7.85 l 5.84,-7.14 c 0.06,3.22 0.19,9.61 0.19,11.58 0,2.62 -1.78,10.55 -1.78,10.55 0.64,-0.5 0.76,-0.3 1.81,-0.89 0,0 1.78,-8.51 2.18,-11.04 0.16,-1.01 0.23,-3.48 0.27,-6.27 l 5.88,8.85 -0.17,-0.43 0.49,0.75 c 0.07,0.88 0.15,1.76 0.22,2.6 l -0.03,0.47 c -2.77,1.91 -3.85,4.25 -6.36,8.48 0,0.4 0,0.8 0,1.2 1.7,-2.77 3.65,-6.05 6.28,-8.23 -0.25,5 -0.15,9.59 2.06,14.39 0.52,-1.97 -0.28,-10.31 -0.64,-15.4 0.68,-0.42 1.41,-0.76 2.18,-1 0.54,5.59 2.22,10.99 1.87,16.62 0,0 1.33,-1.29 1.33,-2.26 0,-1.02 -0.89,-7.5 -0.89,-7.5 3.11,3.06 4.97,6.39 6.96,10.34 0.27,0 0.53,0 0.8,0 -1.2,-4.31 -7.54,-12.45 -7.76,-13.61 -0.18,-0.8 -1.1,-5.67 0.58,-8.02 1.55,-3.55 4.65,-1.59 6.82,0 -0.66,-0.93 -1.33,-1.86 -1.99,-2.75 0.62,-2.13 5.58,5.05 5.98,5.59 -1.51,-2.93 -3.01,-5.41 -5.63,-7.54 -0.91,-4.61 -1.82,-8.95 -2.96,-13.56 1.78,1.34 3.35,2.71 5.19,3.79 1.83,1.54 3.66,3.09 5.49,4.63 0.09,2.79 -0.17,7.05 -0.84,10.06 -0.19,0.93 -2.88,12.1 -3.11,14.58 -0.17,2.48 0.89,8.99 0.89,8.99 0.4,-0.22 0.75,-0.43 1.11,-0.66 0,-4.47 -0.23,-9.08 0.66,-13.47 3.99,1.42 4.38,10.05 4.87,13.56 0.31,0.27 0.63,0.53 0.89,0.8 -0.35,-5.72 -0.8,-12.9 -5.01,-17.19 2.56,-5.63 2.61,-8.31 3.19,-14.59 0.81,0.79 9.68,8.32 8.96,9.27 0,0 0.08,2.48 -0.45,3.72 -3.54,5.09 -7.67,10.94 -3.18,17.99 0.21,-0.23 0.42,-0.44 0.66,-0.66 -1.25,-4.84 -1.64,-8.73 1.85,-12.68 4.26,4.21 8.6,6.56 7.41,12.9 0.35,-0.09 0.7,-0.18 1.1,-0.22 -0.35,-6.57 -1.9,-8.02 -6.65,-13.12 0.47,-2.2 0.94,-4.37 1.41,-6.53 2.1,1.33 4.2,2.67 6.31,4.05 -0.08,0.98 -0.14,1.78 -0.14,2.26 0,2.52 4.57,12.5 4.57,12.5 0.14,-0.36 0.26,-0.72 0.44,-1.07 -1.42,-3.8 -3.02,-7.63 -3.02,-11.7 4.4,2.52 6.17,6.47 8.24,10.76 0.24,-0.21 0.45,-0.44 0.73,-0.66 -2.41,-4.82 -4.66,-8.02 -8.78,-11.51 0,-3.64 0.08,-7.18 0.53,-10.77 -0.49,-0.67 -0.93,-1.25 -1.38,-1.87 0,0.37 -0.63,5.86 -1.02,10.04 -3.35,-2.48 -6.03,-3.81 -6.33,-5.91 -0.28,-2.07 0.35,-5.53 0.46,-10.36 1.38,1.03 6.18,4.69 8.49,7.25 1.81,2.1 5.08,6.37 6.97,8.88 0.39,3.66 1.38,3.04 1.36,4.59 -0.03,2.35 4.61,8.24 4.61,8.24 l 0.22,-0.7 c 0,0 -2.93,-4.88 -3.55,-6.61 -0.51,-1.28 -0.94,-2.95 -1.1,-3.67 l 0.63,-0.66 c 2.16,-0.73 10,5.37 11.68,6.55 0.23,-0.27 0.45,-0.53 0.72,-0.8 -3.42,-2.79 -7.58,-7.08 -12.19,-7.54 -2.84,-4.38 -6.73,-11.25 -10.95,-14.35 -2.66,-1.99 -6.86,-5.45 -6.86,-5.45 -2.25,-4.49 -1.8,-9.83 -3.91,-14.4 1.59,0.02 3.18,-0.34 4.8,-0.33 0.46,1.62 3.72,13.17 5.05,15.97 7.71,9.26 12.03,9.85 16.29,12.47 -0.06,0.07 -0.11,0.14 -0.17,0.21 0,0 5.32,5.18 6.69,7.67 1.38,2.56 5.01,5.39 5.01,5.39 0.09,-0.3 0.17,-0.57 0.32,-0.84 0,0 -4.7,-5.8 -5.54,-6.91 -0.84,-0.98 0,0 1.94,0 1.95,0 9.09,3.54 9.09,3.54 0.18,-0.17 0.35,-0.34 0.53,-0.52 0,0 -3.5,-1.38 -5.36,-2.66 -1.95,-1.24 -7.18,-2.04 -7.18,-2.04 -1.31,-1.13 -2.58,-2.21 -3.85,-3.28 l 0.48,-1.59 v 0 c 6.58,1.46 11.67,2.62 16.79,7.12 0.19,-0.3 0.36,-0.61 0.54,-0.87 0,0 -5.05,-4.17 -6.6,-5.01 -1.21,-0.66 -9.2,-2.07 -11.99,-2.54 -1.26,-1.27 -2.48,-2.58 -3.71,-3.85 -0.84,-3.01 -1.68,-5.94 -2.52,-8.91 -0.88,-0.21 -1.78,-0.44 -2.66,-0.66 0.44,2.48 0.88,5.01 1.33,7.54 0,0 -4.39,-3.24 -5.23,-4.7 -0.37,-0.65 -1.51,-3.69 -2.7,-6.9 1.62,1.09 3.28,2.19 4.92,3.31 0.41,-0.56 4,1.2 4.77,1.5 1.05,1.93 2.59,4.82 3.07,5.9 0.89,2.08 6.87,4.52 9.53,5.1 -2.93,-2.09 -7.18,-3.82 -8.95,-7.05 0,0 5.53,0.89 6.07,0.89 0.57,0 4.87,3.49 7,5 2.04,1.46 8.94,6.25 8.94,6.25 0.37,0 0.73,0 1.12,0 -2.62,-2.09 -12.76,-8.37 -13.6,-11.03 1.46,-2.44 10.24,1.42 13.16,2.03 0,0 -5.23,-2.69 -7.53,-3.58 -6.17,-2.27 -15.03,3.14 -18.35,-5.36 -0.75,-2.48 -1.46,-4.88 -2.18,-7.32 2.6,1.03 2.27,0.94 4.38,1.72 3.16,1.62 4.23,2.36 7.37,4.13 -2.86,-2.21 -5.26,-3.94 -7.53,-6.73 0,0 -2.52,-1.56 -4.97,-3.03 l -1.36,-9.08 c 0.67,0.28 1.31,0.45 1.99,0.64 5,13.28 10.41,18.39 22.35,21.55 1.47,1.88 2.71,3.99 4.06,5.96 0.48,-0.05 0.97,-0.09 1.46,-0.09 -0.57,-0.93 -2.4,-3.16 -3.94,-5.47 1.91,-0.41 2.4,-0.33 -0.83,-1.29 -1.39,-2.29 -2.2,-4.43 -0.91,-5.2 5.14,3.32 10.33,6.64 15.51,10.01 0.23,0 0.49,0 0.76,0 0,0 -15.47,-10.99 -17.02,-13.16 -1.4,-2 -3.25,-7.86 -3.62,-9.02 1.99,0.65 4.92,1.7 6.41,2.64 1.56,1.02 3.21,2.74 4.15,3.8 0.57,0.88 1.16,1.86 1.79,3.03 1.15,2.12 10.42,11.82 10.42,11.82 0.13,-0.35 0.25,-0.7 0.43,-1.06 -2.7,-3.19 -5.4,-6.33 -8.11,-9.49 4.97,0.49 7.89,1.25 12.33,3.37 -0.58,-0.61 -1.15,-1.28 -1.68,-1.94 -3.68,-1.06 -7.33,-2.18 -10.96,-3.24 -2.39,-4.91 -9.82,-10.49 -15.25,-11.35 l -1.66,-8.49 c 3.2,2.57 7.87,6.5 9.65,7.98 0.97,1 1.6,1.67 1.6,1.67 -2.93,-3.73 -5.62,-7.38 -9.16,-10.56 l 0.35,-8.46 c 0.62,0.48 1.53,1.5 2.28,3.6 1.34,3.72 8.48,9.57 8.48,9.57 0,0 -0.66,4.25 1.58,7.31 2.27,3.06 8.3,8.06 8.3,8.06 0.17,-0.56 0.04,-1 0.04,-1.59 -3.85,-4.02 -8.56,-7.51 -7.32,-13.8 0.97,0.56 7.81,4.49 9.49,6.71 3.11,3.99 5.14,10.69 7,15.51 0.27,-0.44 0.58,-0.89 0.89,-1.28 -0.76,-2.31 -1.5,-4.61 -2.21,-6.88 2.66,-3.54 5.32,-2.07 8.41,-0.12 0.05,-0.28 0.09,-0.54 0.19,-0.8 -3.99,-3.51 -4.97,-3.64 -9.14,-0.81 -3.85,-7.84 -4.96,-8.85 -13.64,-14.04 -1.03,-2.26 -2.01,-4.52 -2.97,-6.77 4.95,1.49 7.29,2.99 10.45,6.18 3.77,4.39 9.98,11.27 9.98,11.27 l -0.72,-1.82 c 0,0 -4.17,-5.55 -7.48,-9.75 7.31,3.02 10.51,6.42 15.86,12.54 0.18,-0.12 0.35,-0.21 0.58,-0.31 -5.15,-6.64 -9.62,-11.52 -17.82,-13.96 l 0.02,0.04 c -1.06,-1.3 -7.8,-6.22 -7.68,-6.2 -0.2,-2.38 -0.47,-4.78 -0.31,-7.18 0,0 2.65,2.36 8.55,4.39 4.44,1.57 10.16,6.04 12.72,8.14 0.6,0.69 1.2,1.36 1.77,2.02 0.36,3.58 1.68,6.42 4.3,8.9 0.08,-0.4 0.22,-0.8 0.35,-1.15 -2.48,-2.88 -2.93,-4.57 -3.32,-8.2 1.82,0.53 3.67,1.11 5.54,1.68 -0.09,-0.3 -0.19,-0.62 -0.23,-0.93 -2.07,-0.62 -4.16,-1.24 -6.25,-1.85 0,0 -3.32,-3.81 -5.22,-5.68 -4.52,-4.47 -15.69,-6.09 -18.88,-11.64 -0.8,-1.49 -7.52,-12.87 -3.28,-11.67 7.5,2.37 13.05,9.82 17.9,15.51 1.47,2.13 2.92,4.3 4.39,6.47 -0.34,-3.01 -2.97,-5.18 -4.03,-7.87 1.18,0.06 5.92,0.35 7.05,1.09 0.53,0.37 0.92,0.82 1.27,1.32 0.2,0.38 0.43,0.79 0.68,1.22 1.18,2.37 2.25,5.5 7.93,7.83 0,-0.15 -0.09,-0.33 -0.25,-0.51 l -0.06,-1.2 0.04,0.03 -0.04,-0.03 -0.01,-0.2 -1.06,-0.86 c -1.97,-1.99 -3.77,-4.28 -5,-7.47 1.99,1.29 3.98,2.62 5.98,3.94 -4.16,-4.43 -6.78,-6.16 -12.82,-7.17 -1.53,-0.14 -3.06,-0.27 -4.61,-0.38 l -0.03,-0.11 c -3.82,-4.88 -6.9,-8.36 -11.43,-12.36 -2.81,-2.78 10.72,1.41 12.19,2.02 10.51,5.22 12.56,7.68 20.29,17.21 v -1.42 c -2.04,-3.34 -2.09,-3.07 -6.44,-9.17 l 8.96,1.64 0.4,-1.29 c 0,0 -5.62,-2.39 -7.39,-3 -7.14,-2.68 -7.83,-10.99 -9.47,-17.64 1.3,0.08 2.68,0.79 2.68,0.79 0,0 2.43,2.18 4.56,2.97 4.01,1.33 5.47,2.02 7.44,5.51 l 3.95,7.91 0.19,-0.55 0.17,0.29 c -0.48,-3.01 -1.53,-5.67 -2.81,-9.41 l 6.32,2.18 -1.29,-3.17 c -0.04,-0.15 -0.09,-0.3 -0.14,-0.46 0,0 -2.44,-1.33 -4.47,-2.43 -2,-1.15 -7.8,-3.86 -8.56,-4.57 -0.75,-0.75 -3.32,-2.88 -5.9,-3.94 -1.73,-0.68 -1.9,-1.32 -1.81,-1.68 0.76,-0.23 1.79,-0.5 2.93,-0.72 1.82,-0.22 10.6,-0.44 14.9,-0.53 0.62,0.02 1.24,0.04 1.85,0.04 -0.01,-0.02 -0.03,-0.05 -0.05,-0.07 l 0.58,-0.02 -0.63,-0.04 c -1.61,-1.66 -16.81,-1.46 -19.4,-1.46 -5.44,0 -10.73,-2.75 -15.33,-5.63 6.22,-4.36 20.13,-3.39 33.27,-3.28 0,0 -0.23,-0.02 -0.64,-0.06 1.66,0.06 2.69,0.11 2.69,0.11 -0.18,-1.64 -27.93,-2 -30.41,-1.29 -3.04,0.93 -7.58,2.66 -7.58,2.66 0,0 -3.45,-3.23 -7.48,-3.23 -4.04,0 -12.58,0.35 -18.71,-1.16 -6.42,-1.5 -10.13,-3.59 -14.22,-8.5 1.19,0.1 2.37,0.21 3.54,0.3 0.29,0.05 0.59,0.1 0.86,0.14 1.17,0.13 3.44,0.15 5.83,0.12 3,0.3 8.72,0.77 10.07,0.06 1.86,-0.93 1.64,-1.82 3.36,-2.53 1.47,-0.62 6.19,-2 7.8,-2.46 1.67,-0.31 3.04,-0.54 3.49,-0.61 1.43,0.91 3.77,2.36 5.82,3.52 4.29,2.5 7.83,2.27 12.48,2.12 0.21,0.23 1.4,1.5 4.72,3.01 3.68,1.64 10.1,0.71 10.1,0.71 l -0.09,-0.88 c -5.52,0.51 -8.6,0.74 -13.11,-3.1 l 4.65,-2.09 -1.37,-0.7 c 0,0 -2.72,1.68 -5.55,1.9 -2.79,0.18 -4.07,-0.31 -6.02,-0.97 -0.64,-0.23 -1.79,-0.89 -3.07,-1.7 2.47,-0.93 8.52,-3.23 9.37,-3.63 1.05,-0.52 1.99,-1.06 3.71,-0.83 3.08,0.39 4.76,0.5 6.3,1.32 1.04,0.56 2,1.7 3.45,2.53 1.83,1.05 5.72,0.4 5.72,0.4 l 0.66,-0.48 c -5.77,-0.31 -5.09,-0.64 -8.32,-3.73 -0.88,-0.84 -5.2,-1.46 -5.2,-1.46 l 7.41,-5.37 -0.67,-0.8 -7.89,5.46 c 0,0 -2.3,-0.18 -4.16,0.57 -1.85,0.76 -4.96,2.09 -7.18,2.84 -1.9,0.68 -4.81,1.38 -5.69,1.59 -5.3,-3.55 -1.46,-5.56 3.25,-7.61 0,0 5.71,0.7 6.74,-0.32 1.03,-1.01 4.21,-2.92 4.21,-2.92 -7.11,0 4.96,-4.36 6.25,-5 -0.22,-0.04 -1.11,-0.02 -0.57,-0.23 -0.32,-0.09 -0.62,-0.22 -0.93,-0.35 -2.71,1.19 -5.41,2.39 -8.12,3.5 1.1,5.14 -7.22,2.39 -9.39,3.5 -2,1.02 -6.21,5.27 -11.48,6.91 -5.27,1.55 -4.75,-0.08 -10.28,2.43 -5.58,2.54 -23.04,-1.1 -23.04,-1.1 -4.25,-1.81 -14.8,-16.11 -18.46,-20.4 l -0.02,-0.38 c 0.04,-12.1 0.45,-37.89 3.23,-49.37 0.11,-0.21 0.36,-0.42 0.72,-0.65 2.6,0.03 5.29,-0.09 8.1,-1.3 5.06,-2.17 11.04,-1.37 19.59,-2.44 8.55,-1.1 9.83,-2.79 9.83,-2.79 0,0 -8.46,-2.35 -16.44,-1.94 -7.98,0.4 -13.81,0.21 -13.81,0.21 l 3.71,-4.21 c 0,0 -15.41,0.54 -21.35,1.69 -5.94,1.1 -9.62,-0.98 -18.3,0.27 -8.69,1.2 -17.2,6.07 -17.2,6.07 z m 74.93,194.92 -0.64,-0.51 1.04,0.58 z m 6.84,-34.44 c -0.67,-0.08 -1.76,-0.21 -3.07,-0.39 -1.33,-3.58 -1.89,-6.71 -2.44,-10.54 1.39,0.29 2.77,0.38 3.96,1.18 z m 7.39,20.47 c -6.33,-2.12 -10.17,-4.91 -14.72,-10.88 2.17,0.62 4.34,1.2 6.57,1.86 -0.14,-0.35 -0.28,-0.71 -0.36,-1.01 0,0 -6.34,-1.56 -6.91,-2.49 -0.59,-0.81 -2.6,-5.92 -2.89,-6.68 l 0.1,0.04 0.88,0.12 -0.06,-0.02 10.82,1.46 c 1.37,3.1 2.77,6.27 4.18,9.47 1.03,3.1 0.94,5.54 2.39,8.13 z m -12.43,-21.16 c -3.15,-0.54 -6.7,-1.36 -8.31,-2.53 -3.16,-2.3 -2.92,-3.01 -2.92,-3.01 -0.36,-3.45 -0.67,-6.9 -0.98,-10.31 3.3,0.78 6.37,2.47 9.26,4.19 0.82,4.46 1.39,7.56 2.95,11.66 z m -17.77,15.15 c -0.95,-2.63 -1.79,-4.98 -2.08,-5.8 2.37,0.32 4.67,0.95 6.92,1.77 0.83,2.97 1.66,5.93 2.49,8.95 -0.08,0.23 -0.09,0.06 -0.95,-0.12 -0.02,-0.06 -0.06,-0.09 -0.15,-0.09 -0.41,0 -4.03,-2.91 -6.23,-4.71 z m 4.12,-8 c -1.3,-0.56 -4.14,-0.85 -6.55,-0.99 0.1,-1.86 -1.14,-9.61 -1.14,-9.61 2,0.35 3.98,1.06 5.93,1.88 z m -10.24,-1.12 c -0.19,0 -0.29,0 -0.29,0 0,0 -1.45,-0.05 -3.33,-0.11 -0.25,-2.84 -1.44,-5.17 -2.3,-7.96 4.97,-15.11 5.2,-1.49 5.92,8.07 z m -32.82,37.63 c -0.05,-0.8 -0.08,-1.47 -0.08,-1.96 0,-3.11 0.25,-6.2 1.07,-8.8 0.93,-2.94 2.52,-5.38 3.79,-8.58 1.3,3.98 2.32,5.13 2.59,9.09 -2.62,2.93 -4.61,5.05 -4.79,9.05 -0.99,0.4 -1.84,0.79 -2.58,1.2 z m -1.74,-6.64 -5.89,-11.53 c -0.02,-3.15 -0.36,-6.37 1.4,-9.18 0.41,0.5 0.87,0.97 1.31,1.44 1.96,2.87 3.91,5.7 5.83,8.57 -1.82,3.82 -2.81,6.53 -2.65,10.7 z m 4.66,-14.71 c -2.48,-2.85 -4.89,-5.76 -6.24,-9.31 -1.12,-3.3 -0.74,-6.66 0.27,-12.33 0.49,-2.76 0,-7.72 0,-9.45 0,-1.68 3.07,-6.68 3.35,-7.13 -0.41,7.24 -1.42,15.45 -0.95,21.8 0.14,1.89 1.03,5.03 1.82,7.52 0.45,2.72 0.91,5.39 2.3,7.86 0,0 -0.22,0.39 -0.55,1.04 z m 14.39,-17.48 3.68,-5.35 c -0.62,-1.16 -1.24,-1.82 -2.13,-2.78 l -3.23,7.6 c 0.56,0.18 1.13,0.36 1.68,0.53 z m 5.43,-1.66 -1.58,2.54 c 0.09,0.01 0.18,0.01 0.26,0.01 0.41,0 1.18,0.01 2.13,0.04 -0.27,-0.87 -0.54,-1.73 -0.81,-2.59 z m -5.02,21.83 c -0.03,-5.22 -0.24,-10.35 0.62,-15.5 l -7.84,7.76 c 2.26,2.72 4.7,5.28 7.22,7.74 z m 0.82,-15.71 0.01,0.02 v -0.02 z m 2.86,6.39 0.05,0.14 c -0.24,3.99 -0.49,7.98 -0.78,11.97 2.84,2.62 5.77,5.17 8.68,7.75 l 0.14,0.22 0.25,-7.65 -0.63,-2.45 c -1.65,-2.14 -6.34,-8.2 -7.6,-9.84 -0.04,-0.05 -0.08,-0.09 -0.11,-0.14 z m -12.72,-0.71 c 1.12,-2.59 3.87,-4.89 5.77,-6.94 -0.33,-0.13 -0.69,-0.27 -1.07,-0.44 l -5.88,5.79 c 0.39,0.54 0.78,1.08 1.18,1.59 z m 9.79,-5.87 0.03,0.01 -0.01,-0.02 z m -7.09,-2.49 c -2.95,-1.51 -6.35,-3.59 -8.09,-4.68 0.7,3.55 0.17,5.32 2.57,9.06 2.02,3.11 4.56,-2.63 5.52,-4.38 z m 4.97,-12.81 c -0.25,1.04 -1.25,5.2 -2.02,6.5 -0.58,0.99 -1.31,2.24 -1.74,3.01 -0.2,-0.06 -0.37,-0.11 -0.53,-0.16 -1.94,-0.67 -7.84,-6.25 -7.84,-6.25 1.64,-5.28 0.89,-10.2 0.44,-15.65 1.67,0.71 2.97,1.27 4.46,2.28 2.68,3.11 4.59,7.03 7.23,10.27 z m 11.31,26.16 c -0.27,-0.54 -0.56,-1.06 -0.86,-1.58 -0.29,-0.58 -0.81,-1.4 -1.44,-2.3 -0.53,-0.83 -1.08,-1.7 -1.64,-2.65 -1.05,-1.83 -2.08,-3.84 -2.3,-4.29 1.2,0.08 2.4,0.14 3.47,0.19 1.14,3.44 1.87,7.12 2.77,10.63 z m -41.01,-14.28 c -0.3,3.3 -0.6,6.78 -0.6,7.66 0,1.72 2.49,7.18 2.49,7.18 0.12,1.28 0.26,2.57 0.34,3.94 -1.14,3.25 -3.78,6.29 -6.26,9.12 -0.27,-0.65 -1.36,-3.52 -1.36,-8.23 0,-5.46 3.64,-11.74 3.64,-11.74 z m 5.56,-9.07 c -0.77,1.49 -1.68,3.5 -1.91,5.07 -0.4,2.93 -1.85,5.99 -1.85,8.91 0,2 0.9,4.7 1.44,6.15 0.14,-2.97 2.32,-11.46 2.32,-14.52 z m -13.27,5.59 -0.11,-6.03 c -4.74,3.15 -9.12,6.84 -13.02,12.41 l 5.4,-1 c 4.13,-1.4 4.6,-2.12 7.73,-5.38 z m 3.19,-6.44 0.33,3.79 4.7,-2.63 0.21,-0.17 1.49,-1.35 c 1.79,-1.76 3.06,-3.62 4.54,-6.69 l 0.07,-0.57 c -0.11,0.28 -0.22,0.57 -0.33,0.87 -4.13,1.67 -7.74,3.29 -10.99,5.13 z m -20.53,13.81 c 2.25,-6.61 6.23,-10.72 11.95,-14.66 l -0.16,0.16 c 0.23,-0.18 0.46,-0.36 0.68,-0.52 l -0.29,0.13 c 1.63,-1.24 3.23,-2.48 4.82,-3.68 -0.82,-6.52 -1.65,-13.1 -2.52,-19.62 -0.49,0.81 -1.34,2.2 -2.14,3.49 -0.43,1.04 -0.84,2.09 -1.27,3.15 0,0 -0.71,3.02 -1.16,4.44 -1.31,4.3 -0.39,4.63 -2.96,8.43 -1.37,2.73 -3.42,5.44 -4.44,6.94 -0.12,0.2 -0.31,0.4 -0.55,0.63 l 0.25,-0.15 c -1.11,1.24 -2.27,2.53 -3.42,3.81 0.43,2.49 0.82,4.97 1.21,7.45 z m -1.47,-27.34 c 2.22,-0.49 4.44,-1.01 6.66,-1.5 l 0.01,0.34 c -0.37,3.35 -0.31,6.28 -2.35,9.12 -2.83,1.11 -5.69,1.9 -8.51,2.76 1.46,-3.55 2.57,-7.24 4.19,-10.72 z m 63.63,12.19 c -0.75,-0.84 -1.5,-1.73 -2.31,-2.62 1.2,-2.18 2.31,-4.39 3.48,-6.62 l 1.33,1.07 c -0.61,2.8 -1.59,5.44 -2.5,8.17 z m -4.34,-6.78 c -3.28,-5.1 -7.67,-9.27 -10.99,-14.32 3.45,0.79 6.65,2.26 9.69,4.01 0.53,0.38 0.99,0.7 1.3,0.92 1.55,1.15 3.1,3.18 3.1,3.18 -0.97,3.02 -1.55,3.09 -3.1,6.21 z m -31.16,-35.96 c 0.61,2.5 3.03,12.61 3.73,15.17 0.62,2.26 1.65,5.7 2.09,7.16 l 0.03,-0.07 c 0.05,0.21 0.1,0.43 0.15,0.65 l 0.04,0.11 -0.01,0.01 c 0.47,2.02 1.04,4.11 0.64,6.06 0.69,-1.56 1.67,-3.88 2.52,-6.22 0.41,-2.46 1.09,-6.83 1.09,-8.98 0,-2.32 1.77,-15.72 2.58,-21.75 l 0.23,-2.85 c -4.19,2.13 -9.68,6.19 -13.09,10.71 z m -6.37,37.59 c 2.12,-1.19 4.23,-2.4 6.35,-3.56 l 0.71,-0.41 c 0.48,-0.75 0.96,-1.44 1.4,-2.14 0,0 -1.47,-8.82 -2.18,-11.39 -0.75,-2.57 -4.12,-13.29 -3.45,-14.58 -0.67,1.03 -1.33,2.08 -2.03,3.2 l 0.09,-0.28 c -1.34,2.27 -2.69,4.52 -4.04,6.84 0,0 0.08,0.67 0.23,1.78 l 1.5,7.52 c 0.5,4.31 0.97,8.67 1.42,13.02 z m 6.92,-16.92 0.39,1.69 0.07,0.07 z m -25.92,7.21 c 1.45,-0.6 3.76,-1.71 5.25,-3.18 2.31,-2.26 7.27,-12.23 7.27,-12.23 l 6.62,-10.95 c 0.51,-1.06 1.02,-2.08 1.51,-3.03 l -5.5,1.6 -1.79,0.6 c -0.32,0.52 -1.94,3.24 -3.13,5.27 -1.34,2.22 -2.76,6.51 -2.76,6.51 0,0 0.07,-0.23 0.17,-0.62 -1.06,3.28 -2.43,7.61 -3.09,8.51 l -0.97,1.34 c -1.28,2.32 -2.35,4.25 -4.21,6.24 0.21,-0.02 0.43,-0.03 0.63,-0.06 z m -12.35,0.87 c 2.52,-0.47 4.99,-0.62 7.55,-0.64 2.99,-3.03 5.09,-5.77 6.16,-10.06 -3.81,2.05 -6.86,3.21 -9.57,5.59 -1.28,1.33 -2.48,2.86 -3.82,4.65 l -0.13,0.22 -0.04,0.02 z m 3.22,-22.69 c 1.33,-0.49 4.55,-1.7 6.59,-2.81 3.28,-1.83 6.44,-3.42 10,-4.56 1.55,-2.36 6.24,-9.36 9.05,-12.54 3.46,-3.9 6.16,-10.1 6.16,-10.1 l 0.68,-0.63 h -1.39 c -0.66,0 -6.02,0.09 -7.71,1.24 -1.51,0.98 -4.11,0.63 -5.89,0.63 -0.12,0 -0.25,-0.01 -0.39,-0.02 -1.33,1.42 -5.02,5.41 -6.39,6.89 -1.73,1.72 -2.3,3.59 -6.02,6.2 -3.69,2.52 -9.22,5.09 -9.22,5.09 l -0.76,-1.06 c 0,0 5.18,-2.35 8.6,-4.61 2.83,-1.9 9.69,-10.17 11.81,-12.78 -1.8,-0.31 -3.75,-0.78 -3.75,-0.78 0,0 -5.32,4.21 -8.28,5.72 -2.97,1.42 -9.48,3.02 -12.06,4.08 -0.98,0.41 -2.28,1.15 -3.5,1.9 -1.32,1.16 -2.47,2.45 -3.66,3.77 1.86,0.85 4.31,1.82 6.1,1.99 6.38,0.6 8.72,7.07 10.03,12.38 z m 1.02,-32.51 0.02,0.02 -0.13,0.09 z m 38.09,1.74 0.09,-0.13 2.45,-2.53 c 0.1,-0.07 0.21,-0.13 0.31,-0.2 6.63,-0.74 7.72,-2.86 11.47,-8.31 l 2.12,-2.65 -0.84,3.72 c 0,0 0.09,-0.19 0.25,-0.49 -0.37,1.45 -0.7,2.9 -1,4.37 -0.54,1.92 -2.21,7.55 -3.68,8.75 -1.82,1.46 -11.12,7.75 -13.65,10.37 -2.52,2.56 -1.9,3.23 -4.83,4.29 -2.96,1.16 -5.71,1.38 -5.71,1.38 0,0 4.52,-6.3 6.56,-8.6 1.87,-2.12 5.97,-9.14 6.46,-9.97 z m 61.98,35.87 c 0.86,4.42 1.84,9.38 4.05,13.37 0.13,0.22 1.27,2.37 1.25,2.34 0.43,1.2 0.91,2.66 1.36,3.91 -9.51,-7.76 -10.02,-17.24 -18.01,-26.09 -0.15,-1.77 -0.25,-2.9 -0.25,-2.9 0,0 0.54,-0.93 1.6,-0.67 1.07,0.23 4.03,3.86 5.9,6.03 1.27,1.53 2.93,2.38 4.1,4.01 z m 20.69,30.91 c -1.51,-1.39 -4.27,-4 -4.59,-4.96 -0.49,-1.37 -2.35,-5.76 -2.35,-5.76 -4.92,-4.83 -7.17,-7.18 -8.28,-14 4.65,5.17 8.36,9 11.94,15.18 l -0.02,0.01 0.58,1.38 0.26,0.7 0.04,-0.03 3.64,8.55 z m -23.03,-10.24 c -0.27,-1.05 -0.72,-2.86 -0.79,-3.9 -0.09,-1.59 -3.27,-8.64 -3.27,-8.64 0.04,0.05 0.09,0.09 0.13,0.14 -0.74,-1.41 -1.38,-2.61 -1.7,-3.2 -0.89,-1.02 -1.77,-2.06 -2.65,-3.08 0.49,5.4 1.05,10.89 1.33,11.78 0.54,1.76 0.89,3.67 3.59,5.09 1.2,0.64 2.32,1.23 3.36,1.81 z m 9.41,0.97 c -2.31,-1.54 -4.62,-3.05 -6.92,-4.59 0.24,1.84 0.5,3.66 0.77,5.47 2.45,1.46 4.6,2.9 6.84,4.68 -0.16,-1.79 -0.51,-3.73 -0.69,-5.56 z m -42.5,-60.95 c 1.77,2.47 3.53,4.94 5.28,7.4 1.61,2.52 3.02,4.96 4.31,7.65 0.69,2.26 1.84,7.01 3.97,8.73 1.81,1.41 4.02,3.14 4.7,5.46 v 2.92 c -0.68,2.44 -2.92,5.45 -3.9,7.4 -0.98,1.91 -4.17,9.52 -4.17,9.52 0,0 -0.05,-5.54 -0.4,-7.7 -1.66,-9.09 -12.11,-24.46 -15,-29.72 2.41,-3.71 4.25,-8.82 3.53,-13.31 0.56,0.57 1.13,1.11 1.68,1.65 z m 1,35.45 c 2.3,5.85 2.08,5.49 2.81,8.27 0.49,2.15 0.42,6.07 0.35,7.95 -0.66,-0.46 -9.49,-6.52 -10.95,-8.35 -5.13,-6.46 -3.19,-16 -1.18,-23.3 3.22,5.12 6.42,10.04 8.97,15.43 z m 16.09,10.8 c 0.14,-0.24 0.26,-0.44 0.37,-0.58 0.36,-0.49 0.68,-0.86 0.94,-1.18 0.2,8.05 1.56,16.36 1.8,24.41 -4.45,-2.61 -8.34,-7.34 -7.04,-12.73 0.24,-0.99 3.46,-8.8 3.93,-9.92 z m 7.89,14.5 v -0.14 l 0.08,0.01 z m 32.27,-4.39 c -2.83,-7.34 -5.89,-14.37 -7.88,-21.98 -4.91,-3.59 -14.09,-9.21 -16.14,-14.68 -0.4,-1.09 -1.31,-1.68 -1.86,-2.75 -0.94,-1.81 -2.88,-6.24 -2.88,-6.24 0,0 -2.39,-1.69 -4.83,-3.72 -1.5,-1.28 -4.96,-5.39 -7.36,-8.3 -2.51,-2.72 -5.03,-5.45 -7.54,-8.14 -1.19,-1.02 -2.45,-1.95 -3.89,-2.79 2.3,6.29 3.9,11.65 8.38,16.88 0,0 6.56,10.98 10.32,14.09 9.73,8.02 17.62,17.25 25.7,27.12 3.08,4.73 5.42,9.98 8.47,14.53 -0.16,-1.36 -0.32,-2.69 -0.49,-4.02 z m 21.43,-26.73 0.03,0.14 h -0.06 c -0.07,-0.09 -0.12,-0.19 -0.17,-0.27 -4.12,0.04 -8.24,0.13 -12.36,0.18 -12.68,1.76 -17.86,0.49 -26.96,-9.4 -1.85,-1.99 -3.22,-8.95 -3.22,-8.95 4.51,1.15 8.06,1.78 12.67,1.6 3.89,-0.14 8.6,-0.06 11.62,1.09 7.98,4.7 15.5,7.45 18.45,15.61 z m 0.48,1.51 c 0.84,2.65 1.35,6.27 2.83,8.67 -5.27,-2.61 -10.27,-4.78 -15.72,-6.79 4.01,-1.85 8.58,-1.77 12.89,-1.88 v 0"
       style="fill:#25732f;fill-opacity:1;fill-rule:evenodd;stroke:none"
       transform="matrix(0.13333333,0,0,-0.13333333,0,869.29333)" />
    <path
       id="path177"
       d="m 4081.48,2234.08 c -0.26,0.05 -0.51,0.09 -0.76,0.14 -0.84,0.17 -0.13,-1.66 -0.15,-2.27 0,-1.75 1.6,-3.28 3.21,-3.71 -0.06,0.84 -0.12,1.68 -0.17,2.53 -0.26,0.09 -0.43,0.25 -0.61,0.34 -0.59,0.33 -1.04,1.69 -1.04,2.35 0,0.53 0.05,0.52 -0.48,0.62 z m 3.91,-14.26 c -2.51,0 -4.55,0.29 -4.55,0.63 0,0.3 1.57,0.55 3.65,0.6 -0.33,2.2 -0.51,4.38 -0.67,6.57 -1.57,0.59 -3.28,2.2 -3.55,3.93 -0.16,1.05 0.02,2.72 -0.99,2.84 -1.12,0.12 -2.21,0.36 -3.65,1.35 -1.75,1.19 -2.6,2.52 -3.02,4.49 0.7,-1.44 3.5,-2.13 3.31,-1.79 -1.31,2.56 -2.85,3.58 -2.9,6.7 0.27,-0.54 2.4,-2.59 2.95,-2.15 -1.58,0.17 -4.91,11.83 -2.08,7.62 1.43,-2.13 2.2,-4.05 1.32,-0.6 -0.57,2.19 -1.38,5.37 -0.73,7.46 0.19,0.6 1.82,-4.37 1.74,-4.02 -0.71,3.35 -0.17,7.07 0.17,10.14 0.22,-1.01 2.33,-8.67 1.97,-6.46 -0.69,4.3 -0.22,10.47 1.6,14.41 -0.16,-1.55 -0.21,-4.31 0.67,-5.88 0.62,-1.12 0.5,0.09 0.44,1.38 -0.03,0.99 -0.01,1.98 0.07,2.95 0.05,0.6 -0.74,3.93 -0.19,5.28 0.16,0.41 -0.06,-1.96 0.53,-2.28 0.29,-0.17 0.93,4.55 1.21,7.05 0.33,-1.79 -0.22,-6.08 1.16,-7.34 0.44,-0.4 1.01,-0.9 2.11,0.27 0.29,0.32 -1.19,-3.45 -0.5,-4.5 1.28,-1.97 3.45,2.28 3.56,3.25 -0.28,-0.16 -1.21,-8.08 -1.04,-8.87 0.54,-2.51 2.84,1.78 2.42,3.75 0.81,-1.37 0.74,-8.14 -0.58,-8.91 1.2,0.58 2.44,3.58 2.63,4.81 0.28,1.77 0.34,-1.82 0.37,-2.41 0.12,-2.8 0.25,-6.86 -1.53,-9.27 -0.13,-0.18 2.22,3.7 2.96,5.32 0.59,-2.7 -0.74,-9.38 -3.11,-10.78 0.13,-0.05 3.43,3.39 3.51,4.13 0.72,-1.23 -0.14,-5.13 -0.77,-6.62 -0.49,-1.11 -2.92,-4.04 -2.98,-4.59 0.58,0.88 2.37,2.41 3.4,2.63 -0.25,-0.14 -2.14,-4.05 -2.64,-4.8 -0.61,-0.97 -1.19,-1.41 -1.93,-1.66 -0.27,-0.09 -0.3,-0.01 -0.33,-0.3 -0.08,-1.92 -0.64,-4.42 -1.41,-5.96 -0.61,-1.23 -1.43,-2.01 -2.42,-2.32 0.24,-1.65 0.56,-3.28 1.02,-4.82 1.93,-0.07 3.35,-0.32 3.35,-0.6 0,-0.34 -2.04,-0.63 -4.55,-0.63 z m 0.11,6.64 c 1.77,-0.01 2.94,3.83 3.25,5.1 0.21,0.86 0.33,1.72 0.33,2.63 0,0.16 -0.01,0.11 -0.16,0.09 -0.21,-0.04 -0.44,-0.06 -0.68,-0.09 -0.25,-0.02 -0.18,-0.14 -0.21,-0.38 -0.15,-1.17 -0.37,-2.07 -1.21,-3.21 -0.22,-0.31 -0.69,-0.72 -1.07,-0.91 -0.14,-0.07 -0.39,-0.21 -0.58,-0.29 0.1,-1.01 0.19,-1.92 0.33,-2.94 z m 1.61,7.64 c -0.21,-0.02 -0.49,-0.12 -0.82,-0.08 -0.2,0.01 -0.33,-0.03 -0.4,-0.14 -0.2,-0.31 -0.25,-0.86 -1,-1.61 0.01,-0.07 0.02,-0.16 0.02,-0.24 0.07,-0.67 0.13,-1.35 0.2,-2.03 1.34,0.2 2.09,1.57 2.42,2.71 0.28,0.98 0.63,1.47 -0.42,1.39 z m -3.55,-2.71 c -0.05,0.79 -0.11,1.58 -0.19,2.38 -0.23,-0.01 -0.45,0.02 -0.64,0.01 -1.08,-0.04 0.1,-2.73 0.83,-2.39 z m 1.63,2.5 c -0.15,0 -0.31,-0.02 -0.46,-0.03 0.04,-0.42 0.09,-0.83 0.13,-1.25 0.32,0.33 1.23,1.37 0.33,1.28 v 0"
       style="fill:#25732f;fill-opacity:1;fill-rule:evenodd;stroke:none"
       transform="matrix(0.13333333,0,0,-0.13333333,0,869.29333)" />
    <path
       id="path178"
       d="m 4830.01,2339.62 c -0.85,0.17 -1.67,0.29 -2.45,0.45 -2.74,0.54 -0.47,-5.42 -0.48,-7.38 -0.04,-5.71 5.18,-10.7 10.43,-12.1 -0.2,2.74 -0.37,5.48 -0.57,8.25 -0.83,0.27 -1.39,0.78 -1.97,1.09 -1.91,1.05 -3.38,5.52 -3.38,7.65 0,1.74 0.15,1.71 -1.58,2.04 z m 12.74,-46.44 c -8.18,0 -14.82,0.91 -14.82,2.02 0,0.99 5.11,1.81 11.91,2 -1.08,7.15 -1.69,14.24 -2.2,21.37 -5.12,1.92 -10.71,7.17 -11.58,12.82 -0.51,3.4 0.08,8.82 -3.21,9.21 -3.62,0.42 -7.2,1.18 -11.91,4.41 -5.67,3.88 -8.45,8.22 -9.81,14.61 2.29,-4.69 11.36,-6.93 10.78,-5.81 -4.27,8.34 -9.31,11.65 -9.45,21.84 0.87,-1.77 7.81,-8.45 9.61,-7.01 -5.14,0.58 -15.96,38.54 -6.74,24.81 4.64,-6.92 7.11,-13.18 4.23,-1.96 -1.83,7.12 -4.47,17.51 -2.34,24.31 0.6,1.93 5.92,-14.27 5.67,-13.1 -2.33,10.89 -0.55,23.03 0.55,33.05 0.71,-3.31 7.58,-28.26 6.42,-21.05 -2.26,13.97 -0.7,34.1 5.22,46.93 -0.56,-5.04 -0.7,-14.02 2.15,-19.14 2.05,-3.65 1.65,0.28 1.46,4.48 -0.14,3.22 -0.03,6.43 0.24,9.61 0.15,1.94 -2.43,12.8 -0.67,17.21 0.53,1.31 -0.15,-6.41 1.74,-7.45 0.97,-0.53 3.04,14.83 3.95,22.96 1.08,-5.8 -0.7,-19.77 3.8,-23.92 1.4,-1.3 3.27,-2.92 6.85,0.91 0.97,1.03 -3.86,-11.25 -1.63,-14.67 4.17,-6.39 11.22,7.42 11.57,10.6 -0.87,-0.52 -3.9,-26.33 -3.36,-28.88 1.76,-8.2 9.27,5.76 7.89,12.19 2.63,-4.47 2.41,-26.51 -1.89,-29.05 3.89,1.92 7.95,11.68 8.57,15.69 0.91,5.77 1.14,-5.92 1.21,-7.86 0.36,-9.12 0.81,-22.32 -4.99,-30.18 -0.43,-0.58 7.22,12.07 9.65,17.33 1.89,-8.78 -2.43,-30.55 -10.14,-35.09 0.41,-0.16 11.18,11.01 11.44,13.43 2.35,-3.99 -0.47,-16.71 -2.54,-21.55 -1.56,-3.64 -9.48,-13.18 -9.68,-14.96 1.86,2.88 7.71,7.86 11.05,8.57 -0.79,-0.47 -6.95,-13.16 -8.57,-15.67 -2,-3.09 -3.88,-4.56 -6.3,-5.35 -0.87,-0.28 -0.99,-0.06 -1.04,-0.98 -0.29,-6.25 -2.13,-14.4 -4.64,-19.42 -2,-4 -4.63,-6.55 -7.84,-7.56 0.77,-5.4 1.8,-10.7 3.29,-15.71 6.3,-0.24 10.93,-1.03 10.93,-1.97 0,-1.11 -6.64,-2.02 -14.83,-2.02 z m 0.34,21.63 c 5.77,-0.04 9.6,12.46 10.61,16.6 0.69,2.81 1.1,5.61 1.1,8.55 0,0.51 -0.05,0.35 -0.56,0.28 -0.69,-0.1 -1.41,-0.19 -2.19,-0.26 -0.85,-0.09 -0.6,-0.45 -0.71,-1.26 -0.47,-3.78 -1.2,-6.75 -3.92,-10.46 -0.72,-0.99 -2.24,-2.32 -3.49,-2.95 -0.47,-0.23 -1.25,-0.66 -1.92,-0.92 0.33,-3.32 0.63,-6.28 1.08,-9.58 z m 5.26,24.86 c -0.68,-0.06 -1.6,-0.38 -2.66,-0.28 -0.68,0.07 -1.09,-0.07 -1.31,-0.43 -0.64,-0.99 -0.79,-2.82 -3.25,-5.22 0.03,-0.26 0.05,-0.54 0.08,-0.8 0.21,-2.2 0.41,-4.4 0.61,-6.63 4.37,0.63 6.82,5.14 7.91,8.86 0.92,3.16 2.06,4.78 -1.38,4.5 z m -11.54,-8.83 c -0.19,2.58 -0.39,5.16 -0.63,7.75 -0.76,0 -1.46,0.06 -2.06,0.04 -3.56,-0.13 0.31,-8.91 2.69,-7.79 z m 5.29,8.18 c -0.5,-0.06 -0.99,-0.1 -1.49,-0.14 0.15,-1.35 0.29,-2.71 0.41,-4.08 1.03,1.08 4,4.51 1.08,4.22 v 0"
       style="fill:#25732f;fill-opacity:1;fill-rule:evenodd;stroke:none"
       transform="matrix(0.13333333,0,0,-0.13333333,0,869.29333)" />
    <path
       id="path179"
       d="m 4250.57,2262.23 c -0.55,0.11 -1.07,0.18 -1.57,0.28 -1.74,0.34 -0.3,-3.46 -0.31,-4.71 -0.03,-3.64 3.31,-6.82 6.66,-7.72 -0.12,1.74 -0.23,3.51 -0.36,5.26 -0.54,0.18 -0.89,0.5 -1.26,0.71 -1.22,0.67 -2.16,3.52 -2.16,4.88 0,1.1 0.1,1.08 -1,1.3 z m 8.13,-29.64 c -5.22,0 -9.46,0.57 -9.46,1.29 0,0.62 3.26,1.15 7.6,1.26 -0.7,4.57 -1.08,9.1 -1.4,13.65 -3.27,1.23 -6.83,4.58 -7.39,8.18 -0.34,2.17 0.05,5.64 -2.05,5.88 -2.32,0.28 -4.59,0.76 -7.61,2.83 -3.62,2.47 -5.39,5.24 -6.26,9.31 1.46,-2.99 7.26,-4.42 6.89,-3.7 -2.74,5.32 -5.95,7.43 -6.04,13.94 0.56,-1.14 4.99,-5.39 6.13,-4.48 -3.28,0.36 -10.19,24.6 -4.31,15.83 2.97,-4.4 4.55,-8.4 2.71,-1.25 -1.16,4.55 -2.85,11.19 -1.49,15.52 0.39,1.24 3.78,-9.1 3.62,-8.36 -1.5,6.95 -0.36,14.7 0.35,21.1 0.45,-2.11 4.85,-18.04 4.1,-13.45 -1.45,8.93 -0.46,21.77 3.32,29.97 -0.35,-3.22 -0.45,-8.96 1.38,-12.22 1.31,-2.33 1.05,0.18 0.94,2.86 -0.09,2.05 -0.02,4.11 0.15,6.14 0.09,1.24 -1.56,8.16 -0.43,10.98 0.34,0.83 -0.1,-4.1 1.11,-4.76 0.61,-0.34 1.94,9.47 2.51,14.66 0.7,-3.71 -0.44,-12.63 2.43,-15.27 0.89,-0.83 2.09,-1.86 4.38,0.57 0.61,0.67 -2.47,-7.17 -1.04,-9.35 2.66,-4.08 7.16,4.74 7.38,6.76 -0.56,-0.32 -2.49,-16.81 -2.14,-18.43 1.12,-5.23 5.91,3.67 5.03,7.77 1.68,-2.85 1.53,-16.91 -1.2,-18.53 2.48,1.22 5.07,7.46 5.47,10.01 0.58,3.69 0.72,-3.77 0.77,-5.02 0.24,-5.82 0.52,-14.24 -3.18,-19.26 -0.28,-0.37 4.6,7.71 6.15,11.07 1.21,-5.61 -1.55,-19.5 -6.47,-22.41 0.26,-0.11 7.13,7.03 7.31,8.58 1.49,-2.55 -0.3,-10.67 -1.63,-13.76 -1,-2.32 -6.05,-8.41 -6.17,-9.54 1.18,1.83 4.92,5.01 7.05,5.47 -0.51,-0.3 -4.44,-8.41 -5.47,-10.01 -1.28,-1.97 -2.48,-2.91 -4.03,-3.41 -0.55,-0.19 -0.63,-0.04 -0.66,-0.63 -0.19,-3.99 -1.36,-9.2 -2.96,-12.4 -1.28,-2.55 -2.96,-4.17 -5.01,-4.82 0.5,-3.45 1.15,-6.83 2.11,-10.03 4.02,-0.15 6.97,-0.66 6.97,-1.25 0,-0.72 -4.23,-1.29 -9.46,-1.29 z m 0.22,13.8 c 3.68,-0.02 6.12,7.96 6.76,10.59 0.45,1.8 0.71,3.59 0.71,5.46 0,0.33 -0.04,0.24 -0.37,0.19 -0.42,-0.07 -0.89,-0.13 -1.39,-0.18 -0.54,-0.05 -0.38,-0.28 -0.45,-0.8 -0.3,-2.41 -0.76,-4.31 -2.5,-6.67 -0.47,-0.63 -1.43,-1.48 -2.24,-1.88 -0.3,-0.15 -0.79,-0.43 -1.22,-0.59 0.22,-2.12 0.41,-4.01 0.7,-6.12 z m 3.35,15.87 c -0.43,-0.03 -1.02,-0.24 -1.7,-0.17 -0.43,0.04 -0.69,-0.06 -0.84,-0.28 -0.41,-0.64 -0.5,-1.8 -2.06,-3.33 0.01,-0.18 0.03,-0.34 0.04,-0.52 0.13,-1.4 0.26,-2.82 0.4,-4.23 2.78,0.41 4.34,3.28 5.04,5.66 0.59,2.02 1.31,3.05 -0.88,2.87 z m -7.37,-5.64 c -0.11,1.64 -0.24,3.29 -0.4,4.95 -0.48,-0.01 -0.94,0.04 -1.32,0.03 -2.26,-0.08 0.21,-5.69 1.72,-4.98 z m 3.38,5.23 c -0.31,-0.04 -0.64,-0.07 -0.94,-0.1 0.08,-0.85 0.17,-1.72 0.26,-2.59 0.65,0.68 2.54,2.87 0.68,2.69 v 0"
       style="fill:#25732f;fill-opacity:1;fill-rule:evenodd;stroke:none"
       transform="matrix(0.13333333,0,0,-0.13333333,0,869.29333)" />
    <path
       id="path180"
       d="m 4899.02,2409.15 c 1.98,-2.77 4.13,-5.48 6.23,-8.18 -3.18,2.04 -6.62,4.27 -8.7,5.47 0.65,1.15 1.55,2.02 2.47,2.71 z m 1.35,-17.69 c 0.45,-1.32 1.48,-4.49 1.48,-6.35 0,-0.64 0.04,-1.44 0.12,-2.27 -0.78,0.92 -1.6,1.88 -2.18,2.56 -1.48,1.78 -3.81,5.15 -3.81,5.15 -0.98,1.11 3.02,1.02 4.39,0.91 z m 5.57,-10.86 c -0.83,3.75 -1.66,7.51 -2.49,11.26 6.56,0.87 7.2,-3.23 11.52,-8.11 -2.9,-3.95 -4.55,-2.13 -9.03,-3.15 z m -20.09,6.18 c 1.79,-1.94 7.69,-1.82 10.17,-1.59 -1.27,1.86 -2.72,4.84 -2.91,5.24 -3.82,-0.25 -6.96,-1.12 -7.51,-1.45 -0.69,-0.39 -1.05,-1.82 0.25,-2.2 z m 11.85,-3.53 c -4.07,0.2 -7.75,0.27 -11.54,2.02 0.78,-1.81 1.7,-3.23 2.8,-4.86 4.33,1.33 4.15,0.91 7.99,-1.62 2.93,0.66 2.62,-0.52 4.12,-3.02 0.47,0.64 0.94,1.27 1.4,1.91 -0.8,0.96 -3.23,3.87 -4.77,5.57 z m 8.86,-20.11 c -1.95,-1.68 -4.86,-4.62 -4.65,-7.17 0.27,-3.76 -1.68,-6.11 -1.68,-6.11 0,0 -5,1.5 -6.2,0.17 -5.17,-5.65 -6.51,-11.7 -0.78,-17.17 0,0 -0.91,-4.03 1.23,-6.3 2.15,-2.34 8.51,-3.35 8.51,-3.35 3.63,2.8 8.1,1.15 11.67,3.92 8.21,-6.73 9.18,-9.39 13.74,-8.78 -0.02,-2.33 -0.22,-4.81 -0.67,-7.4 -1.75,-9.81 -3.04,-27.13 -3.58,-34.98 -12.53,0.85 -26.54,0.45 -32.91,-2.71 -3.18,-2.3 2.89,-3.77 2.89,-3.77 20.64,-2.43 39.18,-5.36 60.41,-2.82 9.09,0 15.45,0.22 15.06,2.82 -0.42,2.47 -27.26,4.06 -29.08,4.46 -2.05,0.4 -4.41,0.78 -7,1.11 0.23,3.55 0.03,8.12 -0.31,10.76 -1.1,8.7 1.11,19.84 1.69,26.36 0.04,0.51 0.26,4.24 0.53,8.11 8.18,2.73 10.11,3.7 14.43,11.75 10.93,-3.45 14.69,-2.6 27.5,-0.48 0,0 3.25,-2.34 4.93,-2.34 7.88,0 18.19,16.95 10.48,24.15 -2.74,3.52 -3.75,2.9 -8.34,3.25 1.93,1.51 2.73,2.2 5.13,2.5 -0.1,13.61 -13.21,7.33 -18.54,2.82 -6.09,1.78 -8.75,-0.03 -14.66,-2.47 -7.36,-0.31 -13.42,-2.61 -4.59,3.46 7.66,-0.1 10.2,-1.99 14.32,4.53 7.48,-1.44 7.11,-2.47 6.01,5.16 5.85,-1.38 19.51,-2.76 21.16,4.31 5.52,-2.79 5.83,4.16 1.37,7.35 2.01,2.92 2.64,4.93 2.5,8.49 -0.58,-0.39 -1.15,-0.8 -1.73,-1.2 -0.41,0.57 -0.82,1.13 -1.23,1.69 -0.41,-0.95 -0.82,-1.9 -1.23,-2.85 -0.47,0.9 -0.94,1.8 -1.4,2.7 -1.12,-1.51 -2.25,-3.01 -3.38,-4.52 0,0 -0.45,2.98 -0.45,3.71 0,1.07 -6.67,1.1 -7.57,1.13 1.45,2.81 1.52,5.12 -0.93,7.85 -2.41,2.6 -9.51,1.17 -3.31,2.86 -0.95,0.45 -1.88,0.94 -2.79,1.43 0.71,0.68 1.45,1.36 2.2,2.05 2.2,4.95 3.12,8.83 -3.08,9.4 0,0 -0.91,3.18 -2.24,5.59 -1.3,2.37 -6.92,-2.41 -6.92,-2.41 0,0 -2.24,3.64 -4.15,6.37 -1.92,2.7 -6.04,0.81 -6.04,0.81 -1.17,1.36 -2.31,2.73 -3.41,4.12 0,0 -4.02,3.83 -5.15,4.15 -1.18,0.3 -4.91,-2.85 -4.91,-2.85 -0.52,0.75 -1.07,1.46 -1.63,2.21 -0.32,-0.75 -0.67,-1.46 -1.03,-2.21 -0.59,0.94 -1.18,1.89 -1.75,2.85 -0.27,-0.93 -0.53,-1.81 -0.75,-2.69 -2.43,2.12 -2.28,4.62 -6.3,4.62 -1.1,-0.56 -2.17,-1.08 -3.24,-1.6 -1.19,0.67 -3.15,-0.33 -1.66,1.11 -0.78,0.77 -1.59,1.58 -2.37,2.36 -0.48,-0.58 -1,-1.16 -1.56,-1.72 0,0.94 0,1.89 0,2.87 -0.68,-0.69 -1.35,-1.37 -2.08,-2.08 0,0.84 0,1.68 0,2.55 -0.74,-0.67 -1.48,-1.35 -2.24,-2.07 0.13,0.94 0.23,1.89 0.33,2.86 -6.01,2.49 -9.27,0.69 -13.6,-3.51 -3.78,4.5 -5.88,2.89 -11.07,2.89 0.13,-0.59 0.29,-1.2 0.42,-1.79 -0.67,0.07 -1.36,0.14 -2.04,0.2 0.1,-0.62 0.19,-1.2 0.29,-1.79 -0.95,-0.16 -1.88,-0.32 -2.86,-0.52 6.37,-2.62 11,-0.66 6.43,-7.95 2.53,-1.36 5.33,-2.1 8.08,-2.95 2.7,1.1 5.61,2.37 8.28,3.5 4.13,-2.85 -1.49,-5.62 -3.99,-7.65 -3.73,2.42 -6.41,3.94 -10.62,5.25 -2.5,-0.65 -4.35,2.27 -6.98,3.84 -0.06,-0.56 -0.16,-1.11 -0.25,-1.63 -1.72,0.82 -3.45,1.63 -5.2,2.4 0,-0.48 0,-0.97 0,-1.46 -0.68,0.16 -1.37,0.33 -2.05,0.49 2.19,-3.82 -4.85,-2.35 -1.33,-5.88 -1.62,-1.03 -5.03,-2.6 -5.03,-4.8 0,-2.08 1.92,-5.69 4,-6.5 8.26,0.13 13.36,-8.37 11.52,-9.08 0.23,-0.43 0.49,-0.85 0.71,-1.27 -0.48,0 -0.93,0 -1.42,0 0.49,-0.61 0.94,-1.17 1.42,-1.75 -0.74,0.03 -1.56,0.09 -2.37,0.13 0.56,-0.58 1.1,-1.17 1.66,-1.72 -1.04,0.06 -2.08,0.2 -3.08,0.3 0.65,-0.79 1.26,-1.59 1.91,-2.38 -2.28,-1.71 -2.21,-2.39 -4.15,-0.32 1.39,6.04 1.5,8.76 -5.46,8.76 -0.84,0.75 -1.65,1.49 -2.5,2.21 -0.58,-0.52 -1.16,-1.08 -1.78,-1.59 0.13,-0.75 0.29,-1.5 0.42,-2.21 -0.88,0 -1.76,0 -2.67,0 -3.53,-2.14 -1.55,-4.84 1.66,-5.74 -3.51,-1.64 -3.95,-1.33 -5.03,-5.1 -0.42,0.65 -0.87,1.27 -1.33,1.91 -2.04,-1.01 -5.62,-4.41 -3.37,-6.84 -3.31,-3.3 -4.1,-7.41 2.92,-7.79 0.35,-2.69 5.45,-6.34 7.53,-8.32 -1.53,-3.97 -0.18,-5.27 3.99,-5.27 3.47,-4.1 5.53,-6.84 10.13,-9.86 2.66,-1.74 8.05,2.57 8.05,2.57 3.4,0.82 6.79,1.65 10.19,2.5 z m 2.72,37.32 c -1.57,4.08 -3.12,8.18 -4.94,12.14 9.66,3.49 7.41,-7.42 4.94,-12.14 z m -6.1,11.34 c 0.8,-2.41 1.51,-4.74 2.28,-7.04 -2.23,2.42 -3.14,3.48 -5.32,5.63 0.6,0.67 2.05,2.4 3.04,1.41 z m 47.16,-25.12 c -0.04,0.55 -0.07,1.1 -0.13,1.65 0,0 0.47,5.42 1.93,6.85 0.57,0.56 3.07,0.19 5.89,-0.47 -0.19,-1.66 -0.77,-3.89 -2.58,-4.95 -1.45,-0.84 -3.42,-2.03 -5.11,-3.08 z m 17.64,7.85 c 0.2,1 0.39,2.16 0.39,3.21 0,8.27 4.85,-1.18 5.61,-2.13 -2,-2.84 -3.47,-3.32 -6,-1.08 v 0"
       style="fill:#25732f;fill-opacity:1;fill-rule:evenodd;stroke:none"
       transform="matrix(0.13333333,0,0,-0.13333333,0,869.29333)" />
    <path
       id="path181"
       d="m 4600.36,2394.03 c -2.27,4.36 -6.07,11.85 -6.07,13.37 0,2.17 1.32,13.4 6.88,11.99 1.61,-0.41 3.22,-0.82 4.81,-1.23 -0.97,1.37 -1.95,2.74 -2.91,4.11 0,0 -1.1,-2.17 -3.12,1.18 -2.13,3.35 -2.13,6.18 -2.13,6.18 0,0 -4.76,2.02 -3.11,5.33 1.66,3.3 7.51,6.74 7.51,6.74 0,1.66 0,3.31 0,4.96 -9.49,-0.87 -14.81,-4.15 -6.42,4.82 -7.44,6.58 -2.89,4.72 5.18,6.08 -0.62,1.11 -1.25,2.23 -1.88,3.35 3.92,6.82 6.95,9.95 14.44,11.7 -4.24,4.19 -4.91,3.44 -0.67,7.68 1.41,0.21 2.81,0.41 4.2,0.62 -4.25,6.57 -8.4,-1.14 -2.07,8.11 1.42,0.75 2.83,1.52 4.25,2.27 -5.29,9.8 -9.08,6.84 3.35,12.26 0,0 2.63,9.63 6.42,9.63 2.05,0 5.99,-0.41 9.13,-0.78 3.64,3.97 4.12,7.33 6.15,1.35 3.71,2.73 3.77,4.08 4.34,-0.85 0,0 1.97,-1.04 4.34,-0.2 6.91,2.41 6.95,7.34 7.68,-1.65 0,0 4.35,5.77 5.25,6 8.54,1.8 7.13,12.35 11.51,0.37 5.19,4.58 10.47,8.4 14.77,5.72 -0.89,-3.62 -1.77,-7.24 -2.65,-10.85 0.67,-1.52 1.32,-3.02 1.98,-4.54 3.2,5.79 14.87,17.93 8.07,2.89 1.89,0.13 3.78,0.28 5.66,0.41 6.47,4.07 5.57,-9.43 8.59,-3.91 3.91,7.31 15.43,-3.12 19.86,-8.44 1.85,-2.18 5.85,0.66 6.8,-1.94 0.98,-2.82 -3.02,-12.12 -0.23,-13.4 1.64,-0.75 8.39,4.34 8.39,4.34 -0.02,-2.15 -0.03,-4.3 -0.05,-6.46 2.17,-4.76 4.06,-3.92 9.77,-2.69 -0.85,-8.49 -2.7,-8.82 4.48,-16.28 1.37,-1.57 2.74,-3.14 4.1,-4.71 1.32,-4.11 0.34,-5.25 -3.91,-5.76 0.17,-0.75 0.35,-1.51 0.51,-2.27 6.94,-1.89 4.68,-1.97 8.03,-7.26 0,0 -9.29,1.98 -10.61,0.94 -2.55,-2.08 10.41,-5.43 6.65,-9.01 -1.34,-1.23 -2.95,-2.21 -4.15,-2.84 2.09,-7.28 2.5,-5.88 -5.05,-6.5 3.52,-10.86 9.21,-9.16 4.76,-20 0,0 -2.98,-0.99 -2.98,-1.99 0,-4.14 4.87,-5.49 -0.37,-6.5 1.25,-5.93 1.66,-5.3 -4.16,-3.78 4.49,-10.51 1.3,-9.82 -8.17,-6.32 2.96,-7.28 14.53,-7.58 8.14,-13.29 2.89,-1.75 2.05,-1.96 1.21,-5.21 4.23,-12.85 -6.15,-5.39 -12.5,-3.11 -1.59,-1.71 -3.17,-3.43 -4.76,-5.14 -6.7,-4.28 -8.38,-4.04 -16.37,-3.54 -0.85,-4.5 -2.6,-2.72 -6.89,-2.17 1.49,-4.19 1.34,-3.56 -2.59,-5.62 0.36,-1.7 0.72,-3.39 1.09,-5.09 -10.15,-2.69 -10.46,-5.26 -20.91,-3.78 0,0 -4.97,-0.18 -8.48,0.26 -1.09,-4.76 -2.91,-12.97 -4.12,-15.29 -1.81,-3.48 -3.86,-18.79 -4.47,-23.47 -0.49,-3.66 -3.12,-15.26 -4.18,-19.9 2.82,-0.68 5.43,-1.26 6.58,-1.42 3.01,-0.48 28.4,-0.61 30.43,-2.08 1.98,-1.46 -4.96,-1.31 -10.1,-2.22 -5.14,-0.89 -63.54,-1.46 -72.23,-0.7 -8.68,0.7 -6.7,1.61 -4.34,2.79 2.31,1.17 29.39,2.91 33.73,3.82 1.38,0.28 2.46,0.62 3.3,0.95 -1.35,5.33 -3.81,14.95 -5.24,19.8 -1.98,6.94 -3.25,20.77 -2.21,26.57 1.88,11.01 0.47,20 -8.87,25.09 -1.99,-1.26 -4,-2.54 -6,-3.81 -8,-8.93 -14.71,-5.58 -26.51,-5.05 -2.84,-0.59 -5.69,-1.16 -8.53,-1.75 0,0 -5.47,1.08 -8.87,2.69 -3.35,1.56 0.7,5.61 0.7,5.61 -6.62,1.8 -4.85,1.56 -0.23,5.95 0,0 -5.19,1.79 -5.66,3.53 -0.38,1.8 4.01,6.57 4.01,6.57 -5,1.67 -3.01,2.09 -0.52,6.37 -1.99,2.09 -1.76,1.81 -0.33,4.34 0,0 -1.65,2.54 -0.62,3.72 1.04,1.18 6.28,2.13 6.28,2.13 1.07,3.02 2.14,6.04 3.2,9.05 -0.09,0.39 -0.19,0.78 -0.29,1.16 z m 55.3,-16.91 c 0.18,-0.67 0.36,-1.33 0.52,-1.98 0.64,0.21 1.26,0.43 1.89,0.65 -0.8,0.44 -1.61,0.88 -2.41,1.33 z m -7.26,-1.7 c -0.86,-0.35 -1.73,-0.69 -2.59,-1.04 0.65,-0.29 1.29,-0.57 1.94,-0.86 0.21,0.64 0.43,1.27 0.65,1.9 z m -8.07,2.35 c -0.56,-1 -1.13,-2.01 -1.7,-3.01 1.77,0.97 3.53,1.95 5.29,2.93 -1.19,0.02 -2.39,0.05 -3.59,0.08 z m -0.28,7.6 c 1.47,-0.17 2.93,-0.34 4.39,-0.51 -0.56,-0.7 -1.13,-1.39 -1.69,-2.09 0.49,-0.13 1,-0.28 1.5,-0.41 -2.14,-0.93 -4.28,-1.86 -6.42,-2.79 -0.1,0.66 -0.19,1.32 -0.28,1.98 0,0 1.75,1.22 2.31,1.93 0.57,0.71 0.19,1.89 0.19,1.89 z m -7.88,71.06 c 0.97,0.33 1.95,0.65 2.93,0.98 -1.44,-2.14 -1.21,-3.18 -2.93,-0.98 z m 7.55,0.23 c 0,0.57 -0.52,1.04 -1.13,1.04 -3.02,0 1.13,-3.85 1.13,-1.04 z m -12.64,-12.22 c 0,0 7.78,4.06 9.15,2.5 1.32,-1.56 4.3,-0.89 4.3,-0.89 -0.41,-0.88 -0.82,-1.76 -1.23,-2.65 -4.07,0.35 -8.15,0.69 -12.22,1.04 z m 34.81,-3.06 c -0.36,-0.84 -0.72,-1.67 -1.08,-2.5 0.42,-1.28 0.85,-2.55 1.27,-3.83 1.46,3.46 2.9,4.04 -0.19,6.33 z m 11.57,-16.38 c 1.08,1.65 2.17,3.3 3.25,4.96 -4.45,-0.3 -3.48,-0.57 -3.25,-4.96 z m 76.81,12.08 c 1.03,-0.15 3.06,0.42 3.06,0.42 -0.62,4.86 0.22,2.83 3.49,0.48 1.06,3.43 0.67,8.08 4.24,1.65 0.29,-0.43 0.8,-2.22 0.8,-2.22 -2.14,-0.14 -2.84,-0.05 -4.52,-1.36 2.94,-3.39 0.95,-1.93 -2.17,-1.09 -1.24,-1.31 -1.22,-2.03 0.51,-3.4 4.66,-4.11 -4.8,1.37 -6.45,3.12 -3.02,0.41 -4.28,-0.14 -1.28,1.93 -2.38,4.93 -0.61,0.89 2.32,0.47 z m -53.32,-4.3 c 0,0 4.77,3.07 6.09,3.07 1.27,0 5.47,-1.83 5.47,-1.83 -12.36,-1.93 -6.08,-4.06 -2.31,-3.82 1.62,0.09 -5.43,-2.13 -5.43,-2.13 -1.27,1.57 -2.55,3.14 -3.82,4.71 z m 42.13,8.31 c -1.13,-3.1 -1.72,-4.5 -1.31,-7.74 2.18,3.64 2.63,3.74 1.31,7.74 z m -6.18,3.12 c 0.8,0.75 1.6,1.5 2.4,2.25 1.99,-3.43 1.18,-2.51 -2.4,-2.25 z m 2.31,14 c 2.18,1.52 2.9,1.26 5.06,-0.08 0.39,-6.14 -4.78,-4.29 -5.06,0.08 z m 13.4,8.78 c 0,0 -2.64,-1.23 -1.75,-2.4 2.28,-2.99 3.31,0.5 3.69,1.98 -0.65,0.14 -1.29,0.28 -1.94,0.42 z m -3.82,9.3 c -1.07,-0.25 -2.15,-0.51 -3.21,-0.76 0.18,-0.25 4.77,-6.64 4.77,-2.12 0,0.9 -1.56,2.88 -1.56,2.88 z m -16.47,5.65 c 1.36,-0.93 2.7,-1.88 4.06,-2.82 1.96,4.4 0.19,2.94 -4.06,2.82 z m 2.5,-4.9 c -2.59,-1.03 -3.67,-4.53 -0.98,-4.38 5.51,0.28 3.26,2.91 0.98,4.38 z m -22.03,-60.95 c 0.97,-4.04 0.81,-3.36 4.86,-2.61 -1.62,0.88 -3.24,1.75 -4.86,2.61 z m -7.78,-8.78 c 0,0.94 -0.76,1.69 -1.79,1.69 -5.19,0 1.79,-6.66 1.79,-1.69 z m -20.33,-9.01 c 4.96,0 -1.66,6.35 -1.66,1.6 0,-0.9 0.75,-1.6 1.66,-1.6 z m -8.64,0.33 c -0.66,0 -1.18,-0.52 -1.18,-1.09 0,-3.26 4.57,1.09 1.18,1.09 z m -7.83,3.16 c 4.81,0 -1.7,6.28 -1.7,1.65 0,-0.89 0.75,-1.65 1.7,-1.65 z m -45.39,9.19 c 0.85,0 1.6,0.72 1.6,1.52 0,4.4 -6.24,-1.52 -1.6,-1.52 z m 6.28,-9.81 c -0.95,0 -1.65,-0.7 -1.65,-1.55 0,-4.45 6.41,1.55 1.65,1.55 z m 4.2,6.38 c -0.8,0 -1.47,-0.57 -1.47,-1.33 0,-3.96 5.49,1.33 1.47,1.33 z m 16.98,12.55 c -0.71,0 -1.23,-0.57 -1.23,-1.23 0,-3.47 4.89,1.23 1.23,1.23 z m -18.31,4.76 c 0,0 1.84,3.64 4.76,3.97 2.79,0.32 2.84,-1.8 2.84,-1.8 3.69,-4.61 -6.14,-7.1 -10.47,-2.83 0.95,0.23 1.91,0.44 2.87,0.66 z m -20.28,11.75 c 0.49,0.94 0.97,1.89 1.46,2.83 -0.46,0.74 -0.92,1.48 -1.37,2.22 0,0 4.24,0.75 5.94,-0.38 1.65,-1.14 1.8,-3.78 1.8,-3.78 1.39,0.95 2.8,1.89 4.2,2.83 0.3,1.19 0.59,2.37 0.89,3.55 0,0 2.79,-0.77 2.79,-1.94 0,-2.58 -6.02,-5.13 -7.75,-6.13 0.66,-1.29 1.3,-2.59 1.95,-3.88 -3.57,-3.41 -3.41,-0.59 -5.9,3.12 -2.15,-1.21 -4.84,-1.95 -4.01,1.56 z m 67.04,-112.66 c -0.56,-2.66 -7.8,-36.72 -7.8,-36.72 0,0 -0.59,7.27 -3.86,17.27 -2.96,9.11 -4.05,17.23 -4.05,23.64 0,6.42 -1.32,18.22 -1.32,18.22 -0.49,3.41 2.22,1.53 5,1.08 9.24,-16.52 17.44,2.12 12.03,-23.49 v 0"
       style="fill:#25732f;fill-opacity:1;fill-rule:evenodd;stroke:none"
       transform="matrix(0.13333333,0,0,-0.13333333,0,869.29333)" />
    <path
       id="path182"
       d="m 4518.38,2370.39 c 0.77,0.67 1.69,1.03 0.18,0.84 -0.05,-0.28 -0.12,-0.57 -0.18,-0.84 z m 4.86,0.21 c -0.1,0.6 -0.2,1.21 -0.31,1.81 -0.82,0 -1.65,0 -2.48,0 -1.21,-2.16 0.21,-1.26 2.79,-1.81 z m 5.69,-5.89 c 0.05,0.29 0.1,0.58 0.16,0.88 2.67,1.8 2.8,2.07 3.78,5.19 -0.35,0.1 -0.7,0.19 -1.05,0.27 -0.45,-0.35 -0.9,-0.69 -1.35,-1.03 0,-0.8 0,-1.59 0,-2.39 -0.81,0.11 -1.61,0.23 -2.41,0.35 -0.35,0.79 -0.68,1.59 -1.02,2.38 -5.54,0 -1.86,-4.64 1.89,-5.65 z m -1.54,-12.09 c -2.42,-1.41 -3.39,-2.51 -6.16,-2.05 0.46,0.8 0.92,1.59 1.38,2.39 -3.97,0.89 -6.78,-2.55 -3.45,-3.44 3.75,2.49 0.92,-3.23 6.18,0.71 3.77,-0.87 5.23,-0.8 2.05,2.39 z m -16.54,2.04 c -0.07,0.23 -0.14,0.46 -0.21,0.68 -2.05,0 -2.72,-0.67 -2.72,1.5 -0.5,-2.29 -0.85,-1.07 -2.39,0.2 -1.13,-0.52 -2.25,-1.03 -3.38,-1.55 0.26,-0.88 0.52,-1.77 0.77,-2.65 0.3,0.16 0.6,0.3 0.91,0.46 3.36,2 3.03,2.34 6.15,0 -1.46,0 0.27,0.84 0.87,1.36 z m -1.21,13.32 c 0.13,0.08 0.27,0.16 0.41,0.24 -0.33,0.44 -0.66,0.88 -0.99,1.32 -1.91,1.6 -1.66,1.6 -3.81,0.35 0.67,-0.18 1.33,-0.36 2,-0.53 0.81,-3.03 0.78,-10.12 2.39,-1.38 z m 1.66,1 c 0.01,0.01 0.03,0.02 0.04,0.02 4.18,2.5 4.09,0.48 4.6,5.43 -0.97,-0.21 -1.94,-0.43 -2.9,-0.64 1.42,-2.48 1.89,-2.31 -1.02,-2.74 -0.63,0.27 -1.26,0.54 -1.89,0.81 -0.05,-0.14 -0.1,-0.29 -0.15,-0.43 0.11,-0.58 0.22,-1.16 0.32,-1.73 0.34,-0.24 0.67,-0.48 1,-0.72 z m 0.72,19.48 c -1.95,-1.47 -3.32,-2.26 -5.61,-3.1 0.58,1.94 1.17,3.89 1.74,5.83 0.16,0 0.31,0 0.46,0 0.39,-2.68 1.07,-2.73 3.41,-2.73 z m -1.57,16.93 c 0.21,0.15 0.42,0.29 0.64,0.42 1.46,2.28 2.34,-2.12 6.4,1.44 1.47,-0.36 2.96,-0.7 4.44,-1.04 1.02,-3.54 -1.98,-3.67 5.11,-5.81 3.26,-8.18 1.98,-9.01 0.75,-12.76 2.7,-1.66 2.3,1.21 8.46,-0.19 1.54,-5.41 4.05,-3.14 6.5,-9.24 -0.68,0.35 -1.36,0.7 -2.05,1.04 1.94,-4.31 5.82,-7.23 1.84,-8.83 -0.91,-2.71 1.03,-1.79 1.91,-4.83 -0.56,0 -1.13,0 -1.7,0 0.91,-0.69 1.82,-1.36 2.73,-2.04 3.33,-1.35 3.43,-1.45 4.79,-4.78 -3.12,1.83 0.71,-5.02 -1.04,-10.25 -0.68,0.57 -1.37,1.14 -2.05,1.71 -4.49,-2.09 4.5,-10.41 4.78,-11.25 1.27,-1.56 4.15,-7.5 0.34,-4.46 -1.01,-3.02 -0.49,-3.5 -3.03,-1.38 0.52,-2.87 5.4,-6.53 1.34,-8.18 0,-2.73 -0.41,-2.04 -3.08,-2.04 -0.93,-3.2 -1.48,-2.38 -4.78,-2.38 -1.1,-2.55 -1.01,-2.4 -3.77,-2.74 0,3.34 -0.64,3.58 -3.84,2.86 1.85,-0.78 1.48,-2.66 1.8,-4.55 0.69,-0.7 1.36,-1.38 2.04,-2.08 0.57,-2.8 1.42,-3.15 -1.35,-4.08 0,-2.83 0.08,-2.39 -2.74,-2.39 -0.91,-3.2 -1.47,-2.39 -4.77,-2.39 -1.56,-2.31 -4.11,-4.46 -4.11,-0.35 -1.43,1.92 -1.86,1.08 -4.08,0.35 3.41,-5.15 -4.27,-1.12 -5.82,-0.35 -2.59,-2.15 -2.08,-1.63 -3.4,1.36 -4.49,-2.95 -0.9,2.86 0.67,4.46 0.46,1.25 0.92,2.5 1.38,3.74 -2.38,-1.18 -1.56,0.95 -7.16,-3.74 0,-19.25 0.13,-38.47 0.32,-57.71 v 0 c -3.19,0 -6.38,0 -9.56,0 0,13.21 0.35,26.41 0.35,39.61 -2.58,4.3 -4.82,7.6 -8.22,11.25 -3.89,0 -1.78,-2.38 -6.8,-2.38 -0.46,-0.8 -0.92,-1.6 -1.38,-2.39 -2.55,0 -2.73,-0.56 -2.73,2.04 -0.45,0.46 -0.91,0.92 -1.36,1.38 -1.02,-0.35 -2.05,-0.69 -3.08,-1.03 0.47,-0.8 0.92,-1.6 1.38,-2.39 -0.68,0 -1.38,0 -2.06,0 -5.51,2.36 -6.79,-1.27 -8.18,3.42 -0.67,-0.46 -1.36,-0.92 -2.04,-1.38 0.11,1.25 0.21,2.51 0.32,3.76 1.94,1.93 2.64,3.31 3.77,5.82 -3.26,-1.65 -1.69,-0.12 -0.69,2.39 0.81,0.19 1.61,0.39 2.42,0.6 -0.8,2.35 -0.47,2.33 -2.42,0.75 0.23,2.76 -0.34,2.82 -0.34,5.12 -0.57,0.34 -1.14,0.69 -1.7,1.04 -0.91,-0.24 -1.83,-0.46 -2.74,-0.7 2.14,-3.17 -11.04,-0.23 -11.27,-0.34 0.23,1.25 0.46,2.51 0.68,3.76 0.69,0.69 1.37,1.37 2.05,2.05 1.61,4.39 1.4,3.71 -2.73,5.46 -0.8,-0.57 -1.6,-1.14 -2.39,-1.72 -0.95,2.89 -0.4,3.49 -3.04,1.72 0.36,4.29 2.32,5.68 4.07,9.56 -0.68,-0.35 -1.36,-0.69 -2.05,-1.03 0.46,1.14 0.91,2.27 1.36,3.41 0.46,0.12 3.51,0.7 3.43,1.04 0.02,-0.06 0.04,-0.11 0.06,-0.16 0.2,0.05 0.42,0.1 0.62,0.16 0.91,0.79 1.83,1.59 2.74,2.38 -1.63,0 -1.83,-0.37 -1.36,1.26 -0.34,0.15 -0.69,0.3 -1.03,0.44 -2.86,-2.01 -2.35,-1.89 -3.43,1.38 -0.68,-0.46 -1.36,-0.92 -2.03,-1.38 0.39,4.27 2.32,5.69 4.08,9.55 -0.01,0 -0.01,0 -0.01,0 -3.25,-1.6 -1.67,-0.08 -0.68,2.39 0.01,0.02 0.03,0.02 0.05,0.02 -0.02,0.11 -0.04,0.22 -0.05,0.33 0.06,-0.1 0.12,-0.2 0.18,-0.3 1.31,0.32 2.62,0.66 3.94,0.99 3.42,3 -0.64,4.27 3.92,5.25 -0.28,0.87 -0.57,1.74 -0.85,2.6 -0.69,-0.46 -1.37,-0.92 -2.07,-1.37 0.39,4.27 2.34,5.7 4.11,9.57 -0.68,-0.45 -1.36,-0.91 -2.04,-1.37 1.79,4.96 4.08,3.86 7.83,7.15 -5.5,-1.93 3.52,6.93 4.46,7.86 3.22,7.14 -1.65,-0.54 1,6.16 6.86,1.72 4.86,1.89 5.47,5.46 9.5,2.51 5.36,-4.51 11.94,3.4 0.67,7.35 1.39,1.24 5.39,3.51 4.89,2.45 2.15,-0.66 15.24,-3.64 z m -9.24,-10.25 c -0.16,0.06 -0.3,0.09 -0.46,0.14 -2,-2 -0.34,-3.55 -3.22,-3.13 0.17,-0.55 0.33,-1.1 0.49,-1.65 -0.68,-0.22 -1.36,-0.44 -2.04,-0.66 0,-0.41 0,-0.81 0,-1.21 3.04,-1.91 6.32,0.73 5.11,5.98 0.04,0.19 0.08,0.36 0.12,0.53 z m -20,-12.01 c -0.43,0.63 -0.86,1.27 -1.29,1.91 1.03,0.34 2.05,0.68 3.08,1.03 0.46,-0.46 0.92,-0.9 1.38,-1.35 0,-0.7 0,-1.38 0,-2.08 0.16,0.03 0.32,0.05 0.48,0.06 0.43,-2.47 1,-5.88 2.91,-6.53 0,-0.79 0,-1.59 0,-2.38 0.58,0 1.16,0 1.73,0 -0.69,-0.46 -1.37,-0.92 -2.07,-1.38 -0.22,-1.25 -0.44,-2.5 -0.66,-3.75 -2.99,-3.54 -1.91,-2.55 -5.87,1.14 0.02,0.08 0.04,0.15 0.06,0.22 1.02,0 2.05,0 3.07,0 0,0.79 0,1.59 0,2.39 0.69,0.23 1.37,0.46 2.04,0.69 -1.11,3.71 -3.04,5.68 -3.76,9.54 -0.37,0.17 -0.73,0.33 -1.1,0.49 z m 5.31,-0.21 c 0.2,0.02 0.39,0.05 0.59,0.08 0.45,0.67 0.91,1.36 1.36,2.04 0.14,0 0.29,0 0.44,0 -0.15,-0.8 -0.3,-1.59 -0.44,-2.4 -1.01,-1.4 -1.47,-1.53 -1.95,0.28 z m 12.82,-27.63 c -0.1,0.02 -0.19,0.04 -0.29,0.05 0.05,0.1 0.11,0.2 0.17,0.3 -0.31,0.85 -0.63,1.72 -0.94,2.57 -0.31,0.07 -0.61,0.14 -0.92,0.21 -1.35,-1.79 -1.66,-2.19 0.66,-2.73 0.5,-1.77 1.38,-2.39 -0.66,-2.39 0.78,-0.79 1.59,-1.59 2.37,-2.38 0.28,-0.09 0.55,-0.17 0.83,-0.26 -0.31,1.65 -0.65,3.07 -1.22,4.63 z m -14.96,-14.61 c -0.79,0 -1.6,0 -2.39,0 0,2.43 0.24,2.3 -2.07,3.07 0.53,1.73 0.35,2.17 0.35,4.08 -0.46,0.46 -0.91,0.92 -1.35,1.38 -0.97,-0.32 -1.93,-0.65 -2.9,-0.97 0.03,-0.17 0.05,-0.35 0.09,-0.53 0.35,-0.64 0.71,-1.27 1.08,-1.92 -0.23,-0.03 -0.45,-0.07 -0.67,-0.1 1.21,-5.36 1.96,-6.7 5.71,-10.72 0.03,0.31 0.06,0.62 0.08,0.93 7.07,2.99 3.22,1.24 2.07,4.78 z m 22.87,-3.43 c -1.01,0 -2.02,0 -3.03,0 -0.24,-1.14 -0.49,-2.27 -0.74,-3.4 5.54,-0.93 5.66,-0.43 3.77,3.4 z m -10.11,-18.66 c -0.28,-0.15 -0.55,-0.3 -0.82,-0.45 -0.57,0.19 -1.13,0.38 -1.7,0.56 0,-0.52 0,-1.06 0,-1.59 -1.03,0 -2.05,0 -3.08,0 -0.23,-0.68 -0.45,-1.36 -0.69,-2.04 -0.37,0 -0.74,0 -1.12,0 0.15,-0.8 0.29,-1.59 0.44,-2.39 0.68,-0.79 1.37,-1.59 2.06,-2.39 0.32,-1.06 0.63,-2.14 0.95,-3.2 0.7,-1.11 1.4,-2.2 2.1,-3.3 0.58,0.35 1.16,0.69 1.73,1.03 0.45,2.62 0.9,5.24 1.35,7.86 -0.4,1.97 -0.81,3.94 -1.22,5.91 z m 39.45,48.37 c 3.97,3.47 1.08,0 0,0 z m -1.8,-16.45 c -0.08,0.13 -0.16,0.27 -0.24,0.41 -2.85,0 -3.63,-0.86 -4.08,2.04 -0.08,0 -0.16,0 -0.24,0 -0.09,-2.35 -0.39,-2.79 1.25,-4.44 1.1,0.66 2.2,1.32 3.31,1.99 z m -18.65,-16.11 c -0.01,0.04 -0.01,0.08 -0.03,0.12 -0.22,0 -0.46,0 -0.68,0 -2.21,0 -2.05,-0.27 -2.05,1.71 -0.75,-2.25 -2.01,-4.37 -3.08,-6.48 -2.09,-2.63 -2.86,-3.95 -3.74,-7.17 -0.11,-2.28 -0.23,-4.55 -0.34,-6.83 4.71,3.45 4.42,1.95 4.42,6.14 -0.56,0.23 -1.13,0.45 -1.69,0.69 0.51,2.58 0.87,3.67 2.39,5.81 0.79,4.31 1.32,3.92 4.8,6.01 z m -41.64,31.03 c 0.01,0.03 0.01,0.05 0.02,0.08 0.09,0.03 0.19,0.05 0.28,0.08 0.47,0.68 0.92,1.36 1.38,2.04 1.36,0 2.73,0 4.09,0 0.04,0.14 0.08,0.29 0.12,0.44 0.97,-0.84 1.93,-1.68 2.89,-2.52 -2.84,-1.89 -4.17,1.12 -8.78,-0.12 z m -5.01,-18.35 c 0.3,0.26 0.59,0.51 0.88,0.75 0.17,-0.09 0.33,-0.17 0.5,-0.26 3.58,-3.81 4.33,-6.66 5.99,-11.67 1.27,-0.97 2.53,-1.92 3.78,-2.88 -4.68,-1.01 -1.88,1.16 -5.84,2.88 -0.21,0.11 -0.42,0.23 -0.63,0.34 0.32,0.11 0.65,0.21 0.97,0.32 -0.75,3.79 -2.71,5.71 -3.39,9.57 -0.75,0.32 -1.5,0.64 -2.26,0.95 z m -0.21,18.49 c 0.02,0 0.04,0.02 0.06,0.02 -0.45,0.68 -0.9,1.36 -1.36,2.04 2.41,0.81 2.66,1.47 4.43,-0.34 0,-3.18 -0.41,-3.2 -3.13,-1.72 z m -6.4,1.52 c 0.34,-0.38 0.67,-0.77 1.01,-1.16 0.68,-0.33 1.36,-0.68 2.04,-1.02 -1.64,-1.09 -0.58,-0.48 -3.41,1.71 -0.45,-0.1 -0.9,-0.19 -1.35,-0.29 0.45,0.32 0.9,0.63 1.35,0.96 0.12,-0.07 0.25,-0.13 0.36,-0.2 z m 0.87,-19.11 c -1.85,-1.24 -0.18,-1.12 -2.73,0.86 0.5,0.12 1,0.25 1.5,0.37 0.41,-0.41 0.82,-0.82 1.23,-1.23 v 0"
       style="fill:#25732f;fill-opacity:1;fill-rule:evenodd;stroke:none"
       transform="matrix(0.13333333,0,0,-0.13333333,0,869.29333)" />
  </g>
</svg>
